{
.appVersion = "1361";
DisplayStrings = (
"OØ00"
);
copyright = "Copyright 2021 The M+ FONTS Project Authors (https://github.com/coz-m/MPLUS_FONTS)";
customParameters = (
{
name = vendorID;
value = UFDN;
},
{
name = "Enforce Compatibility Check";
value = 1;
},
{
name = Axes;
value = (
{
Name = Weight;
Tag = wght;
},
{
Name = Width;
Tag = wdth;
}
);
},
{
name = note;
value = "*sup: W68%/H44%(320,330) (Bold +20/30, Thin 20, Regular +8)\012©®:   W50%/H40% (Black +10, Thin 20, Regular +20)\012TM:   50% (Black +0, Thin 20, Regular=Black)\012ord*: W96%/H84% (Black +6/12, Thin 20, Regular +0/2)\012\012%:    60% (Black +20, Thin 20, Medium +20)\012ord*: 80% (Black +10, Thin 20, Medium +10)\012*sup: 60% (Black +20, Thin 20, Medium +20)\012©®:   60% (Black +20, Thin 20, Medium +20)\012TM:   50% (Black +0~10, Thin 20, Medium +20)\012\012*sml: X100、Y-8、W80%、H80% (Black +20, Thin 20, Medium +6)\012\012full-width bracket pairs: X1000, Y720 Rotate180";
},
{
name = fsType;
value = (
);
},
{
name = license;
value = "This Font Software is licensed under the SIL Open Font License, Version 1.1. This license is available with a FAQ at: https://scripts.sil.org/OFL";
},
{
name = licenseURL;
value = "https://scripts.sil.org/OFL";
},
{
name = isFixedPitch;
value = 1;
},
{
name = panose;
value = (
2,
0,
0,
9,
0,
0,
0,
0,
0,
0
);
},
{
name = "Use Typo Metrics";
value = 1;
}
);
date = "2021-02-26 07:42:34 +0000";
designer = "Coji Morishita";
designerURL = "http://www.underforest.com";
familyName = "M PLUS Code";
featurePrefixes = (
{
automatic = 1;
code = "languagesystem DFLT dflt;\012\012languagesystem latn dflt;\012languagesystem latn AZE;\012languagesystem latn CRT;\012languagesystem latn KAZ;\012languagesystem latn TAT;\012languagesystem latn TRK;\012languagesystem latn ROM;\012languagesystem latn MOL;\012languagesystem latn CAT;\012";
name = Languagesystems;
}
);
features = (
{
automatic = 1;

glyphs = (
{
color = 6;
glyphname = A;
lastChange = "2021-05-05 04:42:54 +0000";
layers = (
{
anchors = (
{
name = bottom;
position = "{250, 0}";
},
{
name = ogonek;
position = "{435, 0}";
},
{
name = top;
position = "{250, 730}";
},
{
name = top_ring;
position = "{250, 660}";
}
);
layerId = "D65C9A1E-0FCA-4B2D-8EDF-9F36CA9182A1";
paths = (
{
closed = 1;
nodes = (
"56 0 LINE",
"248 711 LINE",
"252 711 LINE",
"444 0 LINE",
"465 0 LINE",
"267 730 LINE",
"233 730 LINE",
"35 0 LINE"
);
},
{
closed = 1;
nodes = (
"385 245 LINE",
"385 265 LINE",
"115 265 LINE",
"115 245 LINE"
);
}
);
width = 500;
},
{
anchors = (
{
name = bottom;
position = "{250, 0}";
},
{
name = ogonek;
position = "{436, 0}";
},
{
name = top;
position = "{250, 730}";
},
{
name = top_ring;
position = "{250, 630}";
}
);
layerId = "E27A6A66-A1F8-4E1B-8224-7C0FE77551F2";
paths = (
{
closed = 1;
nodes = (
"102 0 LINE",
"248 636 LINE",
"252 636 LINE",
"398 0 LINE",
"480 0 LINE",
"299 730 LINE",
"201 730 LINE",
"20 0 LINE"
);
},
{
closed = 1;
nodes = (
"388 200 LINE",
"388 270 LINE",
"112 270 LINE",
"112 200 LINE"
);
}
);
vertWidth = 1000;
width = 500;
},
{
anchors = (
{
name = bottom;
position = "{250, 0}";
},
{
name = ogonek;
position = "{432, 0}";
},
{
name = top;
position = "{250, 730}";
},
{
name = top_ring;
position = "{250, 600}";
}
);
layerId = "FC9CFCDA-9E80-4E73-BA51-8504D15957FA";
paths = (
{
closed = 1;
nodes = (
"147 0 LINE",
"248 560 LINE",
"252 560 LINE",
"353 0 LINE",
"495 0 LINE",
"330 730 LINE",
"170 730 LINE",
"5 0 LINE"
);
},
{
closed = 1;
nodes = (
"390 155 LINE",
"390 275 LINE",
"110 275 LINE",
"110 155 LINE"
);
}
);
vertWidth = 1000;
width = 500;
},
{
anchors = (
{
name = bottom;
position = "{300, 0}";
},
{
name = ogonek;
position = "{517, 0}";
},
{
name = top;
position = "{300, 730}";
},
{
name = top_ring;
position = "{300, 600}";
}
);
layerId = "0F1A0AC1-B8D5-4257-ADED-894CB2B827EF";
paths = (
{
closed = 1;
nodes = (
"166 0 LINE",
"298 560 LINE",
"302 560 LINE",
"434 0 LINE",
"580 0 LINE",
"384 730 LINE",
"216 730 LINE",
"20 0 LINE"
);
},
{
closed = 1;
nodes = (
"460 155 LINE",
"460 275 LINE",
"140 275 LINE",
"140 155 LINE"
);
}
);
vertWidth = 1000;
width = 600;
},
{
anchors = (
{
name = bottom;
position = "{300, 0}";
},
{
name = ogonek;
position = "{521, 0}";
},
{
name = top;
position = "{300, 730}";
},
{
name = top_ring;
position = "{300, 630}";
}
);
layerId = "72F02222-BF87-41FD-9A7E-0ABB550ED2DB";
paths = (
{
closed = 1;
nodes = (
"119 0 LINE",
"298 636 LINE",
"302 636 LINE",
"481 0 LINE",
"565 0 LINE",
"351 730 LINE",
"249 730 LINE",
"35 0 LINE"
);
},
{
closed = 1;
nodes = (
"457 200 LINE",
"457 270 LINE",
"143 270 LINE",
"143 200 LINE"
);
}
);
vertWidth = 1000;
width = 600;
},
{
anchors = (
{
name = bottom;
position = "{300, 0}";
},
{
name = ogonek;
position = "{520, 0}";
},
{
name = top;
position = "{300, 730}";
},
{
name = top_ring;
position = "{300, 660}";
}
);
layerId = "D0C1F23C-2F9F-4D30-8C4D-098ED54EEF3D";
paths = (
{
closed = 1;
nodes = (
"71 0 LINE",
"298 712 LINE",
"302 712 LINE",
"529 0 LINE",
"550 0 LINE",
"317 730 LINE",
"283 730 LINE",
"50 0 LINE"
);
},
{
closed = 1;
nodes = (
"453 245 LINE",
"453 265 LINE",
"147 265 LINE",
"147 245 LINE"
);
}
);
width = 600;
}
);
leftKerningGroup = A;
rightKerningGroup = A;
rightMetricsKey = "=|";
unicode = 0041;
},
{
color = 10;
glyphname = AE;
lastChange = "2021-05-05 04:42:54 +0000";
layers = (
{
anchors = (
{
name = bottom;
position = "{250, 0}";
},
{
name = top;
position = "{290, 730}";
}
);
layerId = "D65C9A1E-0FCA-4B2D-8EDF-9F36CA9182A1";
paths = (
{
closed = 1;
nodes = (
"41 0 LINE",
"276 710 LINE",
"280 710 LINE",
"280 0 LINE",
"480 0 LINE",
"480 20 LINE",
"300 20 LINE",
"300 376 LINE",
"470 376 LINE",
"470 396 LINE",
"300 396 LINE",
"300 710 LINE",
"480 710 LINE",
"480 730 LINE",
"262 730 LINE",
"20 0 LINE"
);
},
{
closed = 1;
nodes = (
"290 245 LINE",
"290 265 LINE",
"115 265 LINE",
"115 245 LINE"
);
}
);
width = 500;
},
{
anchors = (
{
name = bottom;
position = "{250, 0}";
},
{
name = top;
position = "{300, 730}";
}
);
layerId = "E27A6A66-A1F8-4E1B-8224-7C0FE77551F2";
paths = (
{
closed = 1;
nodes = (
"94 0 LINE",
"258 636 LINE",
"262 636 LINE",
"262 0 LINE",
"483 0 LINE",
"483 70 LINE",
"342 70 LINE",
"342 351 LINE",
"473 351 LINE",
"473 421 LINE",
"342 421 LINE",
"342 660 LINE",
"483 660 LINE",
"483 730 LINE",
"213 730 LINE",
"12 0 LINE"
);
},
{
closed = 1;
nodes = (
"298 200 LINE",
"298 270 LINE",
"112 270 LINE",
"112 200 LINE"
);
}
);
vertWidth = 1000;
width = 500;
},
{
anchors = (
{
name = bottom;
position = "{250, 0}";
},
{
name = top;
position = "{300, 730}";
}
);
layerId = "FC9CFCDA-9E80-4E73-BA51-8504D15957FA";
paths = (
{
closed = 1;
nodes = (
"135 0 LINE",
"241 560 LINE",
"245 560 LINE",
"245 0 LINE",
"485 0 LINE",
"485 118 LINE",
"365 118 LINE",
"365 328 LINE",
"475 328 LINE",
"475 444 LINE",
"365 444 LINE",
"365 612 LINE",
"485 612 LINE",
"485 730 LINE",
"165 730 LINE",
"5 0 LINE"
);
},
{
closed = 1;
nodes = (
"305 155 LINE",
"305 275 LINE",
"110 275 LINE",
"110 155 LINE"
);
}
);
vertWidth = 1000;
width = 500;
},
{
anchors = (
{
name = bottom;
position = "{300, 0}";
},
{
name = top;
position = "{360, 730}";
}
);
layerId = "0F1A0AC1-B8D5-4257-ADED-894CB2B827EF";
paths = (
{
closed = 1;
nodes = (
"151 0 LINE",
"287 560 LINE",
"291 560 LINE",
"291 0 LINE",
"575 0 LINE",
"575 118 LINE",
"431 118 LINE",
"431 328 LINE",
"563 328 LINE",
"563 444 LINE",
"431 444 LINE",
"431 612 LINE",
"575 612 LINE",
"575 730 LINE",
"199 730 LINE",
"5 0 LINE"
);
},
{
closed = 1;
nodes = (
"361 155 LINE",
"361 275 LINE",
"130 275 LINE",
"130 155 LINE"
);
}
);
vertWidth = 1000;
width = 600;
},
{
anchors = (
{
name = bottom;
position = "{300, 0}";
},
{
name = top;
position = "{345, 730}";
}
);
layerId = "72F02222-BF87-41FD-9A7E-0ABB550ED2DB";
paths = (
{
closed = 1;
nodes = (
"89 0 LINE",
"299 635 LINE",
"304 635 LINE",
"304 0 LINE",
"565 0 LINE",
"565 70 LINE",
"384 70 LINE",
"384 351 LINE",
"553 351 LINE",
"553 421 LINE",
"384 421 LINE",
"384 660 LINE",
"565 660 LINE",
"565 730 LINE",
"248 730 LINE",
"5 0 LINE"
);
},
{
closed = 1;
nodes = (
"345 200 LINE",
"345 270 LINE",
"125 270 LINE",
"125 200 LINE"
);
}
);
vertWidth = 1000;
width = 600;
},
{
anchors = (
{
name = bottom;
position = "{300, 0}";
},
{
name = top;
position = "{330, 730}";
}
);
layerId = "D0C1F23C-2F9F-4D30-8C4D-098ED54EEF3D";
paths = (
{
closed = 1;
nodes = (
"27 0 LINE",
"311 710 LINE",
"318 710 LINE",
"318 0 LINE",
"555 0 LINE",
"555 20 LINE",
"338 20 LINE",
"338 376 LINE",
"543 376 LINE",
"543 396 LINE",
"338 396 LINE",
"338 710 LINE",
"555 710 LINE",
"555 730 LINE",
"298 730 LINE",
"5 0 LINE"
);
},
{
closed = 1;
nodes = (
"328 245 LINE",
"328 265 LINE",
"119 265 LINE",
"119 245 LINE"
);
}
);
width = 600;
}
);
leftKerningGroup = A;
rightKerningGroup = E;
unicode = 00C6;
},
{
color = 6;
glyphname = B;
lastChange = "2021-05-05 04:42:54 +0000";
layers = (
{
layerId = "D65C9A1E-0FCA-4B2D-8EDF-9F36CA9182A1";
paths = (
{
closed = 1;
nodes = (
"372 -10 OFFCURVE",
"450 60 OFFCURVE",
"450 200 CURVE SMOOTH",
"450 305 OFFCURVE",
"406 363 OFFCURVE",
"311 386 CURVE",
"311 390 LINE",
"390 415 OFFCURVE",
"432 471 OFFCURVE",
"432 565 CURVE SMOOTH",
"432 685 OFFCURVE",
"364 740 OFFCURVE",
"216 740 CURVE SMOOTH",
"182 740 OFFCURVE",
"136 737 OFFCURVE",
"80 728 CURVE",
"80 2 LINE",
"135 -7 OFFCURVE",
"182 -10 OFFCURVE",
"216 -10 CURVE SMOOTH"
);
},
{
closed = 1;
nodes = (
"100 2 LINE",
"100 728 LINE",
"83 708 LINE",
"132 716 OFFCURVE",
"176 720 OFFCURVE",
"216 720 CURVE SMOOTH",
"353 720 OFFCURVE",
"412 673 OFFCURVE",
"412 565 CURVE SMOOTH",
"412 452 OFFCURVE",
"347 396 OFFCURVE",
"216 396 CURVE SMOOTH",
"90 396 LINE",
"90 376 LINE",
"216 376 LINE SMOOTH",
"366 376 OFFCURVE",
"430 324 OFFCURVE",
"430 200 CURVE SMOOTH",
"430 71 OFFCURVE",
"361 10 OFFCURVE",
"216 10 CURVE SMOOTH",
"184 10 OFFCURVE",
"137 13 OFFCURVE",
"83 22 CURVE"
);
}
);
width = 500;
},
{
layerId = "E27A6A66-A1F8-4E1B-8224-7C0FE77551F2";
paths = (
{
closed = 1;
nodes = (
"380 -10 OFFCURVE",
"465 64 OFFCURVE",
"465 210 CURVE SMOOTH",
"465 308 OFFCURVE",
"427 366 OFFCURVE",
"347 389 CURVE",
"347 393 LINE",
"412 418 OFFCURVE",
"446 473 OFFCURVE",
"446 555 CURVE SMOOTH",
"446 679 OFFCURVE",
"369 740 OFFCURVE",
"212 740 CURVE SMOOTH",
"177 740 OFFCURVE",
"126 737 OFFCURVE",
"65 728 CURVE",
"65 2 LINE",
"125 -7 OFFCURVE",
"178 -10 OFFCURVE",
"212 -10 CURVE SMOOTH"
);
},
{
closed = 1;
nodes = (
"145 43 LINE",
"145 687 LINE",
"125 655 LINE",
"157 664 OFFCURVE",
"189 668 OFFCURVE",
"221 668 CURVE SMOOTH",
"320 668 OFFCURVE",
"365 630 OFFCURVE",
"365 548 CURVE SMOOTH",
"365 461 OFFCURVE",
"315 420 OFFCURVE",
"210 420 CURVE SMOOTH",
"105 420 LINE",
"105 352 LINE",
"218 352 LINE SMOOTH",
"333 352 OFFCURVE",
"383 310 OFFCURVE",
"383 210 CURVE SMOOTH",
"383 110 OFFCURVE",
"331 62 OFFCURVE",
"221 62 CURVE SMOOTH",
"189 62 OFFCURVE",
"159 66 OFFCURVE",
"125 75 CURVE"
);
}
);
vertWidth = 1000;
width = 500;
},
{
layerId = "FC9CFCDA-9E80-4E73-BA51-8504D15957FA";
paths = (
{
closed = 1;
nodes = (
"395 -10 OFFCURVE",
"480 56 OFFCURVE",
"480 200 CURVE SMOOTH",
"480 308 OFFCURVE",
"431 376 OFFCURVE",
"342 392 CURVE",
"342 396 LINE",
"415 413 OFFCURVE",
"459 477 OFFCURVE",
"459 565 CURVE SMOOTH",
"459 684 OFFCURVE",
"379 740 OFFCURVE",
"208 740 CURVE SMOOTH",
"168 740 OFFCURVE",
"115 737 OFFCURVE",
"50 728 CURVE",
"50 2 LINE",
"114 -7 OFFCURVE",
"168 -10 OFFCURVE",
"208 -10 CURVE SMOOTH"
);
},
{
closed = 1;
nodes = (
"190 84 LINE",
"190 646 LINE",
"167 604 LINE",
"182 614 OFFCURVE",
"202 618 OFFCURVE",
"225 618 CURVE SMOOTH",
"287 618 OFFCURVE",
"317 589 OFFCURVE",
"317 531 CURVE SMOOTH",
"317 470 OFFCURVE",
"283 444 OFFCURVE",
"204 444 CURVE SMOOTH",
"120 444 LINE",
"120 328 LINE",
"219 328 LINE SMOOTH",
"300 328 OFFCURVE",
"336 295 OFFCURVE",
"336 220 CURVE SMOOTH",
"336 146 OFFCURVE",
"301 112 OFFCURVE",
"225 112 CURVE SMOOTH",
"196 112 OFFCURVE",
"180 117 OFFCURVE",
"167 126 CURVE"
);
}
);
vertWidth = 1000;
width = 500;
},
{
layerId = "0F1A0AC1-B8D5-4257-ADED-894CB2B827EF";
paths = (
{
closed = 1;
nodes = (
"467 -10 OFFCURVE",
"565 55 OFFCURVE",
"565 200 CURVE SMOOTH",
"565 307 OFFCURVE",
"511 376 OFFCURVE",
"415 392 CURVE",
"415 396 LINE",
"493 413 OFFCURVE",
"541 479 OFFCURVE",
"541 565 CURVE SMOOTH",
"541 684 OFFCURVE",
"447 740 OFFCURVE",
"247 740 CURVE SMOOTH",
"201 740 OFFCURVE",
"140 737 OFFCURVE",
"65 728 CURVE",
"65 2 LINE",
"139 -7 OFFCURVE",
"202 -10 OFFCURVE",
"249 -10 CURVE SMOOTH"
);
},
{
closed = 1;
nodes = (
"205 84 LINE",
"205 646 LINE",
"181 604 LINE",
"203 614 OFFCURVE",
"233 618 OFFCURVE",
"266 618 CURVE SMOOTH",
"355 618 OFFCURVE",
"399 589 OFFCURVE",
"399 531 CURVE SMOOTH",
"399 473 OFFCURVE",
"344 444 OFFCURVE",
"235 444 CURVE SMOOTH",
"135 444 LINE",
"135 328 LINE",
"255 328 LINE SMOOTH",
"370 328 OFFCURVE",
"421 295 OFFCURVE",
"421 220 CURVE SMOOTH",
"421 146 OFFCURVE",
"371 112 OFFCURVE",
"263 112 CURVE SMOOTH",
"222 112 OFFCURVE",
"199 117 OFFCURVE",
"181 126 CURVE"
);
}
);
vertWidth = 1000;
width = 600;
},
{
layerId = "72F02222-BF87-41FD-9A7E-0ABB550ED2DB";
paths = (
{
closed = 1;
nodes = (
"452 -10 OFFCURVE",
"550 57 OFFCURVE",
"550 200 CURVE SMOOTH",
"550 306 OFFCURVE",
"497 370 OFFCURVE",
"393 389 CURVE",
"393 393 LINE",
"480 414 OFFCURVE",
"528 477 OFFCURVE",
"528 565 CURVE SMOOTH",
"528 684 OFFCURVE",
"440 740 OFFCURVE",
"252.992 740 CURVE SMOOTH",
"209 740 OFFCURVE",
"151 737 OFFCURVE",
"80 728 CURVE",
"80 2 LINE",
"142 -7 OFFCURVE",
"199 -10 OFFCURVE",
"243 -10 CURVE SMOOTH"
);
},
{
closed = 1;
nodes = (
"160 43 LINE",
"160 687 LINE",
"140 655 LINE",
"188 664 OFFCURVE",
"235 668 OFFCURVE",
"273 668 CURVE SMOOTH",
"391 668 OFFCURVE",
"446 630 OFFCURVE",
"446 548 CURVE SMOOTH",
"446 462 OFFCURVE",
"380 420 OFFCURVE",
"246 420 CURVE SMOOTH",
"120 420 LINE",
"120 352 LINE",
"256 352 LINE SMOOTH",
"403 352 OFFCURVE",
"468 309 OFFCURVE",
"468 210 CURVE SMOOTH",
"468 109 OFFCURVE",
"402 62 OFFCURVE",
"261 62 CURVE SMOOTH",
"215 62 OFFCURVE",
"176 67 OFFCURVE",
"140 75 CURVE"
);
}
);
vertWidth = 1000;
width = 600;
},
{
layerId = "D0C1F23C-2F9F-4D30-8C4D-098ED54EEF3D";
paths = (
{
closed = 1;
nodes = (
"440 -10 OFFCURVE",
"535 60 OFFCURVE",
"535 200 CURVE SMOOTH",
"535 305 OFFCURVE",
"483 363 OFFCURVE",
"370 386 CURVE",
"370 390 LINE",
"467 416 OFFCURVE",
"514 473 OFFCURVE",
"514 565 CURVE SMOOTH",
"514 685 OFFCURVE",
"433 740 OFFCURVE",
"257 740 CURVE SMOOTH",
"216 740 OFFCURVE",
"162 737 OFFCURVE",
"95 728 CURVE",
"95 2 LINE",
"150 -6 OFFCURVE",
"204 -10 OFFCURVE",
"250 -10 CURVE SMOOTH"
);
},
{
closed = 1;
nodes = (
"115 2 LINE",
"115 728 LINE",
"98 708 LINE",
"164 717 OFFCURVE",
"217 720 OFFCURVE",
"257 720 CURVE SMOOTH",
"423 720 OFFCURVE",
"494 672 OFFCURVE",
"494 565 CURVE SMOOTH",
"494 452 OFFCURVE",
"415 396 OFFCURVE",
"257 396 CURVE SMOOTH",
"105 396 LINE",
"105 376 LINE",
"257 376 LINE SMOOTH",
"438 376 OFFCURVE",
"515 324 OFFCURVE",
"515 200 CURVE SMOOTH",
"515 72 OFFCURVE",
"429 10 OFFCURVE",
"250 10 CURVE SMOOTH",
"204 10 OFFCURVE",
"150 14 OFFCURVE",
"98 22 CURVE"
);
}
);
width = 600;
}
);
leftKerningGroup = H;
rightKerningGroup = B;
unicode = 0042;
},
{
color = 6;
glyphname = C;
lastChange = "2021-05-05 04:42:54 +0000";
layers = (
{
anchors = (
{
name = bottom;
position = "{270, 0}";
},
{
name = cedi;
position = "{220, 0}";
},
{
name = top;
position = "{270, 730}";
}
);
layerId = "D65C9A1E-0FCA-4B2D-8EDF-9F36CA9182A1";
paths = (
{
closed = 1;
nodes = (
"354 -10 OFFCURVE",
"389 -5 OFFCURVE",
"416 6 CURVE",
"416 28 LINE",
"393 17 OFFCURVE",
"357 10 OFFCURVE",
"318 10 CURVE SMOOTH",
"159 10 OFFCURVE",
"76 121 OFFCURVE",
"76 335 CURVE SMOOTH",
"76 395 LINE SMOOTH",
"76 609 OFFCURVE",
"152 720 OFFCURVE",
"297 720 CURVE SMOOTH",
"341 720 OFFCURVE",
"377 711 OFFCURVE",
"406 693 CURVE",
"396 713 LINE",
"396 480 LINE",
"416 480 LINE",
"416 710 LINE",
"383 730 OFFCURVE",
"342 740 OFFCURVE",
"297 740 CURVE SMOOTH",
"140 740 OFFCURVE",
"56 620 OFFCURVE",
"56 395 CURVE SMOOTH",
"56 335 LINE SMOOTH",
"56 110 OFFCURVE",
"147 -10 OFFCURVE",
"318 -10 CURVE SMOOTH"
);
}
);
width = 500;
},
{
anchors = (
{
name = bottom;
position = "{270, 0}";
},
{
name = cedi;
position = "{220, 0}";
},
{
name = top;
position = "{270, 730}";
}
);
layerId = "E27A6A66-A1F8-4E1B-8224-7C0FE77551F2";
paths = (
{
closed = 1;
nodes = (
"349 -10 OFFCURVE",
"394 -5 OFFCURVE",
"427 5 CURVE",
"427 80 LINE",
"395 69 OFFCURVE",
"354 62 OFFCURVE",
"318 62 CURVE SMOOTH",
"190 62 OFFCURVE",
"129 149 OFFCURVE",
"129 340 CURVE SMOOTH",
"129 390 LINE SMOOTH",
"129 574 OFFCURVE",
"187 668 OFFCURVE",
"298 668 CURVE SMOOTH",
"332 668 OFFCURVE",
"361 659 OFFCURVE",
"387 640 CURVE",
"347 702 LINE",
"347 470 LINE",
"427 470 LINE",
"427 714 LINE",
"392 731 OFFCURVE",
"346 740 OFFCURVE",
"300 740 CURVE SMOOTH",
"133 740 OFFCURVE",
"47 623 OFFCURVE",
"47 395 CURVE SMOOTH",
"47 335 LINE SMOOTH",
"47 107 OFFCURVE",
"136 -10 OFFCURVE",
"310 -10 CURVE SMOOTH"
);
}
);
vertWidth = 1000;
width = 500;
},
{
anchors = (
{
name = bottom;
position = "{270, 0}";
},
{
name = cedi;
position = "{220, 0}";
},
{
name = top;
position = "{270, 730}";
}
);
layerId = "FC9CFCDA-9E80-4E73-BA51-8504D15957FA";
paths = (
{
closed = 1;
nodes = (
"341 -10 OFFCURVE",
"396 -4 OFFCURVE",
"436 4 CURVE",
"436 134 LINE",
"394 123 OFFCURVE",
"349 116 OFFCURVE",
"316 116 CURVE SMOOTH",
"218 116 OFFCURVE",
"180 179 OFFCURVE",
"180 345 CURVE SMOOTH",
"180 385 LINE SMOOTH",
"180 536 OFFCURVE",
"220 614 OFFCURVE",
"296 614 CURVE SMOOTH",
"319 614 OFFCURVE",
"343 604 OFFCURVE",
"366 584 CURVE",
"296 691 LINE",
"296 460 LINE",
"436 460 LINE",
"436 718 LINE",
"398 731 OFFCURVE",
"346 740 OFFCURVE",
"301 740 CURVE SMOOTH",
"123 740 OFFCURVE",
"36 626 OFFCURVE",
"36 395 CURVE SMOOTH",
"36 335 LINE SMOOTH",
"36 104 OFFCURVE",
"123 -10 OFFCURVE",
"300 -10 CURVE SMOOTH"
);
}
);
vertWidth = 1000;
width = 500;
},
{
anchors = (
{
name = bottom;
position = "{320, 0}";
},
{
name = cedi;
position = "{260, 0}";
},
{
name = top;
position = "{320, 730}";
}
);
layerId = "0F1A0AC1-B8D5-4257-ADED-894CB2B827EF";
paths = (
{
closed = 1;
nodes = (
"397 -10 OFFCURVE",
"462 -4 OFFCURVE",
"511 4 CURVE",
"511 134 LINE",
"458 123 OFFCURVE",
"401 116 OFFCURVE",
"361 116 CURVE SMOOTH",
"241 116 OFFCURVE",
"195 180 OFFCURVE",
"195 345 CURVE SMOOTH",
"195 385 LINE SMOOTH",
"195 532 OFFCURVE",
"248 614 OFFCURVE",
"344 614 CURVE SMOOTH",
"376 614 OFFCURVE",
"402 605 OFFCURVE",
"432 584 CURVE",
"381 691 LINE",
"381 460 LINE",
"521 460 LINE",
"521 718 LINE",
"472 732 OFFCURVE",
"414 740 OFFCURVE",
"360 740 CURVE SMOOTH",
"155 740 OFFCURVE",
"51 624 OFFCURVE",
"51 395 CURVE SMOOTH",
"51 335 LINE SMOOTH",
"51 104 OFFCURVE",
"150 -10 OFFCURVE",
"351 -10 CURVE SMOOTH"
);
}
);
vertWidth = 1000;
width = 600;
},
{
anchors = (
{
name = bottom;
position = "{320, 0}";
},
{
name = cedi;
position = "{260, 0}";
},
{
name = top;
position = "{320, 730}";
}
);
layerId = "72F02222-BF87-41FD-9A7E-0ABB550ED2DB";
paths = (
{
closed = 1;
nodes = (
"404 -10 OFFCURVE",
"457 -4 OFFCURVE",
"496 5 CURVE",
"496 80 LINE",
"458 69 OFFCURVE",
"409 62 OFFCURVE",
"367 62 CURVE SMOOTH",
"218 62 OFFCURVE",
"148 151 OFFCURVE",
"148 340 CURVE SMOOTH",
"148 390 LINE SMOOTH",
"148 571 OFFCURVE",
"219 668 OFFCURVE",
"351 668 CURVE SMOOTH",
"391 668 OFFCURVE",
"425 659 OFFCURVE",
"456 639 CURVE",
"426 702 LINE",
"426 470 LINE",
"506 470 LINE",
"506 714 LINE",
"463 731 OFFCURVE",
"411 740 OFFCURVE",
"358 740 CURVE SMOOTH",
"166 740 OFFCURVE",
"66 622 OFFCURVE",
"66 395 CURVE SMOOTH",
"66 335 LINE SMOOTH",
"66 107 OFFCURVE",
"166 -10 OFFCURVE",
"360 -10 CURVE SMOOTH"
);
}
);
vertWidth = 1000;
width = 600;
},
{
anchors = (
{
name = bottom;
position = "{320, 0}";
},
{
name = cedi;
position = "{260, 0}";
},
{
name = top;
position = "{320, 730}";
}
);
layerId = "D0C1F23C-2F9F-4D30-8C4D-098ED54EEF3D";
paths = (
{
closed = 1;
nodes = (
"409 -10 OFFCURVE",
"453 -4 OFFCURVE",
"481 7 CURVE",
"481 28 LINE",
"456 17 OFFCURVE",
"411 10 OFFCURVE",
"367 10 CURVE SMOOTH",
"192 10 OFFCURVE",
"101 121 OFFCURVE",
"101 335 CURVE SMOOTH",
"101 395 LINE SMOOTH",
"101 609 OFFCURVE",
"189 720 OFFCURVE",
"357 720 CURVE SMOOTH",
"406 720 OFFCURVE",
"447 711 OFFCURVE",
"481 692 CURVE",
"471 713 LINE",
"471 480 LINE",
"491 480 LINE",
"491 710 LINE",
"454 730 OFFCURVE",
"409 740 OFFCURVE",
"357 740 CURVE SMOOTH",
"177 740 OFFCURVE",
"81 620 OFFCURVE",
"81 395 CURVE SMOOTH",
"81 335 LINE SMOOTH",
"81 111 OFFCURVE",
"180 -10 OFFCURVE",
"367 -10 CURVE SMOOTH"
);
}
);
width = 600;
}
);
leftKerningGroup = O;
rightKerningGroup = C;
unicode = 0043;
},
{
color = 10;
glyphname = Ccedilla;
lastChange = "2021-11-23 11:08:23 +0000";
layers = (
{
components = (
{
name = C;
}
);
layerId = "D65C9A1E-0FCA-4B2D-8EDF-9F36CA9182A1";
paths = (
{
closed = 1;
nodes = (
"340 -220 OFFCURVE",
"352 -173 OFFCURVE",
"352 -145 CURVE SMOOTH",
"352 -79.509 OFFCURVE",
"297.27 -30.92 OFFCURVE",
"208.029 26.761 CURVE",
"190 20 LINE",
"282 -45 OFFCURVE",
"332 -90 OFFCURVE",
"332 -145 CURVE SMOOTH",
"332 -191 OFFCURVE",
"290 -200 OFFCURVE",
"255 -200 CURVE SMOOTH",
"235 -200 OFFCURVE",
"213 -196 OFFCURVE",
"197 -190 CURVE",
"197 -212 LINE",
"214 -217 OFFCURVE",
"235 -220 OFFCURVE",
"255 -220 CURVE SMOOTH"
);
}
);
width = 500;
},
{
components = (
{
name = C;
}
);
layerId = "E27A6A66-A1F8-4E1B-8224-7C0FE77551F2";
paths = (
{
closed = 1;
nodes = (
"311 -218 OFFCURVE",
"353 -186 OFFCURVE",
"353 -130 CURVE SMOOTH",
"353 -68.594 OFFCURVE",
"314.524 -8.727 OFFCURVE",
"243.646 42.175 CURVE",
"176 22 LINE",
"242 -24 OFFCURVE",
"279 -74 OFFCURVE",
"279 -117 CURVE SMOOTH",
"279 -144 OFFCURVE",
"259 -153 OFFCURVE",
"232 -153 CURVE SMOOTH",
"213 -153 OFFCURVE",
"196 -150 OFFCURVE",
"181 -145 CURVE",
"181 -211 LINE",
"198 -216 OFFCURVE",
"217 -218 OFFCURVE",
"238 -218 CURVE SMOOTH"
);
}
);
width = 500;
},
{
components = (
{
name = C;
}
);
layerId = "FC9CFCDA-9E80-4E73-BA51-8504D15957FA";
paths = (
{
closed = 1;
nodes = (
"317 -218 OFFCURVE",
"375 -176 OFFCURVE",
"375 -102 CURVE SMOOTH",
"375 -45.387 OFFCURVE",
"344.707 4.494 OFFCURVE",
"281.911 56.48 CURVE",
"158 25 LINE",
"216 -12 OFFCURVE",
"249 -48 OFFCURVE",
"249 -81 CURVE SMOOTH",
"249 -103 OFFCURVE",
"234 -115 OFFCURVE",
"206 -115 CURVE SMOOTH",
"191 -115 OFFCURVE",
"176 -114 OFFCURVE",
"162 -113 CURVE",
"162 -216 LINE",
"178 -217 OFFCURVE",
"196 -218 OFFCURVE",
"216 -218 CURVE SMOOTH"
);
}
);
width = 500;
},
{
components = (
{
name = C;
}
);
layerId = "0F1A0AC1-B8D5-4257-ADED-894CB2B827EF";
paths = (
{
closed = 1;
nodes = (
"356 -218 OFFCURVE",
"414 -176 OFFCURVE",
"414 -102 CURVE SMOOTH",
"414 -46.357 OFFCURVE",
"383.869 2.59 OFFCURVE",
"321.415 53.608 CURVE",
"197 22 LINE",
"255 -14 OFFCURVE",
"288 -49 OFFCURVE",
"288 -81 CURVE SMOOTH",
"288 -103 OFFCURVE",
"273 -115 OFFCURVE",
"245 -115 CURVE SMOOTH",
"230 -115 OFFCURVE",
"215 -114 OFFCURVE",
"201 -113 CURVE",
"201 -216 LINE",
"217 -217 OFFCURVE",
"235 -218 OFFCURVE",
"255 -218 CURVE SMOOTH"
);
}
);
width = 600;
},
{
components = (
{
name = C;
}
);
layerId = "72F02222-BF87-41FD-9A7E-0ABB550ED2DB";
paths = (
{
closed = 1;
nodes = (
"351 -218 OFFCURVE",
"393 -186 OFFCURVE",
"393 -130 CURVE SMOOTH",
"393 -69.576 OFFCURVE",
"354.656 -10.685 OFFCURVE",
"284.013 39.284 CURVE",
"216 19 LINE",
"282 -26 OFFCURVE",
"319 -75 OFFCURVE",
"319 -117 CURVE SMOOTH",
"319 -144 OFFCURVE",
"299 -153 OFFCURVE",
"272 -153 CURVE SMOOTH",
"253 -153 OFFCURVE",
"236 -150 OFFCURVE",
"221 -145 CURVE",
"221 -211 LINE",
"238 -216 OFFCURVE",
"257 -218 OFFCURVE",
"278 -218 CURVE SMOOTH"
);
}
);
width = 600;
},
{
components = (
{
name = C;
}
);
layerId = "D0C1F23C-2F9F-4D30-8C4D-098ED54EEF3D";
paths = (
{
closed = 1;
nodes = (
"380 -220 OFFCURVE",
"392 -173 OFFCURVE",
"392 -145 CURVE SMOOTH",
"392 -80.266 OFFCURVE",
"337.033 -31.699 OFFCURVE",
"247.447 26.137 CURVE",
"230 19 LINE",
"322 -45 OFFCURVE",
"372 -91 OFFCURVE",
"372 -145 CURVE SMOOTH",
"372 -191 OFFCURVE",
"330 -200 OFFCURVE",
"295 -200 CURVE SMOOTH",
"275 -200 OFFCURVE",
"253 -196 OFFCURVE",
"237 -190 CURVE",
"237 -212 LINE",
"254 -217 OFFCURVE",
"275 -220 OFFCURVE",
"295 -220 CURVE SMOOTH"
);
}
);
width = 600;
}
);
leftKerningGroup = O;
rightKerningGroup = C;
unicode = 00C7;
},
{
color = 6;
glyphname = D;
lastChange = "2021-05-05 04:42:54 +0000";
layers = (
{
anchors = (
{
name = bottom;
position = "{230, 0}";
},
{
name = center;
position = "{250, 365}";
},
{
name = top;
position = "{230, 730}";
}
);
layerId = "D65C9A1E-0FCA-4B2D-8EDF-9F36CA9182A1";
paths = (
{
closed = 1;
nodes = (
"373 -10 OFFCURVE",
"446 90 OFFCURVE",
"446 335 CURVE SMOOTH",
"446 395 LINE SMOOTH",
"446 640 OFFCURVE",
"373 740 OFFCURVE",
"195 740 CURVE SMOOTH",
"159 740 OFFCURVE",
"121 736 OFFCURVE",
"76 728 CURVE",
"76 2 LINE",
"121 -6 OFFCURVE",
"159 -10 OFFCURVE",
"195 -10 CURVE SMOOTH"
);
},
{
closed = 1;
nodes = (
"96 10 LINE",
"96 720 LINE",
"89 710 LINE",
"129 717 OFFCURVE",
"165 720 OFFCURVE",
"195 720 CURVE SMOOTH",
"361 720 OFFCURVE",
"426 629 OFFCURVE",
"426 395 CURVE SMOOTH",
"426 335 LINE SMOOTH",
"426 101 OFFCURVE",
"361 10 OFFCURVE",
"195 10 CURVE SMOOTH",
"165 10 OFFCURVE",
"129 13 OFFCURVE",
"89 20 CURVE"
);
}
);
width = 500;
},
{
anchors = (
{
name = bottom;
position = "{230, 0}";
},
{
name = center;
position = "{250, 365}";
},
{
name = top;
position = "{230, 730}";
}
);
layerId = "E27A6A66-A1F8-4E1B-8224-7C0FE77551F2";
paths = (
{
closed = 1;
nodes = (
"382 -10 OFFCURVE",
"461 90 OFFCURVE",
"461 335 CURVE SMOOTH",
"461 395 LINE SMOOTH",
"461 640 OFFCURVE",
"382 740 OFFCURVE",
"190 740 CURVE SMOOTH",
"151 740 OFFCURVE",
"110 736 OFFCURVE",
"61 728 CURVE",
"61 2 LINE",
"110 -6 OFFCURVE",
"151 -10 OFFCURVE",
"190 -10 CURVE SMOOTH"
);
},
{
closed = 1;
nodes = (
"141 47 LINE",
"141 683 LINE",
"126 656 LINE",
"149 664 OFFCURVE",
"174 668 OFFCURVE",
"202 668 CURVE SMOOTH",
"328 668 OFFCURVE",
"380 587 OFFCURVE",
"380 390 CURVE SMOOTH",
"380 340 LINE SMOOTH",
"380 143 OFFCURVE",
"328 62 OFFCURVE",
"202 62 CURVE SMOOTH",
"174 62 OFFCURVE",
"149 66 OFFCURVE",
"126 74 CURVE"
);
}
);
vertWidth = 1000;
width = 500;
},
{
anchors = (
{
name = bottom;
position = "{230, 0}";
},
{
name = center;
position = "{250, 365}";
},
{
name = top;
position = "{230, 730}";
}
);
layerId = "FC9CFCDA-9E80-4E73-BA51-8504D15957FA";
paths = (
{
closed = 1;
nodes = (
"391 -10 OFFCURVE",
"476 90 OFFCURVE",
"476 335 CURVE SMOOTH",
"476 395 LINE SMOOTH",
"476 640 OFFCURVE",
"391 740 OFFCURVE",
"184 740 CURVE SMOOTH",
"143 740 OFFCURVE",
"98 736 OFFCURVE",
"46 728 CURVE",
"46 2 LINE",
"98 -6 OFFCURVE",
"143 -10 OFFCURVE",
"184 -10 CURVE SMOOTH"
);
},
{
closed = 1;
nodes = (
"186 84 LINE",
"186 646 LINE",
"163 600 LINE",
"175 610 OFFCURVE",
"190 614 OFFCURVE",
"210 614 CURVE SMOOTH",
"295 614 OFFCURVE",
"334 542 OFFCURVE",
"334 385 CURVE SMOOTH",
"334 345 LINE SMOOTH",
"334 188 OFFCURVE",
"295 116 OFFCURVE",
"210 116 CURVE SMOOTH",
"190 116 OFFCURVE",
"175 120 OFFCURVE",
"163 130 CURVE"
);
}
);
vertWidth = 1000;
width = 500;
},
{
anchors = (
{
name = bottom;
position = "{280, 0}";
},
{
name = center;
position = "{300, 365}";
},
{
name = top;
position = "{280, 730}";
}
);
layerId = "0F1A0AC1-B8D5-4257-ADED-894CB2B827EF";
paths = (
{
closed = 1;
nodes = (
"462 -10 OFFCURVE",
"561 91 OFFCURVE",
"561 335 CURVE SMOOTH",
"561 395 LINE SMOOTH",
"561 639 OFFCURVE",
"462 740 OFFCURVE",
"223 740 CURVE SMOOTH",
"175 740 OFFCURVE",
"123 736 OFFCURVE",
"61 728 CURVE",
"61 2 LINE",
"123 -6 OFFCURVE",
"175 -10 OFFCURVE",
"223 -10 CURVE SMOOTH"
);
},
{
closed = 1;
nodes = (
"201 84 LINE",
"201 646 LINE",
"179 600 LINE",
"195 610 OFFCURVE",
"215 614 OFFCURVE",
"244 614 CURVE SMOOTH",
"365 614 OFFCURVE",
"419 543 OFFCURVE",
"419 385 CURVE SMOOTH",
"419 345 LINE SMOOTH",
"419 187 OFFCURVE",
"365 116 OFFCURVE",
"244 116 CURVE SMOOTH",
"215 116 OFFCURVE",
"195 120 OFFCURVE",
"179 130 CURVE"
);
}
);
vertWidth = 1000;
width = 600;
},
{
anchors = (
{
name = bottom;
position = "{280, 0}";
},
{
name = center;
position = "{300, 365}";
},
{
name = top;
position = "{280, 730}";
}
);
layerId = "72F02222-BF87-41FD-9A7E-0ABB550ED2DB";
paths = (
{
closed = 1;
nodes = (
"454 -10 OFFCURVE",
"546 91 OFFCURVE",
"546 335 CURVE SMOOTH",
"546 395 LINE SMOOTH",
"546 639 OFFCURVE",
"454 740 OFFCURVE",
"228 740 CURVE SMOOTH",
"183 740 OFFCURVE",
"134 736 OFFCURVE",
"76 728 CURVE",
"76 2 LINE",
"134 -6 OFFCURVE",
"183 -10 OFFCURVE",
"228 -10 CURVE SMOOTH"
);
},
{
closed = 1;
nodes = (
"156 47 LINE",
"156 683 LINE",
"137 655 LINE",
"173 664 OFFCURVE",
"205 668 OFFCURVE",
"240 668 CURVE SMOOTH",
"399 668 OFFCURVE",
"465 587 OFFCURVE",
"465 390 CURVE SMOOTH",
"465 340 LINE SMOOTH",
"465 143 OFFCURVE",
"399 62 OFFCURVE",
"240 62 CURVE SMOOTH",
"205 62 OFFCURVE",
"173 66 OFFCURVE",
"137 75 CURVE"
);
}
);
vertWidth = 1000;
width = 600;
},
{
anchors = (
{
name = bottom;
position = "{280, 0}";
},
{
name = center;
position = "{300, 365}";
},
{
name = top;
position = "{280, 730}";
}
);
layerId = "D0C1F23C-2F9F-4D30-8C4D-098ED54EEF3D";
paths = (
{
closed = 1;
nodes = (
"445 -10 OFFCURVE",
"531 90 OFFCURVE",
"531 335 CURVE SMOOTH",
"531 395 LINE SMOOTH",
"531 640 OFFCURVE",
"445 740 OFFCURVE",
"234 740 CURVE SMOOTH",
"192 740 OFFCURVE",
"146 736 OFFCURVE",
"91 728 CURVE",
"91 2 LINE",
"146 -6 OFFCURVE",
"192 -10 OFFCURVE",
"234 -10 CURVE SMOOTH"
);
},
{
closed = 1;
nodes = (
"111 10 LINE",
"111 720 LINE",
"94 708 LINE",
"150 716 OFFCURVE",
"194 720 OFFCURVE",
"236 720 CURVE SMOOTH",
"434 720 OFFCURVE",
"511 629 OFFCURVE",
"511 395 CURVE SMOOTH",
"511 335 LINE SMOOTH",
"511 101 OFFCURVE",
"434 10 OFFCURVE",
"236 10 CURVE SMOOTH",
"194 10 OFFCURVE",
"150 14 OFFCURVE",
"94 22 CURVE"
);
}
);
width = 600;
}
);
leftKerningGroup = H;
rightKerningGroup = O;
unicode = 0044;
},
{
color = 10;
glyphname = DZcaron;
lastChange = "2021-05-05 04:42:54 +0000";
layers = (
{
layerId = "D65C9A1E-0FCA-4B2D-8EDF-9F36CA9182A1";
paths = (
{
closed = 1;
nodes = (
"222 -10 OFFCURVE",
"268 91 OFFCURVE",
"268 335 CURVE SMOOTH",
"268 395 LINE SMOOTH",
"268 639 OFFCURVE",
"222 740 OFFCURVE",
"112 740 CURVE SMOOTH",
"90 740 OFFCURVE",
"66 736 OFFCURVE",
"38 728 CURVE",
"38 2 LINE",
"66 -6 OFFCURVE",
"90 -10 OFFCURVE",
"112 -10 CURVE SMOOTH"
);
},
{
closed = 1;
nodes = (
"58 8 LINE",
"58 722 LINE",
"51 711 LINE",
"75 718 OFFCURVE",
"94 720 OFFCURVE",
"112 720 CURVE SMOOTH",
"207 720 OFFCURVE",
"248 629 OFFCURVE",
"248 395 CURVE SMOOTH",
"248 335 LINE SMOOTH",
"248 101 OFFCURVE",
"207 10 OFFCURVE",
"112 10 CURVE SMOOTH",
"94 10 OFFCURVE",
"75 12 OFFCURVE",
"51 19 CURVE"
);
},
{
closed = 1;
nodes = (
"488 0 LINE",
"488 20 LINE",
"280 20 LINE",
"280 24 LINE",
"488 710 LINE",
"488 730 LINE",
"258 730 LINE",
"258 710 LINE",
"466 710 LINE",
"466 706 LINE",
"258 20 LINE",
"258 0 LINE"
);
},
{
closed = 1;
nodes = (
"386 780 LINE",
"500 1000 LINE",
"477 1000 LINE",
"376 803 LINE",
"372 803 LINE",
"271 1000 LINE",
"248 1000 LINE",
"362 780 LINE"
);
}
);
width = 500;
},
{
layerId = "E27A6A66-A1F8-4E1B-8224-7C0FE77551F2";
paths = (
{
closed = 1;
nodes = (
"223 -10 OFFCURVE",
"270 90 OFFCURVE",
"270 335 CURVE SMOOTH",
"270 395 LINE SMOOTH",
"270 640 OFFCURVE",
"223 740 OFFCURVE",
"107 740 CURVE SMOOTH",
"84 740 OFFCURVE",
"59 736 OFFCURVE",
"30 728 CURVE",
"30 2 LINE",
"59 -6 OFFCURVE",
"84 -10 OFFCURVE",
"107 -10 CURVE SMOOTH"
);
},
{
closed = 1;
nodes = (
"108 47 LINE",
"108 683 LINE",
"82 656 LINE",
"93 664 OFFCURVE",
"102 668 OFFCURVE",
"116 668 CURVE SMOOTH",
"170 668 OFFCURVE",
"192 587 OFFCURVE",
"192 390 CURVE SMOOTH",
"192 340 LINE SMOOTH",
"192 143 OFFCURVE",
"170 62 OFFCURVE",
"116 62 CURVE SMOOTH",
"102 62 OFFCURVE",
"93 66 OFFCURVE",
"82 74 CURVE"
);
},
{
closed = 1;
nodes = (
"490 0 LINE",
"490 70 LINE",
"346 70 LINE",
"346 74 LINE",
"490 660 LINE",
"490 730 LINE",
"265 730 LINE",
"265 660 LINE",
"409 660 LINE",
"409 656 LINE",
"265 70 LINE",
"265 0 LINE"
);
},
{
closed = 1;
nodes = (
"405 780 LINE",
"500 1000 LINE",
"416 1000 LINE",
"362 846 LINE",
"358 846 LINE",
"304 1000 LINE",
"220 1000 LINE",
"315 780 LINE"
);
}
);
vertWidth = 1000;
width = 500;
},
{
layerId = "FC9CFCDA-9E80-4E73-BA51-8504D15957FA";
paths = (
{
closed = 1;
nodes = (
"223 -10 OFFCURVE",
"272 90 OFFCURVE",
"272 335 CURVE SMOOTH",
"272 395 LINE SMOOTH",
"272 640 OFFCURVE",
"223 740 OFFCURVE",
"103 740 CURVE SMOOTH",
"79 740 OFFCURVE",
"52 736 OFFCURVE",
"22 728 CURVE",
"22 2 LINE",
"52 -6 OFFCURVE",
"79 -10 OFFCURVE",
"103 -10 CURVE SMOOTH"
);
},
{
closed = 1;
nodes = (
"122 84 LINE",
"122 646 LINE",
"115 600 LINE",
"118 610 OFFCURVE",
"123 614 OFFCURVE",
"130 614 CURVE SMOOTH",
"159 614 OFFCURVE",
"172 545 OFFCURVE",
"172 385 CURVE SMOOTH",
"172 345 LINE SMOOTH",
"172 185 OFFCURVE",
"159 116 OFFCURVE",
"130 116 CURVE SMOOTH",
"123 116 OFFCURVE",
"118 120 OFFCURVE",
"115 130 CURVE"
);
},
{
closed = 1;
nodes = (
"492 0 LINE",
"492 120 LINE",
"382 120 LINE",
"382 124 LINE",
"492 610 LINE",
"492 730 LINE",
"272 730 LINE",
"272 610 LINE",
"382 610 LINE",
"382 606 LINE",
"272 120 LINE",
"272 0 LINE"
);
},
{
closed = 1;
nodes = (
"420 780 LINE",
"500 1000 LINE",
"386 1000 LINE",
"348 860 LINE",
"344 860 LINE",
"306 1000 LINE",
"192 1000 LINE",
"272 780 LINE"
);
}
);
vertWidth = 1000;
width = 500;
},
{
layerId = "0F1A0AC1-B8D5-4257-ADED-894CB2B827EF";
paths = (
{
closed = 1;
nodes = (
"268 -10 OFFCURVE",
"325 90 OFFCURVE",
"325 335 CURVE SMOOTH",
"325 395 LINE SMOOTH",
"325 640 OFFCURVE",
"268 740 OFFCURVE",
"127 740 CURVE SMOOTH",
"99 740 OFFCURVE",
"67 736 OFFCURVE",
"32 728 CURVE",
"32 2 LINE",
"67 -6 OFFCURVE",
"99 -10 OFFCURVE",
"127 -10 CURVE SMOOTH"
);
},
{
closed = 1;
nodes = (
"150 84 LINE",
"150 646 LINE",
"140 600 LINE",
"143 609 OFFCURVE",
"149 614 OFFCURVE",
"158 614 CURVE SMOOTH",
"192 614 OFFCURVE",
"207 544 OFFCURVE",
"207 385 CURVE SMOOTH",
"207 345 LINE SMOOTH",
"207 186 OFFCURVE",
"192 116 OFFCURVE",
"158 116 CURVE SMOOTH",
"149 116 OFFCURVE",
"143 121 OFFCURVE",
"140 130 CURVE"
);
},
{
closed = 1;
nodes = (
"582 0 LINE",
"582 120 LINE",
"453 120 LINE",
"453 124 LINE",
"582 610 LINE",
"582 730 LINE",
"325 730 LINE",
"325 610 LINE",
"453 610 LINE",
"453 606 LINE",
"325 120 LINE",
"325 0 LINE"
);
},
{
closed = 1;
nodes = (
"498 780 LINE",
"592 1000 LINE",
"458 1000 LINE",
"413 860 LINE",
"409 860 LINE",
"364 1000 LINE",
"230 1000 LINE",
"324 780 LINE"
);
}
);
vertWidth = 1000;
width = 600;
},
{
layerId = "72F02222-BF87-41FD-9A7E-0ABB550ED2DB";
paths = (
{
closed = 1;
nodes = (
"269 -10 OFFCURVE",
"324 91 OFFCURVE",
"324 335 CURVE SMOOTH",
"324 395 LINE SMOOTH",
"324 639 OFFCURVE",
"269 740 OFFCURVE",
"138 740 CURVE SMOOTH",
"112 740 OFFCURVE",
"82 736 OFFCURVE",
"47 728 CURVE",
"47 2 LINE",
"82 -6 OFFCURVE",
"112 -10 OFFCURVE",
"138 -10 CURVE SMOOTH"
);
},
{
closed = 1;
nodes = (
"125 46 LINE",
"125 684 LINE",
"96 654 LINE",
"115 663 OFFCURVE",
"130 667 OFFCURVE",
"145 667 CURVE SMOOTH",
"216 667 OFFCURVE",
"246 585 OFFCURVE",
"246 390 CURVE SMOOTH",
"246 340 LINE SMOOTH",
"246 145 OFFCURVE",
"216 63 OFFCURVE",
"145 63 CURVE SMOOTH",
"130 63 OFFCURVE",
"115 67 OFFCURVE",
"96 76 CURVE"
);
},
{
closed = 1;
nodes = (
"575 0 LINE",
"575 70 LINE",
"399 70 LINE",
"399 74 LINE",
"575 660 LINE",
"575 730 LINE",
"317 730 LINE",
"317 660 LINE",
"493 660 LINE",
"493 656 LINE",
"317 70 LINE",
"317 0 LINE"
);
},
{
closed = 1;
nodes = (
"475 780 LINE",
"587 1000 LINE",
"508 1000 LINE",
"427 830 LINE",
"423 830 LINE",
"342 1000 LINE",
"263 1000 LINE",
"375 780 LINE"
);
}
);
vertWidth = 1000;
width = 600;
},
{
layerId = "D0C1F23C-2F9F-4D30-8C4D-098ED54EEF3D";
paths = (
{
closed = 1;
nodes = (
"269 -10 OFFCURVE",
"321 92 OFFCURVE",
"321 335 CURVE SMOOTH",
"321 395 LINE SMOOTH",
"321 638 OFFCURVE",
"269 740 OFFCURVE",
"147 740 CURVE SMOOTH",
"123 740 OFFCURVE",
"96 736 OFFCURVE",
"62 728 CURVE",
"62 2 LINE",
"96 -6 OFFCURVE",
"123 -10 OFFCURVE",
"147 -10 CURVE SMOOTH"
);
},
{
closed = 1;
nodes = (
"82 8 LINE",
"82 722 LINE",
"67 709 LINE",
"101 717 OFFCURVE",
"126 720 OFFCURVE",
"147 720 CURVE SMOOTH",
"255 720 OFFCURVE",
"301 627 OFFCURVE",
"301 395 CURVE SMOOTH",
"301 335 LINE SMOOTH",
"301 103 OFFCURVE",
"255 10 OFFCURVE",
"147 10 CURVE SMOOTH",
"126 10 OFFCURVE",
"101 13 OFFCURVE",
"67 21 CURVE"
);
},
{
closed = 1;
nodes = (
"568 0 LINE",
"568 20 LINE",
"332 20 LINE",
"332 24 LINE",
"568 710 LINE",
"568 730 LINE",
"310 730 LINE",
"310 710 LINE",
"546 710 LINE",
"546 706 LINE",
"310 20 LINE",
"310 0 LINE"
);
},
{
closed = 1;
nodes = (
"453 780 LINE",
"582 1000 LINE",
"559 1000 LINE",
"442 800 LINE",
"438 800 LINE",
"321 1000 LINE",
"298 1000 LINE",
"427 780 LINE"
);
}
);
width = 600;
}
);
leftKerningGroup = H;
rightKerningGroup = Z;
unicode = 01C4;
},
{
color = 10;
glyphname = Eth;
lastChange = "2021-05-05 04:42:54 +0000";
layers = (
{
components = (
{
name = D;
transform = "{1, 0, 0, 1, 4, 0}";
}
);
layerId = "D65C9A1E-0FCA-4B2D-8EDF-9F36CA9182A1";
paths = (
{
closed = 1;
nodes = (
"304 376 LINE",
"304 396 LINE",
"4 396 LINE",
"4 376 LINE"
);
}
);
width = 500;
},
{
components = (
{
alignment = -1;
name = D;
transform = "{1, 0, 0, 1, 4, 0}";
}
);
layerId = "E27A6A66-A1F8-4E1B-8224-7C0FE77551F2";
paths = (
{
closed = 1;
nodes = (
"292 351 LINE",
"292 421 LINE",
"2 421 LINE",
"2 351 LINE"
);
}
);
vertWidth = 1000;
width = 500;
},
{
components = (
{
name = D;
transform = "{1, 0, 0, 1, 4, 0}";
}
);
layerId = "FC9CFCDA-9E80-4E73-BA51-8504D15957FA";
paths = (
{
closed = 1;
nodes = (
"280 328 LINE",
"280 444 LINE",
"0 444 LINE",
"0 328 LINE"
);
}
);
vertWidth = 1000;
width = 500;
},
{
components = (
{
name = D;
transform = "{1, 0, 0, 1, 10, 0}";
}
);
layerId = "0F1A0AC1-B8D5-4257-ADED-894CB2B827EF";
paths = (
{
closed = 1;
nodes = (
"344 328 LINE",
"344 444 LINE",
"4 444 LINE",
"4 328 LINE"
);
}
);
vertWidth = 1000;
width = 600;
},
{
components = (
{
alignment = -1;
name = D;
transform = "{1, 0, 0, 1, 10, 0}";
}
);
layerId = "72F02222-BF87-41FD-9A7E-0ABB550ED2DB";
paths = (
{
closed = 1;
nodes = (
"357 352 LINE",
"357 420 LINE",
"7 420 LINE",
"7 352 LINE"
);
}
);
vertWidth = 1000;
width = 600;
},
{
components = (
{
name = D;
transform = "{1, 0, 0, 1, 10, 0}";
}
);
layerId = "D0C1F23C-2F9F-4D30-8C4D-098ED54EEF3D";
paths = (
{
closed = 1;
nodes = (
"370 376 LINE",
"370 396 LINE",
"10 396 LINE",
"10 376 LINE"
);
}
);
width = 600;
}
);
leftKerningGroup = f;
rightKerningGroup = O;
unicode = 00D0;
},
{
color = 10;
glyphname = Dzcaron;
lastChange = "2021-05-05 04:42:54 +0000";
layers = (
{
layerId = "D65C9A1E-0FCA-4B2D-8EDF-9F36CA9182A1";
paths = (
{
closed = 1;
nodes = (
"222 -10 OFFCURVE",
"268 91 OFFCURVE",
"268 335 CURVE SMOOTH",
"268 395 LINE SMOOTH",
"268 639 OFFCURVE",
"222 740 OFFCURVE",
"112 740 CURVE SMOOTH",
"90 740 OFFCURVE",
"66 736 OFFCURVE",
"38 728 CURVE",
"38 2 LINE",
"66 -6 OFFCURVE",
"90 -10 OFFCURVE",
"112 -10 CURVE SMOOTH"
);
},
{
closed = 1;
nodes = (
"58 8 LINE",
"58 722 LINE",
"51 711 LINE",
"75 718 OFFCURVE",
"94 720 OFFCURVE",
"112 720 CURVE SMOOTH",
"207 720 OFFCURVE",
"248 629 OFFCURVE",
"248 395 CURVE SMOOTH",
"248 335 LINE SMOOTH",
"248 101 OFFCURVE",
"207 10 OFFCURVE",
"112 10 CURVE SMOOTH",
"94 10 OFFCURVE",
"75 12 OFFCURVE",
"51 19 CURVE"
);
},
{
closed = 1;
nodes = (
"488 0 LINE",
"488 20 LINE",
"311 20 LINE",
"311 24 LINE",
"488 500 LINE",
"488 520 LINE",
"288 520 LINE",
"288 500 LINE",
"465 500 LINE",
"465 496 LINE",
"288 20 LINE",
"288 0 LINE"
);
},
{
closed = 1;
nodes = (
"386 570 LINE",
"500 790 LINE",
"477 790 LINE",
"376 593 LINE",
"372 593 LINE",
"271 790 LINE",
"248 790 LINE",
"362 570 LINE"
);
}
);
width = 500;
},
{
layerId = "E27A6A66-A1F8-4E1B-8224-7C0FE77551F2";
paths = (
{
closed = 1;
nodes = (
"223 -10 OFFCURVE",
"270 90 OFFCURVE",
"270 335 CURVE SMOOTH",
"270 395 LINE SMOOTH",
"270 640 OFFCURVE",
"223 740 OFFCURVE",
"107 740 CURVE SMOOTH",
"84 740 OFFCURVE",
"59 736 OFFCURVE",
"30 728 CURVE",
"30 2 LINE",
"59 -6 OFFCURVE",
"84 -10 OFFCURVE",
"107 -10 CURVE SMOOTH"
);
},
{
closed = 1;
nodes = (
"108 47 LINE",
"108 683 LINE",
"82 656 LINE",
"93 664 OFFCURVE",
"102 668 OFFCURVE",
"116 668 CURVE SMOOTH",
"170 668 OFFCURVE",
"192 587 OFFCURVE",
"192 390 CURVE SMOOTH",
"192 340 LINE SMOOTH",
"192 143 OFFCURVE",
"170 62 OFFCURVE",
"116 62 CURVE SMOOTH",
"102 62 OFFCURVE",
"93 66 OFFCURVE",
"82 74 CURVE"
);
},
{
closed = 1;
nodes = (
"490 0 LINE",
"490 70 LINE",
"372 70 LINE",
"372 74 LINE",
"490 450 LINE",
"490 520 LINE",
"290 520 LINE",
"290 450 LINE",
"408 450 LINE",
"408 446 LINE",
"290 70 LINE",
"290 0 LINE"
);
},
{
closed = 1;
nodes = (
"412 570 LINE",
"500 790 LINE",
"416 790 LINE",
"369 636 LINE",
"365 636 LINE",
"318 790 LINE",
"234 790 LINE",
"322 570 LINE"
);
}
);
vertWidth = 1000;
width = 500;
},
{
layerId = "FC9CFCDA-9E80-4E73-BA51-8504D15957FA";
paths = (
{
closed = 1;
nodes = (
"223 -10 OFFCURVE",
"272 90 OFFCURVE",
"272 335 CURVE SMOOTH",
"272 395 LINE SMOOTH",
"272 640 OFFCURVE",
"223 740 OFFCURVE",
"103 740 CURVE SMOOTH",
"79 740 OFFCURVE",
"52 736 OFFCURVE",
"22 728 CURVE",
"22 2 LINE",
"52 -6 OFFCURVE",
"79 -10 OFFCURVE",
"103 -10 CURVE SMOOTH"
);
},
{
closed = 1;
nodes = (
"122 84 LINE",
"122 646 LINE",
"115 600 LINE",
"118 610 OFFCURVE",
"123 614 OFFCURVE",
"130 614 CURVE SMOOTH",
"159 614 OFFCURVE",
"172 545 OFFCURVE",
"172 385 CURVE SMOOTH",
"172 345 LINE SMOOTH",
"172 185 OFFCURVE",
"159 116 OFFCURVE",
"130 116 CURVE SMOOTH",
"123 116 OFFCURVE",
"118 120 OFFCURVE",
"115 130 CURVE"
);
},
{
closed = 1;
nodes = (
"492 0 LINE",
"492 118 LINE",
"402 118 LINE",
"402 122 LINE",
"492 402 LINE",
"492 520 LINE",
"292 520 LINE",
"292 402 LINE",
"382 402 LINE",
"382 398 LINE",
"292 118 LINE",
"292 0 LINE"
);
},
{
closed = 1;
nodes = (
"427 570 LINE",
"500 790 LINE",
"392 790 LINE",
"362 652 LINE",
"358 652 LINE",
"328 790 LINE",
"220 790 LINE",
"293 570 LINE"
);
}
);
vertWidth = 1000;
width = 500;
},
{
layerId = "0F1A0AC1-B8D5-4257-ADED-894CB2B827EF";
paths = (
{
closed = 1;
nodes = (
"268 -10 OFFCURVE",
"325 90 OFFCURVE",
"325 335 CURVE SMOOTH",
"325 395 LINE SMOOTH",
"325 640 OFFCURVE",
"268 740 OFFCURVE",
"127 740 CURVE SMOOTH",
"99 740 OFFCURVE",
"67 736 OFFCURVE",
"32 728 CURVE",
"32 2 LINE",
"67 -6 OFFCURVE",
"99 -10 OFFCURVE",
"127 -10 CURVE SMOOTH"
);
},
{
closed = 1;
nodes = (
"150 84 LINE",
"150 646 LINE",
"140 600 LINE",
"143 609 OFFCURVE",
"149 614 OFFCURVE",
"158 614 CURVE SMOOTH",
"192 614 OFFCURVE",
"207 544 OFFCURVE",
"207 385 CURVE SMOOTH",
"207 345 LINE SMOOTH",
"207 186 OFFCURVE",
"192 116 OFFCURVE",
"158 116 CURVE SMOOTH",
"149 116 OFFCURVE",
"143 121 OFFCURVE",
"140 130 CURVE"
);
},
{
closed = 1;
nodes = (
"583 0 LINE",
"583 118 LINE",
"479 118 LINE",
"479 122 LINE",
"583 402 LINE",
"583 520 LINE",
"348 520 LINE",
"348 402 LINE",
"452 402 LINE",
"452 398 LINE",
"348 118 LINE",
"348 0 LINE"
);
},
{
closed = 1;
nodes = (
"507 570 LINE",
"592 790 LINE",
"465 790 LINE",
"430 652 LINE",
"426 652 LINE",
"391 790 LINE",
"264 790 LINE",
"349 570 LINE"
);
}
);
vertWidth = 1000;
width = 600;
},
{
layerId = "72F02222-BF87-41FD-9A7E-0ABB550ED2DB";
paths = (
{
closed = 1;
nodes = (
"269 -10 OFFCURVE",
"324 91 OFFCURVE",
"324 335 CURVE SMOOTH",
"324 395 LINE SMOOTH",
"324 639 OFFCURVE",
"269 740 OFFCURVE",
"138 740 CURVE SMOOTH",
"112 740 OFFCURVE",
"82 736 OFFCURVE",
"47 728 CURVE",
"47 2 LINE",
"82 -6 OFFCURVE",
"112 -10 OFFCURVE",
"138 -10 CURVE SMOOTH"
);
},
{
closed = 1;
nodes = (
"125 46 LINE",
"125 684 LINE",
"96 654 LINE",
"115 663 OFFCURVE",
"130 667 OFFCURVE",
"145 667 CURVE SMOOTH",
"216 667 OFFCURVE",
"246 585 OFFCURVE",
"246 390 CURVE SMOOTH",
"246 340 LINE SMOOTH",
"246 145 OFFCURVE",
"216 63 OFFCURVE",
"145 63 CURVE SMOOTH",
"130 63 OFFCURVE",
"115 67 OFFCURVE",
"96 76 CURVE"
);
},
{
closed = 1;
nodes = (
"576 0 LINE",
"576 70 LINE",
"429 70 LINE",
"429 74 LINE",
"576 450 LINE",
"576 520 LINE",
"346 520 LINE",
"346 450 LINE",
"493 450 LINE",
"493 446 LINE",
"346 70 LINE",
"346 0 LINE"
);
},
{
closed = 1;
nodes = (
"480 570 LINE",
"587 790 LINE",
"512 790 LINE",
"436 621 LINE",
"432 621 LINE",
"356 790 LINE",
"281 790 LINE",
"388 570 LINE"
);
}
);
vertWidth = 1000;
width = 600;
},
{
layerId = "D0C1F23C-2F9F-4D30-8C4D-098ED54EEF3D";
paths = (
{
closed = 1;
nodes = (
"269 -10 OFFCURVE",
"321 92 OFFCURVE",
"321 335 CURVE SMOOTH",
"321 395 LINE SMOOTH",
"321 638 OFFCURVE",
"269 740 OFFCURVE",
"147 740 CURVE SMOOTH",
"123 740 OFFCURVE",
"96 736 OFFCURVE",
"62 728 CURVE",
"62 2 LINE",
"96 -6 OFFCURVE",
"123 -10 OFFCURVE",
"147 -10 CURVE SMOOTH"
);
},
{
closed = 1;
nodes = (
"82 8 LINE",
"82 722 LINE",
"67 709 LINE",
"101 717 OFFCURVE",
"126 720 OFFCURVE",
"147 720 CURVE SMOOTH",
"255 720 OFFCURVE",
"301 627 OFFCURVE",
"301 395 CURVE SMOOTH",
"301 335 LINE SMOOTH",
"301 103 OFFCURVE",
"255 10 OFFCURVE",
"147 10 CURVE SMOOTH",
"126 10 OFFCURVE",
"101 13 OFFCURVE",
"67 21 CURVE"
);
},
{
closed = 1;
nodes = (
"568 0 LINE",
"568 20 LINE",
"366 20 LINE",
"366 24 LINE",
"568 500 LINE",
"568 520 LINE",
"343 520 LINE",
"343 500 LINE",
"545 500 LINE",
"545 496 LINE",
"343 20 LINE",
"343 0 LINE"
);
},
{
closed = 1;
nodes = (
"453 570 LINE",
"582 790 LINE",
"559 790 LINE",
"442 590 LINE",
"438 590 LINE",
"321 790 LINE",
"298 790 LINE",
"427 570 LINE"
);
}
);
width = 600;
}
);
leftKerningGroup = H;
rightKerningGroup = z;
unicode = 01C5;
},
{
color = 6;
glyphname = E;
lastChange = "2021-05-05 04:42:54 +0000";
layers = (
{
anchors = (
{
name = bottom;
position = "{250, 0}";
},
{
name = ogonek;
position = "{394, 0}";
},
{
name = top;
position = "{250, 730}";
},
{
name = topleft;
position = "{20, 730}";
}
);
layerId = "D65C9A1E-0FCA-4B2D-8EDF-9F36CA9182A1";
paths = (
{
closed = 1;
nodes = (
"424 0 LINE",
"424 20 LINE",
"114 20 LINE",
"114 376 LINE",
"414 376 LINE",
"414 396 LINE",
"114 396 LINE",
"114 710 LINE",
"424 710 LINE",
"424 730 LINE",
"94 730 LINE",
"94 0 LINE"
);
}
);
width = 500;
},
{
anchors = (
{
name = bottom;
position = "{250, 0}";
},
{
name = ogonek;
position = "{387, 0}";
},
{
name = top;
position = "{250, 730}";
},
{
name = topleft;
position = "{20, 730}";
}
);
layerId = "E27A6A66-A1F8-4E1B-8224-7C0FE77551F2";
paths = (
{
closed = 1;
nodes = (
"431 0 LINE",
"431 70 LINE",
"162 70 LINE",
"162 351 LINE",
"421 351 LINE",
"421 421 LINE",
"162 421 LINE",
"162 660 LINE",
"431 660 LINE",
"431 730 LINE",
"81 730 LINE",
"81 0 LINE"
);
}
);
vertWidth = 1000;
width = 500;
},
{
anchors = (
{
name = bottom;
position = "{250, 0}";
},
{
name = ogonek;
position = "{375, 0}";
},
{
name = top;
position = "{250, 730}";
},
{
name = topleft;
position = "{20, 730}";
}
);
layerId = "FC9CFCDA-9E80-4E73-BA51-8504D15957FA";
paths = (
{
closed = 1;
nodes = (
"438 0 LINE",
"438 118 LINE",
"210 118 LINE",
"210 328 LINE",
"428 328 LINE",
"428 444 LINE",
"210 444 LINE",
"210 612 LINE",
"438 612 LINE",
"438 730 LINE",
"68 730 LINE",
"68 0 LINE"
);
}
);
vertWidth = 1000;
width = 500;
},
{
anchors = (
{
name = bottom;
position = "{300, 0}";
},
{
name = ogonek;
position = "{454, 0}";
},
{
name = top;
position = "{300, 730}";
},
{
name = topleft;
position = "{39, 730}";
}
);
layerId = "0F1A0AC1-B8D5-4257-ADED-894CB2B827EF";
paths = (
{
closed = 1;
nodes = (
"517 0 LINE",
"517 118 LINE",
"229 118 LINE",
"229 328 LINE",
"507 328 LINE",
"507 444 LINE",
"229 444 LINE",
"229 612 LINE",
"517 612 LINE",
"517 730 LINE",
"87 730 LINE",
"87 0 LINE"
);
}
);
vertWidth = 1000;
width = 600;
},
{
anchors = (
{
name = bottom;
position = "{296, 0}";
},
{
name = ogonek;
position = "{463, 0}";
},
{
name = top;
position = "{296, 730}";
},
{
name = topleft;
position = "{36, 730}";
}
);
layerId = "72F02222-BF87-41FD-9A7E-0ABB550ED2DB";
paths = (
{
closed = 1;
nodes = (
"507 0 LINE",
"507 70 LINE",
"178 70 LINE",
"178 351 LINE",
"497 351 LINE",
"497 421 LINE",
"178 421 LINE",
"178 660 LINE",
"507 660 LINE",
"507 730 LINE",
"97 730 LINE",
"97 0 LINE"
);
}
);
vertWidth = 1000;
width = 600;
},
{
anchors = (
{
name = bottom;
position = "{300, 0}";
},
{
name = ogonek;
position = "{467, 0}";
},
{
name = top;
position = "{300, 730}";
},
{
name = topleft;
position = "{33, 730}";
}
);
layerId = "D0C1F23C-2F9F-4D30-8C4D-098ED54EEF3D";
paths = (
{
closed = 1;
nodes = (
"497 0 LINE",
"497 20 LINE",
"127 20 LINE",
"127 376 LINE",
"487 376 LINE",
"487 396 LINE",
"127 396 LINE",
"127 710 LINE",
"497 710 LINE",
"497 730 LINE",
"107 730 LINE",
"107 0 LINE"
);
}
);
width = 600;
}
);
leftKerningGroup = H;
rightKerningGroup = E;
unicode = 0045;
},
{
color = 6;
glyphname = F;
lastChange = "2021-05-05 04:42:54 +0000";
layers = (
{
layerId = "D65C9A1E-0FCA-4B2D-8EDF-9F36CA9182A1";
paths = (
{
closed = 1;
nodes = (
"124 0 LINE",
"124 366 LINE",
"434 366 LINE",
"434 386 LINE",
"124 386 LINE",
"124 710 LINE",
"444 710 LINE",
"444 730 LINE",
"104 730 LINE",
"104 0 LINE"
);
}
);
width = 500;
},
{
layerId = "E27A6A66-A1F8-4E1B-8224-7C0FE77551F2";
paths = (
{
closed = 1;
nodes = (
"169 0 LINE",
"169 341 LINE",
"437 341 LINE",
"437 411 LINE",
"169 411 LINE",
"169 660 LINE",
"447 660 LINE",
"447 730 LINE",
"87 730 LINE",
"87 0 LINE"
);
}
);
vertWidth = 1000;
width = 500;
},
{
layerId = "FC9CFCDA-9E80-4E73-BA51-8504D15957FA";
paths = (
{
closed = 1;
nodes = (
"214 0 LINE",
"214 316 LINE",
"440 316 LINE",
"440 436 LINE",
"214 436 LINE",
"214 610 LINE",
"450 610 LINE",
"450 730 LINE",
"70 730 LINE",
"70 0 LINE"
);
}
);
vertWidth = 1000;
width = 500;
},
{
layerId = "0F1A0AC1-B8D5-4257-ADED-894CB2B827EF";
paths = (
{
closed = 1;
nodes = (
"230 0 LINE",
"230 316 LINE",
"516 316 LINE",
"516 436 LINE",
"230 436 LINE",
"230 610 LINE",
"526 610 LINE",
"526 730 LINE",
"86 730 LINE",
"86 0 LINE"
);
}
);
vertWidth = 1000;
width = 600;
},
{
layerId = "72F02222-BF87-41FD-9A7E-0ABB550ED2DB";
paths = (
{
closed = 1;
nodes = (
"182 0 LINE",
"182 341 LINE",
"510 341 LINE",
"510 411 LINE",
"182 411 LINE",
"182 660 LINE",
"520 660 LINE",
"520 730 LINE",
"100 730 LINE",
"100 0 LINE"
);
}
);
vertWidth = 1000;
width = 600;
},
{
layerId = "D0C1F23C-2F9F-4D30-8C4D-098ED54EEF3D";
paths = (
{
closed = 1;
nodes = (
"134 0 LINE",
"134 366 LINE",
"504 366 LINE",
"504 386 LINE",
"134 386 LINE",
"134 710 LINE",
"514 710 LINE",
"514 730 LINE",
"114 730 LINE",
"114 0 LINE"
);
}
);
width = 600;
}
);
leftKerningGroup = H;
rightKerningGroup = F;
unicode = 0046;
},
{
color = 6;
glyphname = G;
lastChange = "2021-05-05 04:42:54 +0000";
layers = (
{
anchors = (
{
name = bottom;
position = "{270, 0}";
},
{
name = top;
position = "{270, 730}";
}
);
layerId = "E27A6A66-A1F8-4E1B-8224-7C0FE77551F2";
paths = (
{
closed = 1;
nodes = (
"346 -10 OFFCURVE",
"404 -3 OFFCURVE",
"447 10 CURVE",
"447 420 LINE",
"217 420 LINE",
"217 352 LINE",
"367 352 LINE",
"367 44 LINE",
"398 82 LINE",
"364 68 OFFCURVE",
"328 62 OFFCURVE",
"297 62 CURVE SMOOTH",
"178 62 OFFCURVE",
"119 154 OFFCURVE",
"119 340 CURVE SMOOTH",
"119 390 LINE SMOOTH",
"119 584 OFFCURVE",
"178 668 OFFCURVE",
"314 668 CURVE SMOOTH",
"350 668 OFFCURVE",
"390 662 OFFCURVE",
"428 653 CURVE",
"428 727 LINE",
"391 735 OFFCURVE",
"348 740 OFFCURVE",
"309 740 CURVE SMOOTH",
"126 740 OFFCURVE",
"37 627 OFFCURVE",
"37 395 CURVE SMOOTH",
"37 335 LINE SMOOTH",
"37 103 OFFCURVE",
"124 -10 OFFCURVE",
"302 -10 CURVE SMOOTH"
);
}
);
vertWidth = 1000;
width = 500;
},
{
anchors = (
{
name = bottom;
position = "{270, 0}";
},
{
name = top;
position = "{270, 730}";
}
);
layerId = "FC9CFCDA-9E80-4E73-BA51-8504D15957FA";
paths = (
{
closed = 1;
nodes = (
"351 -10 OFFCURVE",
"415 -2 OFFCURVE",
"460 10 CURVE",
"460 444 LINE",
"220 444 LINE",
"220 328 LINE",
"320 328 LINE",
"320 69 LINE",
"369 146 LINE",
"341 124 OFFCURVE",
"319 116 OFFCURVE",
"292 116 CURVE SMOOTH",
"208 116 OFFCURVE",
"164 195 OFFCURVE",
"164 345 CURVE SMOOTH",
"164 385 LINE SMOOTH",
"164 550 OFFCURVE",
"208 614 OFFCURVE",
"322 614 CURVE SMOOTH",
"360 614 OFFCURVE",
"398 607 OFFCURVE",
"440 596 CURVE",
"440 726 LINE",
"400 734 OFFCURVE",
"356 740 OFFCURVE",
"311 740 CURVE SMOOTH",
"115 740 OFFCURVE",
"20 627 OFFCURVE",
"20 395 CURVE SMOOTH",
"20 335 LINE SMOOTH",
"20 103 OFFCURVE",
"112 -10 OFFCURVE",
"301 -10 CURVE SMOOTH"
);
}
);
vertWidth = 1000;
width = 500;
},
{
anchors = (
{
name = bottom;
position = "{270, 0}";
},
{
name = top;
position = "{270, 730}";
}
);
layerId = "D65C9A1E-0FCA-4B2D-8EDF-9F36CA9182A1";
paths = (
{
closed = 1;
nodes = (
"344 -10 OFFCURVE",
"392 -3 OFFCURVE",
"433 10 CURVE",
"433 396 LINE",
"213 396 LINE",
"213 376 LINE",
"413 376 LINE",
"413 19 LINE",
"427 29 LINE",
"389 17 OFFCURVE",
"343 10 OFFCURVE",
"302 10 CURVE SMOOTH",
"147 10 OFFCURVE",
"73 114 OFFCURVE",
"73 335 CURVE SMOOTH",
"73 395 LINE SMOOTH",
"73 616 OFFCURVE",
"148 720 OFFCURVE",
"306 720 CURVE SMOOTH",
"341 720 OFFCURVE",
"381 715 OFFCURVE",
"416 707 CURVE",
"416 727 LINE",
"381 735 OFFCURVE",
"342 740 OFFCURVE",
"306 740 CURVE SMOOTH",
"136 740 OFFCURVE",
"53 627 OFFCURVE",
"53 395 CURVE SMOOTH",
"53 335 LINE SMOOTH",
"53 103 OFFCURVE",
"135 -10 OFFCURVE",
"302 -10 CURVE SMOOTH"
);
}
);
width = 500;
},
{
anchors = (
{
name = bottom;
position = "{320, 0}";
},
{
name = top;
position = "{320, 730}";
}
);
layerId = "0F1A0AC1-B8D5-4257-ADED-894CB2B827EF";
paths = (
{
closed = 1;
nodes = (
"412 -10 OFFCURVE",
"485 -2 OFFCURVE",
"536 10 CURVE",
"536 444 LINE",
"263 444 LINE",
"263 328 LINE",
"396 328 LINE",
"396 69 LINE",
"454 146 LINE",
"417 124 OFFCURVE",
"387 116 OFFCURVE",
"351 116 CURVE SMOOTH",
"239 116 OFFCURVE",
"180 195 OFFCURVE",
"180 345 CURVE SMOOTH",
"180 385 LINE SMOOTH",
"180 550 OFFCURVE",
"233 614 OFFCURVE",
"371 614 CURVE SMOOTH",
"417 614 OFFCURVE",
"463 607 OFFCURVE",
"513 596 CURVE",
"513 726 LINE",
"468 734 OFFCURVE",
"418 740 OFFCURVE",
"367 740 CURVE SMOOTH",
"144 740 OFFCURVE",
"36 627 OFFCURVE",
"36 395 CURVE SMOOTH",
"36 335 LINE SMOOTH",
"36 103 OFFCURVE",
"141 -10 OFFCURVE",
"355 -10 CURVE SMOOTH"
);
}
);
vertWidth = 1000;
width = 600;
},
{
anchors = (
{
name = bottom;
position = "{320, 0}";
},
{
name = top;
position = "{320, 730}";
}
);
layerId = "72F02222-BF87-41FD-9A7E-0ABB550ED2DB";
paths = (
{
closed = 1;
nodes = (
"405 -10 OFFCURVE",
"467 -2 OFFCURVE",
"518 10 CURVE",
"518 420 LINE",
"254 420 LINE",
"254 352 LINE",
"438 352 LINE",
"438 44 LINE",
"474 87 LINE",
"435 70 OFFCURVE",
"394 62 OFFCURVE",
"351 62 CURVE SMOOTH",
"204 62 OFFCURVE",
"130 155 OFFCURVE",
"130 340 CURVE SMOOTH",
"130 390 LINE SMOOTH",
"130 582 OFFCURVE",
"201 668 OFFCURVE",
"360 668 CURVE SMOOTH",
"398 668 OFFCURVE",
"438 663 OFFCURVE",
"497 652 CURVE",
"497 726 LINE",
"446 735 OFFCURVE",
"403 740 OFFCURVE",
"359 740 CURVE SMOOTH",
"150 740 OFFCURVE",
"48 627 OFFCURVE",
"48 395 CURVE SMOOTH",
"48 335 LINE SMOOTH",
"48 104 OFFCURVE",
"148 -10 OFFCURVE",
"351 -10 CURVE SMOOTH"
);
}
);
vertWidth = 1000;
width = 600;
},
{
anchors = (
{
name = bottom;
position = "{320, 0}";
},
{
name = top;
position = "{320, 730}";
}
);
layerId = "D0C1F23C-2F9F-4D30-8C4D-098ED54EEF3D";
paths = (
{
closed = 1;
nodes = (
"397 -10 OFFCURVE",
"453 -3 OFFCURVE",
"500 10 CURVE",
"500 396 LINE",
"245 396 LINE",
"245 376 LINE",
"480 376 LINE",
"480 19 LINE",
"495 29 LINE",
"451 17 OFFCURVE",
"397 10 OFFCURVE",
"349 10 CURVE SMOOTH",
"167 10 OFFCURVE",
"80 114 OFFCURVE",
"80 335 CURVE SMOOTH",
"80 395 LINE SMOOTH",
"80 616 OFFCURVE",
"168 720 OFFCURVE",
"353 720 CURVE SMOOTH",
"393 720 OFFCURVE",
"439 714 OFFCURVE",
"480 706 CURVE",
"480 727 LINE",
"440 735 OFFCURVE",
"395 740 OFFCURVE",
"353 740 CURVE SMOOTH",
"156 740 OFFCURVE",
"60 627 OFFCURVE",
"60 395 CURVE SMOOTH",
"60 335 LINE SMOOTH",
"60 103 OFFCURVE",
"155 -10 OFFCURVE",
"349 -10 CURVE SMOOTH"
);
}
);
width = 600;
}
);
leftKerningGroup = O;
rightKerningGroup = G;
unicode = 0047;
},
{
color = 6;
glyphname = H;
lastChange = "2021-05-05 04:42:54 +0000";
layers = (
{
anchors = (
{
name = bottom;
position = "{250, 0}";
},
{
name = center;
position = "{250, 365}";
},
{
name = top;
position = "{250, 730}";
},
{
name = topleft;
position = "{20, 730}";
}
);
layerId = "D65C9A1E-0FCA-4B2D-8EDF-9F36CA9182A1";
paths = (
{
closed = 1;
nodes = (
"90 0 LINE",
"90 376 LINE",
"410 376 LINE",
"410 0 LINE",
"430 0 LINE",
"430 730 LINE",
"410 730 LINE",
"410 396 LINE",
"90 396 LINE",
"90 730 LINE",
"70 730 LINE",
"70 0 LINE"
);
}
);
width = 500;
},
{
anchors = (
{
name = bottom;
position = "{250, 0}";
},
{
name = center;
position = "{250, 365}";
},
{
name = top;
position = "{250, 730}";
},
{
name = topleft;
position = "{20, 730}";
}
);
layerId = "E27A6A66-A1F8-4E1B-8224-7C0FE77551F2";
paths = (
{
closed = 1;
nodes = (
"135 0 LINE",
"135 350 LINE",
"365 350 LINE",
"365 0 LINE",
"445 0 LINE",
"445 730 LINE",
"365 730 LINE",
"365 422 LINE",
"135 422 LINE",
"135 730 LINE",
"55 730 LINE",
"55 0 LINE"
);
}
);
vertWidth = 1000;
width = 500;
},
{
anchors = (
{
name = bottom;
position = "{250, 0}";
},
{
name = center;
position = "{250, 365}";
},
{
name = top;
position = "{250, 730}";
},
{
name = topleft;
position = "{20, 730}";
}
);
layerId = "FC9CFCDA-9E80-4E73-BA51-8504D15957FA";
paths = (
{
closed = 1;
nodes = (
"180 0 LINE",
"180 324 LINE",
"320 324 LINE",
"320 0 LINE",
"460 0 LINE",
"460 730 LINE",
"320 730 LINE",
"320 448 LINE",
"180 448 LINE",
"180 730 LINE",
"40 730 LINE",
"40 0 LINE"
);
}
);
vertWidth = 1000;
width = 500;
},
{
anchors = (
{
name = bottom;
position = "{300, 0}";
},
{
name = center;
position = "{300, 365}";
},
{
name = top;
position = "{300, 730}";
},
{
name = topleft;
position = "{35, 730}";
}
);
layerId = "0F1A0AC1-B8D5-4257-ADED-894CB2B827EF";
paths = (
{
closed = 1;
nodes = (
"195 0 LINE",
"195 324 LINE",
"405 324 LINE",
"405 0 LINE",
"545 0 LINE",
"545 730 LINE",
"405 730 LINE",
"405 448 LINE",
"195 448 LINE",
"195 730 LINE",
"55 730 LINE",
"55 0 LINE"
);
}
);
vertWidth = 1000;
width = 600;
},
{
anchors = (
{
name = bottom;
position = "{300, 0}";
},
{
name = center;
position = "{300, 365}";
},
{
name = top;
position = "{300, 730}";
},
{
name = topleft;
position = "{35, 730}";
}
);
layerId = "72F02222-BF87-41FD-9A7E-0ABB550ED2DB";
paths = (
{
closed = 1;
nodes = (
"150 0 LINE",
"150 350 LINE",
"450 350 LINE",
"450 0 LINE",
"530 0 LINE",
"530 730 LINE",
"450 730 LINE",
"450 422 LINE",
"150 422 LINE",
"150 730 LINE",
"70 730 LINE",
"70 0 LINE"
);
}
);
vertWidth = 1000;
width = 600;
},
{
anchors = (
{
name = bottom;
position = "{300, 0}";
},
{
name = center;
position = "{300, 365}";
},
{
name = top;
position = "{300, 730}";
},
{
name = topleft;
position = "{35, 730}";
}
);
layerId = "D0C1F23C-2F9F-4D30-8C4D-098ED54EEF3D";
paths = (
{
closed = 1;
nodes = (
"105 0 LINE",
"105 376 LINE",
"495 376 LINE",
"495 0 LINE",
"515 0 LINE",
"515 730 LINE",
"495 730 LINE",
"495 396 LINE",
"105 396 LINE",
"105 730 LINE",
"85 730 LINE",
"85 0 LINE"
);
}
);
width = 600;
}
);
leftKerningGroup = H;
rightKerningGroup = H;
rightMetricsKey = "=|";
unicode = 0048;
},
{
color = 10;
glyphname = Hbar;
lastChange = "2021-05-05 04:42:54 +0000";
layers = (
{
components = (
{
name = H;
}
);
layerId = "D65C9A1E-0FCA-4B2D-8EDF-9F36CA9182A1";
paths = (
{
closed = 1;
nodes = (
"495 586 LINE",
"495 606 LINE",
"5 606 LINE",
"5 586 LINE"
);
}
);
width = 500;
},
{
components = (
{
alignment = -1;
name = H;
}
);
layerId = "E27A6A66-A1F8-4E1B-8224-7C0FE77551F2";
paths = (
{
closed = 1;
nodes = (
"495 561 LINE",
"495 631 LINE",
"5 631 LINE",
"5 561 LINE"
);
}
);
vertWidth = 1000;
width = 500;
},
{
components = (
{
name = H;
}
);
layerId = "FC9CFCDA-9E80-4E73-BA51-8504D15957FA";
paths = (
{
closed = 1;
nodes = (
"495 538 LINE",
"495 654 LINE",
"5 654 LINE",
"5 538 LINE"
);
}
);
vertWidth = 1000;
width = 500;
},
{
components = (
{
name = H;
}
);
layerId = "0F1A0AC1-B8D5-4257-ADED-894CB2B827EF";
paths = (
{
closed = 1;
nodes = (
"595 538 LINE",
"595 654 LINE",
"5 654 LINE",
"5 538 LINE"
);
}
);
vertWidth = 1000;
width = 600;
},
{
components = (
{
alignment = -1;
name = H;
}
);
layerId = "72F02222-BF87-41FD-9A7E-0ABB550ED2DB";
paths = (
{
closed = 1;
nodes = (
"590 561 LINE",
"590 631 LINE",
"10 631 LINE",
"10 561 LINE"
);
}
);
vertWidth = 1000;
width = 600;
},
{
components = (
{
name = H;
}
);
layerId = "D0C1F23C-2F9F-4D30-8C4D-098ED54EEF3D";
paths = (
{
closed = 1;
nodes = (
"585 586 LINE",
"585 606 LINE",
"15 606 LINE",
"15 586 LINE"
);
}
);
width = 600;
}
);
leftKerningGroup = W;
rightKerningGroup = W;
unicode = 0126;
},
{
color = 6;
glyphname = I;
lastChange = "2021-05-05 04:42:54 +0000";
layers = (
{
anchors = (
{
name = bottom;
position = "{250, 0}";
},
{
name = ogonek;
position = "{390, 0}";
},
{
name = top;
position = "{250, 730}";
},
{
name = topleft;
position = "{20, 730}";
}
);
layerId = "D65C9A1E-0FCA-4B2D-8EDF-9F36CA9182A1";
paths = (
{
closed = 1;
nodes = (
"420 0 LINE",
"420 20 LINE",
"260 20 LINE",
"260 710 LINE",
"420 710 LINE",
"420 730 LINE",
"80 730 LINE",
"80 710 LINE",
"240 710 LINE",
"240 20 LINE",
"80 20 LINE",
"80 0 LINE"
);
}
);
width = 500;
},
{
anchors = (
{
name = bottom;
position = "{250, 0}";
},
{
name = ogonek;
position = "{381, 0}";
},
{
name = top;
position = "{250, 730}";
},
{
name = topleft;
position = "{20, 730}";
}
);
layerId = "E27A6A66-A1F8-4E1B-8224-7C0FE77551F2";
paths = (
{
closed = 1;
nodes = (
"425 0 LINE",
"425 70 LINE",
"291 70 LINE",
"291 660 LINE",
"425 660 LINE",
"425 730 LINE",
"75 730 LINE",
"75 660 LINE",
"209 660 LINE",
"209 70 LINE",
"75 70 LINE",
"75 0 LINE"
);
}
);
vertWidth = 1000;
width = 500;
},
{
anchors = (
{
name = bottom;
position = "{250, 0}";
},
{
name = ogonek;
position = "{367, 0}";
},
{
name = top;
position = "{250, 730}";
},
{
name = topleft;
position = "{20, 730}";
}
);
layerId = "FC9CFCDA-9E80-4E73-BA51-8504D15957FA";
paths = (
{
closed = 1;
nodes = (
"430 0 LINE",
"430 120 LINE",
"322 120 LINE",
"322 610 LINE",
"430 610 LINE",
"430 730 LINE",
"70 730 LINE",
"70 610 LINE",
"178 610 LINE",
"178 120 LINE",
"70 120 LINE",
"70 0 LINE"
);
}
);
vertWidth = 1000;
width = 500;
},
{
anchors = (
{
name = bottom;
position = "{300, 0}";
},
{
name = ogonek;
position = "{437, 0}";
},
{
name = top;
position = "{300, 730}";
},
{
name = topleft;
position = "{50, 730}";
}
);
layerId = "0F1A0AC1-B8D5-4257-ADED-894CB2B827EF";
paths = (
{
closed = 1;
nodes = (
"500 0 LINE",
"500 120 LINE",
"372 120 LINE",
"372 610 LINE",
"500 610 LINE",
"500 730 LINE",
"100 730 LINE",
"100 610 LINE",
"228 610 LINE",
"228 120 LINE",
"100 120 LINE",
"100 0 LINE"
);
}
);
vertWidth = 1000;
width = 600;
},
{
anchors = (
{
name = bottom;
position = "{300, 0}";
},
{
name = ogonek;
position = "{446, 0}";
},
{
name = top;
position = "{300, 730}";
},
{
name = topleft;
position = "{55, 730}";
}
);
layerId = "72F02222-BF87-41FD-9A7E-0ABB550ED2DB";
paths = (
{
closed = 1;
nodes = (
"490 0 LINE",
"490 70 LINE",
"341 70 LINE",
"341 660 LINE",
"490 660 LINE",
"490 730 LINE",
"110 730 LINE",
"110 660 LINE",
"259 660 LINE",
"259 70 LINE",
"110 70 LINE",
"110 0 LINE"
);
}
);
vertWidth = 1000;
width = 600;
},
{
anchors = (
{
name = bottom;
position = "{300, 0}";
},
{
name = ogonek;
position = "{450, 0}";
},
{
name = top;
position = "{300, 730}";
},
{
name = topleft;
position = "{60, 730}";
}
);
layerId = "D0C1F23C-2F9F-4D30-8C4D-098ED54EEF3D";
paths = (
{
closed = 1;
nodes = (
"480 0 LINE",
"480 20 LINE",
"310 20 LINE",
"310 710 LINE",
"480 710 LINE",
"480 730 LINE",
"120 730 LINE",
"120 710 LINE",
"290 710 LINE",
"290 20 LINE",
"120 20 LINE",
"120 0 LINE"
);
}
);
width = 600;
}
);
leftKerningGroup = I;
rightKerningGroup = I;
rightMetricsKey = "=|";
unicode = 0049;
},
{
color = 6;
glyphname = J;
lastChange = "2021-05-05 04:42:54 +0000";
layers = (
{
anchors = (
{
name = bottom;
position = "{230, 0}";
},
{
name = top;
position = "{230, 730}";
}
);
layerId = "D65C9A1E-0FCA-4B2D-8EDF-9F36CA9182A1";
paths = (
{
closed = 1;
nodes = (
"320 -10 OFFCURVE",
"378 52 OFFCURVE",
"378 195 CURVE SMOOTH",
"378 730 LINE",
"88 730 LINE",
"88 710 LINE",
"358 710 LINE",
"358 195 LINE SMOOTH",
"358 63 OFFCURVE",
"308 10 OFFCURVE",
"186 10 CURVE SMOOTH",
"133 10 OFFCURVE",
"88 20 OFFCURVE",
"48 41 CURVE",
"48 19 LINE",
"87 0 OFFCURVE",
"132 -10 OFFCURVE",
"186 -10 CURVE SMOOTH"
);
}
);
width = 500;
},
{
anchors = (
{
name = bottom;
position = "{235, 0}";
},
{
name = top;
position = "{235, 730}";
}
);
layerId = "E27A6A66-A1F8-4E1B-8224-7C0FE77551F2";
paths = (
{
closed = 1;
nodes = (
"334 -10 OFFCURVE",
"395 52 OFFCURVE",
"395 195 CURVE SMOOTH",
"395 730 LINE",
"85 730 LINE",
"85 660 LINE",
"313 660 LINE",
"313 202 LINE SMOOTH",
"313 103 OFFCURVE",
"275 62 OFFCURVE",
"182 62 CURVE SMOOTH",
"132 62 OFFCURVE",
"86 74 OFFCURVE",
"45 94 CURVE",
"45 19 LINE",
"87 0 OFFCURVE",
"135 -10 OFFCURVE",
"192 -10 CURVE SMOOTH"
);
}
);
vertWidth = 1000;
width = 500;
},
{
anchors = (
{
name = bottom;
position = "{240, 0}";
},
{
name = top;
position = "{240, 730}";
}
);
layerId = "FC9CFCDA-9E80-4E73-BA51-8504D15957FA";
paths = (
{
closed = 1;
nodes = (
"347 -10 OFFCURVE",
"412 52 OFFCURVE",
"412 195 CURVE SMOOTH",
"412 730 LINE",
"82 730 LINE",
"82 610 LINE",
"268 610 LINE",
"268 210 LINE SMOOTH",
"268 144 OFFCURVE",
"241 116 OFFCURVE",
"177 116 CURVE SMOOTH",
"134 116 OFFCURVE",
"83 129 OFFCURVE",
"42 149 CURVE",
"42 19 LINE",
"86 0 OFFCURVE",
"137 -10 OFFCURVE",
"197 -10 CURVE SMOOTH"
);
}
);
vertWidth = 1000;
width = 500;
},
{
anchors = (
{
name = bottom;
position = "{290, 0}";
},
{
name = top;
position = "{290, 730}";
}
);
layerId = "0F1A0AC1-B8D5-4257-ADED-894CB2B827EF";
paths = (
{
closed = 1;
nodes = (
"410 -10 OFFCURVE",
"482 52 OFFCURVE",
"482 195 CURVE SMOOTH",
"482 730 LINE",
"116 730 LINE",
"116 610 LINE",
"338 610 LINE",
"338 210 LINE SMOOTH",
"338 144 OFFCURVE",
"307 116 OFFCURVE",
"231 116 CURVE SMOOTH",
"181 116 OFFCURVE",
"121 128 OFFCURVE",
"72 149 CURVE",
"72 19 LINE",
"121 0 OFFCURVE",
"177 -10 OFFCURVE",
"244 -10 CURVE SMOOTH"
);
}
);
vertWidth = 1000;
width = 600;
},
{
anchors = (
{
name = bottom;
position = "{290, 0}";
},
{
name = top;
position = "{290, 730}";
}
);
layerId = "72F02222-BF87-41FD-9A7E-0ABB550ED2DB";
paths = (
{
closed = 1;
nodes = (
"397 -10 OFFCURVE",
"465 52 OFFCURVE",
"465 195 CURVE SMOOTH",
"465 730 LINE",
"119 730 LINE",
"119 660 LINE",
"383 660 LINE",
"383 203 LINE SMOOTH",
"383 103 OFFCURVE",
"339 62 OFFCURVE",
"232 62 CURVE SMOOTH",
"177 62 OFFCURVE",
"121 73 OFFCURVE",
"75 94 CURVE",
"74.994 19 LINE",
"121 0 OFFCURVE",
"175.004 -10 OFFCURVE",
"239 -10 CURVE SMOOTH"
);
}
);
vertWidth = 1000;
width = 600;
},
{
anchors = (
{
name = bottom;
position = "{290, 0}";
},
{
name = top;
position = "{290, 730}";
}
);
layerId = "D0C1F23C-2F9F-4D30-8C4D-098ED54EEF3D";
paths = (
{
closed = 1;
nodes = (
"383 -10 OFFCURVE",
"448 52 OFFCURVE",
"448 195 CURVE SMOOTH",
"448 730 LINE",
"123 730 LINE",
"123 710 LINE",
"428 710 LINE",
"428 195 LINE SMOOTH",
"428 63 OFFCURVE",
"372 10 OFFCURVE",
"233 10 CURVE SMOOTH",
"173 10 OFFCURVE",
"122 20 OFFCURVE",
"78 41 CURVE",
"78 19 LINE",
"122 0 OFFCURVE",
"173 -10 OFFCURVE",
"233 -10 CURVE SMOOTH"
);
}
);
width = 600;
}
);
leftKerningGroup = J;
rightKerningGroup = U;
unicode = 004A;
},
{
color = 6;
glyphname = K;
lastChange = "2021-05-05 04:42:54 +0000";
layers = (
{
anchors = (
{
name = bottom;
position = "{230, 0}";
},
{
name = top;
position = "{230, 730}";
}
);
layerId = "D65C9A1E-0FCA-4B2D-8EDF-9F36CA9182A1";
paths = (
{
closed = 1;
nodes = (
"112 0 LINE",
"112 370 LINE",
"116 370 LINE",
"436 0 LINE",
"462 0 LINE",
"127 386 LINE",
"462 730 LINE",
"434 730 LINE",
"116 403 LINE",
"112 403 LINE",
"112 730 LINE",
"92 730 LINE",
"92 0 LINE"
);
}
);
width = 500;
},
{
anchors = (
{
name = bottom;
position = "{235, 0}";
},
{
name = top;
position = "{235, 730}";
}
);
layerId = "E27A6A66-A1F8-4E1B-8224-7C0FE77551F2";
paths = (
{
closed = 1;
nodes = (
"155 0 LINE",
"155 358 LINE",
"159 358 LINE",
"385 0 LINE",
"475 0 LINE",
"230 386 LINE",
"475 730 LINE",
"384 730 LINE",
"159 414 LINE",
"155 414 LINE",
"155 730 LINE",
"75 730 LINE",
"75 0 LINE"
);
}
);
vertWidth = 1000;
width = 500;
},
{
anchors = (
{
name = bottom;
position = "{240, 0}";
},
{
name = top;
position = "{240, 730}";
}
);
layerId = "FC9CFCDA-9E80-4E73-BA51-8504D15957FA";
paths = (
{
closed = 1;
nodes = (
"198 0 LINE",
"198 346 LINE",
"202 346 LINE",
"338 0 LINE",
"488 0 LINE",
"333 386 LINE",
"488 730 LINE",
"338 730 LINE",
"202 426 LINE",
"198 426 LINE",
"198 730 LINE",
"58 730 LINE",
"58 0 LINE"
);
}
);
vertWidth = 1000;
width = 500;
},
{
anchors = (
{
name = bottom;
position = "{280, 0}";
},
{
name = top;
position = "{280, 730}";
}
);
layerId = "0F1A0AC1-B8D5-4257-ADED-894CB2B827EF";
paths = (
{
closed = 1;
nodes = (
"208 0 LINE",
"208 346 LINE",
"212 346 LINE",
"414 0 LINE",
"568 0 LINE",
"343 386 LINE",
"568 730 LINE",
"414 730 LINE",
"212 426 LINE",
"208 426 LINE",
"208 730 LINE",
"68 730 LINE",
"68 0 LINE"
);
}
);
vertWidth = 1000;
width = 600;
},
{
anchors = (
{
name = bottom;
position = "{280, 0}";
},
{
name = top;
position = "{280, 730}";
}
);
layerId = "72F02222-BF87-41FD-9A7E-0ABB550ED2DB";
paths = (
{
closed = 1;
nodes = (
"170 0 LINE",
"170 357 LINE",
"174 357 LINE",
"459 0 LINE",
"550 0 LINE",
"245 386 LINE",
"550 730 LINE",
"458 730 LINE",
"174 415 LINE",
"170 415 LINE",
"170 730 LINE",
"90 730 LINE",
"90 0 LINE"
);
}
);
vertWidth = 1000;
width = 600;
},
{
anchors = (
{
name = bottom;
position = "{280, 0}";
},
{
name = top;
position = "{280, 730}";
}
);
layerId = "D0C1F23C-2F9F-4D30-8C4D-098ED54EEF3D";
paths = (
{
closed = 1;
nodes = (
"132 0 LINE",
"132 369 LINE",
"136 369 LINE",
"504 0 LINE",
"532 0 LINE",
"147 386 LINE",
"532 730 LINE",
"502 730 LINE",
"136 403 LINE",
"132 403 LINE",
"132 730 LINE",
"112 730 LINE",
"112 0 LINE"
);
}
);
width = 600;
}
);
leftKerningGroup = H;
rightKerningGroup = K;
unicode = 004B;
},
{
color = 6;
glyphname = L;
lastChange = "2021-05-05 04:42:54 +0000";
layers = (
{
anchors = (
{
name = bottom;
position = "{250, 0}";
},
{
name = center;
position = "{250, 365}";
},
{
name = pdcenter;
position = "{330, 385}";
},
{
name = top;
position = "{250, 730}";
},
{
name = topright;
position = "{300, 460}";
}
);
layerId = "D65C9A1E-0FCA-4B2D-8EDF-9F36CA9182A1";
paths = (
{
closed = 1;
nodes = (
"445 0 LINE",
"445 20 LINE",
"115 20 LINE",
"115 730 LINE",
"95 730 LINE",
"95 0 LINE"
);
}
);
width = 500;
},
{
anchors = (
{
name = bottom;
position = "{250, 0}";
},
{
name = center;
position = "{250, 365}";
},
{
name = pdcenter;
position = "{350, 385}";
},
{
name = top;
position = "{250, 730}";
},
{
name = topright;
position = "{320, 460}";
}
);
layerId = "E27A6A66-A1F8-4E1B-8224-7C0FE77551F2";
paths = (
{
closed = 1;
nodes = (
"450 0 LINE",
"450 72 LINE",
"162 72 LINE",
"162 730 LINE",
"80 730 LINE",
"80 0 LINE"
);
}
);
vertWidth = 1000;
width = 500;
},
{
anchors = (
{
name = bottom;
position = "{250, 0}";
},
{
name = center;
position = "{250, 365}";
},
{
name = pdcenter;
position = "{370, 385}";
},
{
name = top;
position = "{250, 730}";
},
{
name = topright;
position = "{340, 460}";
}
);
layerId = "FC9CFCDA-9E80-4E73-BA51-8504D15957FA";
paths = (
{
closed = 1;
nodes = (
"455 0 LINE",
"455 124 LINE",
"209 124 LINE",
"209 730 LINE",
"65 730 LINE",
"65 0 LINE"
);
}
);
vertWidth = 1000;
width = 500;
},
{
anchors = (
{
name = bottom;
position = "{300, 0}";
},
{
name = center;
position = "{300, 365}";
},
{
name = pdcenter;
position = "{420, 385}";
},
{
name = top;
position = "{300, 730}";
},
{
name = topright;
position = "{390, 460}";
}
);
layerId = "0F1A0AC1-B8D5-4257-ADED-894CB2B827EF";
paths = (
{
closed = 1;
nodes = (
"535 0 LINE",
"535 124 LINE",
"229 124 LINE",
"229 730 LINE",
"85 730 LINE",
"85 0 LINE"
);
}
);
vertWidth = 1000;
width = 600;
},
{
anchors = (
{
name = bottom;
position = "{300, 0}";
},
{
name = center;
position = "{300, 365}";
},
{
name = pdcenter;
position = "{400, 385}";
},
{
name = top;
position = "{300, 730}";
},
{
name = topright;
position = "{370, 460}";
}
);
layerId = "72F02222-BF87-41FD-9A7E-0ABB550ED2DB";
paths = (
{
closed = 1;
nodes = (
"530 0 LINE",
"530 72 LINE",
"182 72 LINE",
"182 730 LINE",
"100 730 LINE",
"100 0 LINE"
);
}
);
vertWidth = 1000;
width = 600;
},
{
anchors = (
{
name = bottom;
position = "{300, 0}";
},
{
name = center;
position = "{300, 365}";
},
{
name = pdcenter;
position = "{380, 385}";
},
{
name = top;
position = "{300, 730}";
},
{
name = topright;
position = "{350, 460}";
}
);
layerId = "D0C1F23C-2F9F-4D30-8C4D-098ED54EEF3D";
paths = (
{
closed = 1;
nodes = (
"525 0 LINE",
"525 20 LINE",
"135 20 LINE",
"135 730 LINE",
"115 730 LINE",
"115 0 LINE"
);
}
);
width = 600;
}
);
leftKerningGroup = H;
rightKerningGroup = L;
unicode = 004C;
},
{
color = 10;
glyphname = LJ;
lastChange = "2021-05-05 04:42:54 +0000";
layers = (
{
layerId = "D65C9A1E-0FCA-4B2D-8EDF-9F36CA9182A1";
paths = (
{
closed = 1;
nodes = (
"315 0 LINE",
"315 20 LINE",
"95 20 LINE",
"95 730 LINE",
"75 730 LINE",
"75 0 LINE"
);
},
{
closed = 1;
nodes = (
"367 -220 OFFCURVE",
"425 -158 OFFCURVE",
"425 -15 CURVE SMOOTH",
"425 730 LINE",
"185 730 LINE",
"185 710 LINE",
"405 710 LINE",
"405 -15 LINE SMOOTH",
"405 -147 OFFCURVE",
"355 -200 OFFCURVE",
"233 -200 CURVE SMOOTH",
"180 -200 OFFCURVE",
"135 -190 OFFCURVE",
"95 -169 CURVE",
"95 -191 LINE",
"134 -210 OFFCURVE",
"179 -220 OFFCURVE",
"233 -220 CURVE SMOOTH"
);
}
);
width = 500;
},
{
layerId = "E27A6A66-A1F8-4E1B-8224-7C0FE77551F2";
paths = (
{
closed = 1;
nodes = (
"295 0 LINE",
"295 72 LINE",
"137 72 LINE",
"137 730 LINE",
"55 730 LINE",
"55 0 LINE"
);
},
{
closed = 1;
nodes = (
"384 -220 OFFCURVE",
"445 -158 OFFCURVE",
"445 -15 CURVE SMOOTH",
"445 730 LINE",
"205 730 LINE",
"205 660 LINE",
"363 660 LINE",
"363 -8 LINE SMOOTH",
"363 -107 OFFCURVE",
"325 -148 OFFCURVE",
"232 -148 CURVE SMOOTH",
"182 -148 OFFCURVE",
"136 -136 OFFCURVE",
"95 -116 CURVE",
"95 -191 LINE",
"137 -210 OFFCURVE",
"185 -220 OFFCURVE",
"242 -220 CURVE SMOOTH"
);
}
);
vertWidth = 1000;
width = 500;
},
{
layerId = "FC9CFCDA-9E80-4E73-BA51-8504D15957FA";
paths = (
{
closed = 1;
nodes = (
"275 0 LINE",
"275 124 LINE",
"179 124 LINE",
"179 730 LINE",
"35 730 LINE",
"35 0 LINE"
);
},
{
closed = 1;
nodes = (
"400 -220 OFFCURVE",
"465 -158 OFFCURVE",
"465 -15 CURVE SMOOTH",
"465 730 LINE",
"225 730 LINE",
"225 610 LINE",
"321 610 LINE",
"321 0 LINE SMOOTH",
"321 -66 OFFCURVE",
"294 -94 OFFCURVE",
"230 -94 CURVE SMOOTH",
"187 -94 OFFCURVE",
"136 -81 OFFCURVE",
"95 -61 CURVE",
"95 -191 LINE",
"139 -210 OFFCURVE",
"190 -220 OFFCURVE",
"250 -220 CURVE SMOOTH"
);
}
);
vertWidth = 1000;
width = 500;
},
{
layerId = "0F1A0AC1-B8D5-4257-ADED-894CB2B827EF";
paths = (
{
closed = 1;
nodes = (
"340 0 LINE",
"340 124 LINE",
"210 124 LINE",
"210 730 LINE",
"70 730 LINE",
"70 0 LINE"
);
},
{
closed = 1;
nodes = (
"459 -220 OFFCURVE",
"530 -158 OFFCURVE",
"530 -15 CURVE SMOOTH",
"530 730 LINE",
"260 730 LINE",
"260 610 LINE",
"390 610 LINE",
"390 0 LINE SMOOTH",
"390 -66 OFFCURVE",
"359 -94 OFFCURVE",
"286 -94 CURVE SMOOTH",
"236 -94 OFFCURVE",
"175 -81 OFFCURVE",
"127 -61 CURVE",
"127 -191 LINE",
"175 -210 OFFCURVE",
"229 -220 OFFCURVE",
"295 -220 CURVE SMOOTH"
);
}
);
vertWidth = 1000;
width = 600;
},
{
layerId = "72F02222-BF87-41FD-9A7E-0ABB550ED2DB";
paths = (
{
closed = 1;
nodes = (
"359 0 LINE",
"359 72 LINE",
"165 72 LINE",
"165 730 LINE",
"85 730 LINE",
"85 0 LINE"
);
},
{
closed = 1;
nodes = (
"448 -220 OFFCURVE",
"515 -158 OFFCURVE",
"515 -15 CURVE SMOOTH",
"515 730 LINE",
"241 730 LINE",
"241 660 LINE",
"435 660 LINE",
"435 -7 LINE SMOOTH",
"435 -107 OFFCURVE",
"392 -148 OFFCURVE",
"287 -148 CURVE SMOOTH",
"230 -148 OFFCURVE",
"177 -136 OFFCURVE",
"131 -116 CURVE",
"131 -191 LINE",
"177 -210 OFFCURVE",
"229 -220 OFFCURVE",
"292 -220 CURVE SMOOTH"
);
}
);
vertWidth = 1000;
width = 600;
},
{
layerId = "D0C1F23C-2F9F-4D30-8C4D-098ED54EEF3D";
paths = (
{
closed = 1;
nodes = (
"379 0 LINE",
"379 20 LINE",
"120 20 LINE",
"120 730 LINE",
"100 730 LINE",
"100 0 LINE"
);
},
{
closed = 1;
nodes = (
"436 -220 OFFCURVE",
"500 -158 OFFCURVE",
"500 -15 CURVE SMOOTH",
"500 730 LINE",
"221 730 LINE",
"221 710 LINE",
"480 710 LINE",
"480 -15 LINE SMOOTH",
"480 -147 OFFCURVE",
"425 -200 OFFCURVE",
"288 -200 CURVE SMOOTH",
"229 -200 OFFCURVE",
"180 -190 OFFCURVE",
"136 -169 CURVE",
"136 -191 LINE",
"179 -210 OFFCURVE",
"228 -220 OFFCURVE",
"288 -220 CURVE SMOOTH"
);
}
);
width = 600;
}
);
leftKerningGroup = H;
rightKerningGroup = U;
unicode = 01C7;
},
{
color = 10;
glyphname = Lj;
lastChange = "2021-05-05 04:42:54 +0000";
layers = (
{
layerId = "D65C9A1E-0FCA-4B2D-8EDF-9F36CA9182A1";
paths = (
{
closed = 1;
nodes = (
"315 0 LINE",
"315 20 LINE",
"95 20 LINE",
"95 730 LINE",
"75 730 LINE",
"75 0 LINE"
);
},
{
closed = 1;
nodes = (
"205 -220 LINE",
"350 -220 OFFCURVE",
"425 -131 OFFCURVE",
"425 41 CURVE SMOOTH",
"425 520 LINE",
"245 520 LINE",
"245 500 LINE",
"405 500 LINE",
"405 41 LINE SMOOTH",
"405 -119 OFFCURVE",
"338 -200 OFFCURVE",
"205 -200 CURVE"
);
},
{
closed = 1;
nodes = (
"428 658 OFFCURVE",
"445 674 OFFCURVE",
"445 699 CURVE SMOOTH",
"445 724 OFFCURVE",
"428 740 OFFCURVE",
"403 740 CURVE SMOOTH",
"378 740 OFFCURVE",
"361 724 OFFCURVE",
"361 699 CURVE SMOOTH",
"361 674 OFFCURVE",
"378 658 OFFCURVE",
"403 658 CURVE SMOOTH"
);
}
);
width = 500;
},
{
layerId = "E27A6A66-A1F8-4E1B-8224-7C0FE77551F2";
paths = (
{
closed = 1;
nodes = (
"295 0 LINE",
"295 72 LINE",
"137 72 LINE",
"137 730 LINE",
"55 730 LINE",
"55 0 LINE"
);
},
{
closed = 1;
nodes = (
"185 -220 LINE",
"360 -220 OFFCURVE",
"445 -134 OFFCURVE",
"445 43 CURVE SMOOTH",
"445 520 LINE",
"235 520 LINE",
"235 450 LINE",
"365 450 LINE",
"365 37 LINE SMOOTH",
"365 -92 OFFCURVE",
"309 -150 OFFCURVE",
"185 -150 CURVE"
);
},
{
closed = 1;
nodes = (
"432 614 OFFCURVE",
"460 640 OFFCURVE",
"460 682 CURVE SMOOTH",
"460 724 OFFCURVE",
"432 750 OFFCURVE",
"389 750 CURVE SMOOTH",
"346 750 OFFCURVE",
"318 724 OFFCURVE",
"318 682 CURVE SMOOTH",
"318 640 OFFCURVE",
"346 614 OFFCURVE",
"389 614 CURVE SMOOTH"
);
}
);
vertWidth = 1000;
width = 500;
},
{
layerId = "FC9CFCDA-9E80-4E73-BA51-8504D15957FA";
paths = (
{
closed = 1;
nodes = (
"279 0 LINE",
"279 124 LINE",
"179 124 LINE",
"179 730 LINE",
"35 730 LINE",
"35 0 LINE"
);
},
{
closed = 1;
nodes = (
"165 -220 LINE",
"370 -220 OFFCURVE",
"465 -136 OFFCURVE",
"465 45 CURVE SMOOTH",
"465 520 LINE",
"225 520 LINE",
"225 402 LINE",
"325 402 LINE",
"325 34 LINE SMOOTH",
"325 -60 OFFCURVE",
"279 -98 OFFCURVE",
"165 -98 CURVE"
);
},
{
closed = 1;
nodes = (
"438 580 OFFCURVE",
"475 614 OFFCURVE",
"475 670 CURVE SMOOTH",
"475 726 OFFCURVE",
"438 760 OFFCURVE",
"380 760 CURVE SMOOTH",
"322 760 OFFCURVE",
"285 726 OFFCURVE",
"285 670 CURVE SMOOTH",
"285 614 OFFCURVE",
"322 580 OFFCURVE",
"380 580 CURVE SMOOTH"
);
}
);
vertWidth = 1000;
width = 500;
},
{
layerId = "0F1A0AC1-B8D5-4257-ADED-894CB2B827EF";
paths = (
{
closed = 1;
nodes = (
"340 0 LINE",
"340 124 LINE",
"210 124 LINE",
"210 730 LINE",
"70 730 LINE",
"70 0 LINE"
);
},
{
closed = 1;
nodes = (
"203 -220 LINE",
"427 -220 OFFCURVE",
"530 -136 OFFCURVE",
"530 45 CURVE SMOOTH",
"530 520 LINE",
"260 520 LINE",
"260 402 LINE",
"390 402 LINE",
"390 34 LINE SMOOTH",
"390 -60 OFFCURVE",
"336 -98 OFFCURVE",
"203 -98 CURVE"
);
},
{
closed = 1;
nodes = (
"503 580 OFFCURVE",
"540 614 OFFCURVE",
"540 670 CURVE SMOOTH",
"540 726 OFFCURVE",
"503 760 OFFCURVE",
"445 760 CURVE SMOOTH",
"387 760 OFFCURVE",
"350 726 OFFCURVE",
"350 670 CURVE SMOOTH",
"350 614 OFFCURVE",
"387 580 OFFCURVE",
"445 580 CURVE SMOOTH"
);
}
);
vertWidth = 1000;
width = 600;
},
{
layerId = "72F02222-BF87-41FD-9A7E-0ABB550ED2DB";
paths = (
{
closed = 1;
nodes = (
"359 0 LINE",
"359 72 LINE",
"167 72 LINE",
"167 730 LINE",
"85 730 LINE",
"85 0 LINE"
);
},
{
closed = 1;
nodes = (
"241 -220 LINE",
"425 -220 OFFCURVE",
"515 -134 OFFCURVE",
"515 43 CURVE SMOOTH",
"515 520 LINE",
"270 520 LINE",
"270 450 LINE",
"435 450 LINE",
"435 37 LINE SMOOTH",
"435 -92 OFFCURVE",
"375 -150 OFFCURVE",
"241 -150 CURVE"
);
},
{
closed = 1;
nodes = (
"502 614 OFFCURVE",
"530 640 OFFCURVE",
"530 682 CURVE SMOOTH",
"530 724 OFFCURVE",
"502 750 OFFCURVE",
"459 750 CURVE SMOOTH",
"416 750 OFFCURVE",
"388 724 OFFCURVE",
"388 682 CURVE SMOOTH",
"388 640 OFFCURVE",
"416 614 OFFCURVE",
"459 614 CURVE SMOOTH"
);
}
);
vertWidth = 1000;
width = 600;
},
{
layerId = "D0C1F23C-2F9F-4D30-8C4D-098ED54EEF3D";
paths = (
{
closed = 1;
nodes = (
"379 0 LINE",
"379 20 LINE",
"120 20 LINE",
"120 730 LINE",
"100 730 LINE",
"100 0 LINE"
);
},
{
closed = 1;
nodes = (
"280 -220 LINE",
"425 -220 OFFCURVE",
"500 -131 OFFCURVE",
"500 41 CURVE SMOOTH",
"500 520 LINE",
"280 520 LINE",
"280 500 LINE",
"480 500 LINE",
"480 41 LINE SMOOTH",
"480 -119 OFFCURVE",
"413 -200 OFFCURVE",
"280 -200 CURVE"
);
},
{
closed = 1;
nodes = (
"503 658 OFFCURVE",
"520 674 OFFCURVE",
"520 699 CURVE SMOOTH",
"520 724 OFFCURVE",
"503 740 OFFCURVE",
"478 740 CURVE SMOOTH",
"453 740 OFFCURVE",
"436 724 OFFCURVE",
"436 699 CURVE SMOOTH",
"436 674 OFFCURVE",
"453 658 OFFCURVE",
"478 658 CURVE SMOOTH"
);
}
);
width = 600;
}
);
leftKerningGroup = H;
rightKerningGroup = g;
unicode = 01C8;
},
{
color = 10;
glyphname = Lslash;
lastChange = "2021-05-05 04:42:54 +0000";
layers = (
{
components = (
{
name = L;
transform = "{1, 0, 0, 1, 20, 0}";
}
);
layerId = "D65C9A1E-0FCA-4B2D-8EDF-9F36CA9182A1";
paths = (
{
closed = 1;
nodes = (
"330 450 LINE",
"330 471 LINE",
"0 322 LINE",
"0 301 LINE"
);
}
);
width = 500;
},
{
components = (
{
alignment = -1;
name = L;
transform = "{1, 0, 0, 1, 20, 0}";
}
);
layerId = "E27A6A66-A1F8-4E1B-8224-7C0FE77551F2";
paths = (
{
closed = 1;
nodes = (
"350 423 LINE",
"350 499 LINE",
"10 349 LINE",
"10 273 LINE"
);
}
);
width = 500;
},
{
components = (
{
name = L;
transform = "{1, 0, 0, 1, 20, 0}";
}
);
layerId = "FC9CFCDA-9E80-4E73-BA51-8504D15957FA";
paths = (
{
closed = 1;
nodes = (
"360 399 LINE",
"360 525 LINE",
"10 373 LINE",
"10 247 LINE"
);
}
);
width = 500;
},
{
components = (
{
name = L;
transform = "{1, 0, 0, 1, 20, 0}";
}
);
layerId = "0F1A0AC1-B8D5-4257-ADED-894CB2B827EF";
paths = (
{
closed = 1;
nodes = (
"400 399 LINE",
"400 525 LINE",
"10 373 LINE",
"10 247 LINE"
);
}
);
width = 600;
},
{
components = (
{
alignment = -1;
name = L;
transform = "{1, 0, 0, 1, 20, 0}";
}
);
layerId = "72F02222-BF87-41FD-9A7E-0ABB550ED2DB";
paths = (
{
closed = 1;
nodes = (
"390 423 LINE",
"390 499 LINE",
"10 349 LINE",
"10 273 LINE"
);
}
);
width = 600;
},
{
components = (
{
name = L;
transform = "{1, 0, 0, 1, 20, 0}";
}
);
layerId = "D0C1F23C-2F9F-4D30-8C4D-098ED54EEF3D";
paths = (
{
closed = 1;
nodes = (
"390 450 LINE",
"390 472 LINE",
"20 322 LINE",
"20 300 LINE"
);
}
);
width = 600;
}
);
leftKerningGroup = t;
rightKerningGroup = L;
unicode = 0141;
},
{
color = 6;
glyphname = M;
lastChange = "2021-05-05 04:42:54 +0000";
layers = (
{
layerId = "D65C9A1E-0FCA-4B2D-8EDF-9F36CA9182A1";
paths = (
{
closed = 1;
nodes = (
"70 0 LINE",
"69 691 LINE",
"73 691 LINE",
"235 140 LINE",
"265 140 LINE",
"427 691 LINE",
"431 691 LINE",
"430 0 LINE",
"450 0 LINE",
"450 730 LINE",
"418 730 LINE",
"252 165 LINE",
"248 165 LINE",
"82 730 LINE",
"50 730 LINE",
"50 0 LINE"
);
}
);
width = 500;
},
{
layerId = "E27A6A66-A1F8-4E1B-8224-7C0FE77551F2";
paths = (
{
closed = 1;
nodes = (
"118 0 LINE",
"118 626 LINE",
"122 626 LINE",
"195 140 LINE",
"305 140 LINE",
"378 626 LINE",
"382 626 LINE",
"382 0 LINE",
"460 0 LINE",
"460 730 LINE",
"324 730 LINE",
"252 229 LINE",
"248 229 LINE",
"176 730 LINE",
"40 730 LINE",
"40 0 LINE"
);
}
);
vertWidth = 1000;
width = 500;
},
{
layerId = "FC9CFCDA-9E80-4E73-BA51-8504D15957FA";
paths = (
{
closed = 1;
nodes = (
"165 0 LINE",
"153 500 LINE",
"157 500 LINE",
"205 140 LINE",
"295 140 LINE",
"343 500 LINE",
"347 500 LINE",
"335 0 LINE",
"470 0 LINE",
"470 730 LINE",
"280 730 LINE",
"252 430 LINE",
"248 430 LINE",
"220 730 LINE",
"30 730 LINE",
"30 0 LINE"
);
}
);
vertWidth = 1000;
width = 500;
},
{
layerId = "0F1A0AC1-B8D5-4257-ADED-894CB2B827EF";
paths = (
{
closed = 1;
nodes = (
"181 0 LINE",
"168 560 LINE",
"172 560 LINE",
"244 140 LINE",
"356 140 LINE",
"428 560 LINE",
"432 560 LINE",
"419 0 LINE",
"555 0 LINE",
"555 730 LINE",
"363 730 LINE",
"302 350 LINE",
"298 350 LINE",
"237 730 LINE",
"45 730 LINE",
"45 0 LINE"
);
}
);
vertWidth = 1000;
width = 600;
},
{
layerId = "72F02222-BF87-41FD-9A7E-0ABB550ED2DB";
paths = (
{
closed = 1;
nodes = (
"138 0 LINE",
"131 625 LINE",
"135 625 LINE",
"245 140 LINE",
"355 140 LINE",
"465 625 LINE",
"469 625 LINE",
"462 0 LINE",
"540 0 LINE",
"540 730 LINE",
"404 730 LINE",
"302 227 LINE",
"298 227 LINE",
"196 730 LINE",
"60 730 LINE",
"60 0 LINE"
);
}
);
vertWidth = 1000;
width = 600;
},
{
layerId = "D0C1F23C-2F9F-4D30-8C4D-098ED54EEF3D";
paths = (
{
closed = 1;
nodes = (
"95 0 LINE",
"94 691 LINE",
"98 691 LINE",
"285 140 LINE",
"315 140 LINE",
"502 691 LINE",
"506 691 LINE",
"505 0 LINE",
"525 0 LINE",
"525 730 LINE",
"494 730 LINE",
"302 163 LINE",
"298 163 LINE",
"106 730 LINE",
"75 730 LINE",
"75 0 LINE"
);
}
);
width = 600;
}
);
leftKerningGroup = H;
rightKerningGroup = H;
rightMetricsKey = "=|";
unicode = 004D;
},
{
color = 6;
glyphname = N;
lastChange = "2021-05-05 04:42:54 +0000";
layers = (
{
anchors = (
{
name = bottom;
position = "{250, 0}";
},
{
name = top;
position = "{250, 730}";
}
);
layerId = "D65C9A1E-0FCA-4B2D-8EDF-9F36CA9182A1";
paths = (
{
closed = 1;
nodes = (
"90 0 LINE",
"90 679 LINE",
"94 679 LINE",
"408 0 LINE",
"430 0 LINE",
"430 730 LINE",
"410 730 LINE",
"410 51 LINE",
"406 51 LINE",
"92 730 LINE",
"70 730 LINE",
"70 0 LINE"
);
}
);
width = 500;
},
{
anchors = (
{
name = bottom;
position = "{250, 0}";
},
{
name = top;
position = "{250, 730}";
}
);
layerId = "E27A6A66-A1F8-4E1B-8224-7C0FE77551F2";
paths = (
{
closed = 1;
nodes = (
"135 0 LINE",
"135 630 LINE",
"139 630 LINE",
"315 0 LINE",
"445 0 LINE",
"445 730 LINE",
"365 730 LINE",
"365 100 LINE",
"361 100 LINE",
"185 730 LINE",
"55 730 LINE",
"55 0 LINE"
);
}
);
vertWidth = 1000;
width = 500;
},
{
anchors = (
{
name = bottom;
position = "{250, 0}";
},
{
name = top;
position = "{250, 730}";
}
);
layerId = "FC9CFCDA-9E80-4E73-BA51-8504D15957FA";
paths = (
{
closed = 1;
nodes = (
"180 0 LINE",
"180 460 LINE",
"184 460 LINE",
"280 0 LINE",
"460 0 LINE",
"460 730 LINE",
"320 730 LINE",
"320 270 LINE",
"316 270 LINE",
"220 730 LINE",
"40 730 LINE",
"40 0 LINE"
);
}
);
vertWidth = 1000;
width = 500;
},
{
anchors = (
{
name = bottom;
position = "{300, 0}";
},
{
name = top;
position = "{300, 730}";
}
);
layerId = "0F1A0AC1-B8D5-4257-ADED-894CB2B827EF";
paths = (
{
closed = 1;
nodes = (
"195 0 LINE",
"195 490 LINE",
"199 490 LINE",
"365 0 LINE",
"545 0 LINE",
"545 730 LINE",
"405 730 LINE",
"405 240 LINE",
"401 240 LINE",
"235 730 LINE",
"55 730 LINE",
"55 0 LINE"
);
}
);
vertWidth = 1000;
width = 600;
},
{
anchors = (
{
name = bottom;
position = "{300, 0}";
},
{
name = top;
position = "{300, 730}";
}
);
layerId = "72F02222-BF87-41FD-9A7E-0ABB550ED2DB";
paths = (
{
closed = 1;
nodes = (
"150 0 LINE",
"150 639 LINE",
"154 639 LINE",
"400 0 LINE",
"530 0 LINE",
"530 730 LINE",
"450 730 LINE",
"450 91 LINE",
"446 91 LINE",
"200 730 LINE",
"70 730 LINE",
"70 0 LINE"
);
}
);
vertWidth = 1000;
width = 600;
},
{
anchors = (
{
name = bottom;
position = "{300, 0}";
},
{
name = top;
position = "{300, 730}";
}
);
layerId = "D0C1F23C-2F9F-4D30-8C4D-098ED54EEF3D";
paths = (
{
closed = 1;
nodes = (
"105 0 LINE",
"105 686 LINE",
"109 686 LINE",
"493 0 LINE",
"515 0 LINE",
"515 730 LINE",
"495 730 LINE",
"495 44 LINE",
"491 44 LINE",
"107 730 LINE",
"85 730 LINE",
"85 0 LINE"
);
}
);
width = 600;
}
);
leftKerningGroup = H;
rightKerningGroup = H;
rightMetricsKey = "=|";
unicode = 004E;
},
{
color = 10;
glyphname = NJ;
lastChange = "2021-05-05 04:42:54 +0000";
layers = (
{
layerId = "D65C9A1E-0FCA-4B2D-8EDF-9F36CA9182A1";
paths = (
{
closed = 1;
nodes = (
"414 -220 OFFCURVE",
"460 -158 OFFCURVE",
"460 -15 CURVE SMOOTH",
"460 730 LINE",
"246 730 LINE",
"246 309 LINE",
"242 309 LINE",
"60 730 LINE",
"40 730 LINE",
"40 0 LINE",
"60 0 LINE",
"60 671 LINE",
"64 671 LINE",
"246 250 LINE",
"246 0 LINE",
"266 0 LINE",
"266 710 LINE",
"440 710 LINE",
"440 -15 LINE SMOOTH",
"440 -147 OFFCURVE",
"402 -200 OFFCURVE",
"308 -200 CURVE SMOOTH",
"267 -200 OFFCURVE",
"230 -190 OFFCURVE",
"198 -169 CURVE",
"198 -192 LINE",
"232 -211 OFFCURVE",
"268 -220 OFFCURVE",
"308 -220 CURVE SMOOTH"
);
}
);
width = 500;
},
{
layerId = "E27A6A66-A1F8-4E1B-8224-7C0FE77551F2";
paths = (
{
closed = 1;
nodes = (
"420 -220 OFFCURVE",
"470 -158 OFFCURVE",
"470 -15 CURVE SMOOTH",
"470 730 LINE",
"218 730 LINE",
"218 454 LINE",
"214 454 LINE",
"110 730 LINE",
"30 730 LINE",
"30 0 LINE",
"110 0 LINE",
"110 526 LINE",
"114 526 LINE",
"218 250 LINE",
"218 0 LINE",
"296 0 LINE",
"296 660 LINE",
"390 660 LINE",
"390 -7 LINE SMOOTH",
"390 -107 OFFCURVE",
"363 -148 OFFCURVE",
"297 -148 CURVE SMOOTH",
"261 -148 OFFCURVE",
"219 -136 OFFCURVE",
"186 -116 CURVE",
"186 -191 LINE",
"221 -210 OFFCURVE",
"259 -220 OFFCURVE",
"305 -220 CURVE SMOOTH"
);
}
);
vertWidth = 1000;
width = 500;
},
{
layerId = "FC9CFCDA-9E80-4E73-BA51-8504D15957FA";
paths = (
{
closed = 1;
nodes = (
"426 -220 OFFCURVE",
"480 -158 OFFCURVE",
"480 -15 CURVE SMOOTH",
"480 730 LINE",
"202 730 LINE",
"201 520 LINE",
"197 520 LINE",
"140 730 LINE",
"20 730 LINE",
"20 0 LINE",
"140 0 LINE",
"140 460 LINE",
"144 460 LINE",
"202 250 LINE",
"202 0 LINE",
"320 0 LINE",
"320 610 LINE",
"360 610 LINE",
"360 0 LINE SMOOTH",
"360 -66 OFFCURVE",
"338 -94 OFFCURVE",
"286 -94 CURVE SMOOTH",
"251 -94 OFFCURVE",
"209 -81 OFFCURVE",
"175 -61 CURVE",
"175 -191 LINE",
"211 -210 OFFCURVE",
"253 -220 OFFCURVE",
"303 -220 CURVE SMOOTH"
);
}
);
vertWidth = 1000;
width = 500;
},
{
layerId = "0F1A0AC1-B8D5-4257-ADED-894CB2B827EF";
paths = (
{
closed = 1;
nodes = (
"512 -220 OFFCURVE",
"570 -158 OFFCURVE",
"570 -15 CURVE SMOOTH",
"570 730 LINE",
"245 730 LINE",
"244 520 LINE",
"240 520 LINE",
"164 730 LINE",
"30 730 LINE",
"30 0 LINE",
"164 0 LINE",
"164 460 LINE",
"168 460 LINE",
"244 250 LINE",
"244 0 LINE",
"374 0 LINE",
"374 610 LINE",
"436 610 LINE",
"436 0 LINE SMOOTH",
"436 -66 OFFCURVE",
"412 -94 OFFCURVE",
"356 -94 CURVE SMOOTH",
"319 -94 OFFCURVE",
"276 -82 OFFCURVE",
"239 -61 CURVE",
"239 -191 LINE",
"277 -210 OFFCURVE",
"323 -220 OFFCURVE",
"377 -220 CURVE SMOOTH"
);
}
);
vertWidth = 1000;
width = 600;
},
{
layerId = "72F02222-BF87-41FD-9A7E-0ABB550ED2DB";
paths = (
{
closed = 1;
nodes = (
"497 -220 OFFCURVE",
"555 -158 OFFCURVE",
"555 -15 CURVE SMOOTH",
"555 730 LINE",
"270 730 LINE",
"270 430 LINE",
"266 430 LINE",
"125 730 LINE",
"45 730 LINE",
"45 0 LINE",
"125 0 LINE",
"125 550 LINE",
"129 550 LINE",
"270 250 LINE",
"270 0 LINE",
"348 0 LINE",
"348 660 LINE",
"475 660 LINE",
"475 -7 LINE SMOOTH",
"475 -107 OFFCURVE",
"442 -148 OFFCURVE",
"362 -148 CURVE SMOOTH",
"319 -148 OFFCURVE",
"266 -136 OFFCURVE",
"226 -116 CURVE",
"226 -191 LINE",
"266 -210 OFFCURVE",
"310 -220 OFFCURVE",
"364 -220 CURVE SMOOTH"
);
}
);
vertWidth = 1000;
width = 600;
},
{
layerId = "D0C1F23C-2F9F-4D30-8C4D-098ED54EEF3D";
paths = (
{
closed = 1;
nodes = (
"488 -220 OFFCURVE",
"540 -158 OFFCURVE",
"540 -15 CURVE SMOOTH",
"540 730 LINE",
"297 730 LINE",
"297 309 LINE",
"293 309 LINE",
"82 730 LINE",
"60 730 LINE",
"60 0 LINE",
"80 0 LINE",
"80 681 LINE",
"84 681 LINE",
"297 256 LINE",
"297 0 LINE",
"317 0 LINE",
"317 710 LINE",
"520 710 LINE",
"520 -15 LINE SMOOTH",
"520 -147 OFFCURVE",
"476 -200 OFFCURVE",
"368 -200 CURVE SMOOTH",
"320 -200 OFFCURVE",
"280 -189 OFFCURVE",
"241 -169 CURVE",
"241 -192 LINE",
"280 -211 OFFCURVE",
"322 -220 OFFCURVE",
"368 -220 CURVE SMOOTH"
);
}
);
width = 600;
}
);
leftKerningGroup = H;
rightKerningGroup = U;
unicode = 01CA;
},
{
color = 10;
glyphname = Eng;
lastChange = "2021-05-05 04:42:54 +0000";
layers = (
{
layerId = "D65C9A1E-0FCA-4B2D-8EDF-9F36CA9182A1";
paths = (
{
closed = 1;
nodes = (
"390 -211 OFFCURVE",
"430 -164 OFFCURVE",
"430 -61 CURVE SMOOTH",
"430 730 LINE",
"410 730 LINE",
"410 51 LINE",
"406 51 LINE",
"92 730 LINE",
"70 730 LINE",
"70 0 LINE",
"90 0 LINE",
"90 678 LINE",
"94 678 LINE",
"420 -26 LINE",
"410 20 LINE",
"410 -61 LINE SMOOTH",
"410 -153 OFFCURVE",
"378 -191 OFFCURVE",
"300 -191 CURVE SMOOTH",
"272 -191 OFFCURVE",
"242 -186 OFFCURVE",
"217 -177 CURVE",
"217 -198 LINE",
"242 -207 OFFCURVE",
"274 -211 OFFCURVE",
"300 -211 CURVE SMOOTH"
);
}
);
width = 500;
},
{
layerId = "E27A6A66-A1F8-4E1B-8224-7C0FE77551F2";
paths = (
{
closed = 1;
nodes = (
"398 -218 OFFCURVE",
"445 -166 OFFCURVE",
"445 -39 CURVE SMOOTH",
"445 730 LINE",
"365 730 LINE",
"365 214 LINE",
"361 214 LINE",
"156 730 LINE",
"55 730 LINE",
"55 0 LINE",
"135 0 LINE",
"135 570 LINE",
"139 570 LINE",
"393 -70 LINE",
"365 53 LINE",
"365 -39 LINE SMOOTH",
"365 -118 OFFCURVE",
"339 -149 OFFCURVE",
"271 -149 CURVE SMOOTH",
"244 -149 OFFCURVE",
"216 -144 OFFCURVE",
"191 -136 CURVE",
"191 -205 LINE",
"221 -213 OFFCURVE",
"251 -218 OFFCURVE",
"286 -218 CURVE SMOOTH"
);
}
);
vertWidth = 1000;
width = 500;
},
{
layerId = "FC9CFCDA-9E80-4E73-BA51-8504D15957FA";
paths = (
{
closed = 1;
nodes = (
"407 -224 OFFCURVE",
"460 -165 OFFCURVE",
"460 -17 CURVE SMOOTH",
"460 730 LINE",
"320 730 LINE",
"320 338 LINE",
"316 338 LINE",
"206 730 LINE",
"40 730 LINE",
"40 0 LINE",
"180 0 LINE",
"180 460 LINE",
"184 460 LINE",
"367 -153 LINE",
"320 86 LINE",
"320 -17 LINE SMOOTH",
"320 -83 OFFCURVE",
"299 -107 OFFCURVE",
"243 -107 CURVE SMOOTH",
"220 -107 OFFCURVE",
"191 -103 OFFCURVE",
"165 -96 CURVE",
"165 -212 LINE",
"201 -219 OFFCURVE",
"233 -224 OFFCURVE",
"272 -224 CURVE SMOOTH"
);
}
);
width = 500;
},
{
layerId = "0F1A0AC1-B8D5-4257-ADED-894CB2B827EF";
paths = (
{
closed = 1;
nodes = (
"483 -224 OFFCURVE",
"545 -165 OFFCURVE",
"545 -17 CURVE SMOOTH",
"545 730 LINE",
"405 730 LINE",
"405 291 LINE",
"401 291 LINE",
"225 730 LINE",
"55 730 LINE",
"55 0 LINE",
"195 0 LINE",
"195 490 LINE",
"199 490 LINE",
"427 -52 LINE",
"405 86 LINE",
"405 -17 LINE SMOOTH",
"405 -83 OFFCURVE",
"377 -107 OFFCURVE",
"303 -107 CURVE SMOOTH",
"273 -107 OFFCURVE",
"235 -103 OFFCURVE",
"201 -96 CURVE",
"201 -212 LINE",
"243 -219 OFFCURVE",
"280 -224 OFFCURVE",
"326 -224 CURVE SMOOTH"
);
}
);
width = 600;
},
{
layerId = "72F02222-BF87-41FD-9A7E-0ABB550ED2DB";
paths = (
{
closed = 1;
nodes = (
"475 -218 OFFCURVE",
"530 -165 OFFCURVE",
"530 -39 CURVE SMOOTH",
"530 730 LINE",
"450 730 LINE",
"450 172 LINE",
"446 172 LINE",
"166 730 LINE",
"70 730 LINE",
"70 0 LINE",
"150 0 LINE",
"150 582 LINE",
"154 582 LINE",
"465 -37 LINE",
"448 53 LINE",
"448 -39 LINE SMOOTH",
"448 -118 OFFCURVE",
"415 -149 OFFCURVE",
"331 -149 CURVE SMOOTH",
"297 -149 OFFCURVE",
"262 -144 OFFCURVE",
"231 -136 CURVE",
"231 -205 LINE",
"266 -213 OFFCURVE",
"304 -218 OFFCURVE",
"344 -218 CURVE SMOOTH"
);
}
);
vertWidth = 1000;
width = 600;
},
{
layerId = "D0C1F23C-2F9F-4D30-8C4D-098ED54EEF3D";
paths = (
{
closed = 1;
nodes = (
"467 -211 OFFCURVE",
"515 -164 OFFCURVE",
"515 -61 CURVE SMOOTH",
"515 730 LINE",
"495 730 LINE",
"495 41 LINE",
"491 41 LINE",
"107 730 LINE",
"85 730 LINE",
"85 0 LINE",
"105 0 LINE",
"105 686 LINE",
"109 686 LINE",
"503 -21 LINE",
"491 20 LINE",
"491 -61 LINE SMOOTH",
"491 -153 OFFCURVE",
"453 -191 OFFCURVE",
"360 -191 CURVE SMOOTH",
"326 -191 OFFCURVE",
"290 -186 OFFCURVE",
"261 -177 CURVE",
"261 -198 LINE",
"290 -207 OFFCURVE",
"329 -211 OFFCURVE",
"360 -211 CURVE SMOOTH"
);
}
);
width = 600;
}
);
leftKerningGroup = H;
rightKerningGroup = H;
unicode = 014A;
},
{
color = 10;
glyphname = Nj;
lastChange = "2021-05-05 04:42:54 +0000";
layers = (
{
layerId = "D65C9A1E-0FCA-4B2D-8EDF-9F36CA9182A1";
paths = (
{
closed = 1;
nodes = (
"240 -220 LINE",
"385 -220 OFFCURVE",
"460 -131 OFFCURVE",
"460 41 CURVE SMOOTH",
"460 520 LINE",
"266 520 LINE",
"266 730 LINE",
"246 730 LINE",
"246 309 LINE",
"242 309 LINE",
"60 730 LINE",
"40 730 LINE",
"40 0 LINE",
"60 0 LINE",
"60 671 LINE",
"64 671 LINE",
"246 250 LINE",
"246 0 LINE",
"266 0 LINE",
"266 500 LINE",
"440 500 LINE",
"440 41 LINE SMOOTH",
"440 -119 OFFCURVE",
"373 -200 OFFCURVE",
"240 -200 CURVE"
);
},
{
closed = 1;
nodes = (
"463 658 OFFCURVE",
"480 674 OFFCURVE",
"480 699 CURVE SMOOTH",
"480 724 OFFCURVE",
"463 740 OFFCURVE",
"438 740 CURVE SMOOTH",
"413 740 OFFCURVE",
"396 724 OFFCURVE",
"396 699 CURVE SMOOTH",
"396 674 OFFCURVE",
"413 658 OFFCURVE",
"438 658 CURVE SMOOTH"
);
}
);
width = 500;
},
{
layerId = "E27A6A66-A1F8-4E1B-8224-7C0FE77551F2";
paths = (
{
closed = 1;
nodes = (
"231 -220 LINE",
"392 -220 OFFCURVE",
"470 -134 OFFCURVE",
"470 43 CURVE SMOOTH",
"470 520 LINE",
"296 520 LINE",
"296 730 LINE",
"218 730 LINE",
"218 454 LINE",
"214 454 LINE",
"110 730 LINE",
"30 730 LINE",
"30 0 LINE",
"110 0 LINE",
"110 526 LINE",
"114 526 LINE",
"218 250 LINE",
"218 0 LINE",
"296 0 LINE",
"296 451 LINE",
"392 451 LINE",
"392 37 LINE SMOOTH",
"392 -91 OFFCURVE",
"341 -149 OFFCURVE",
"231 -149 CURVE"
);
},
{
closed = 1;
nodes = (
"457 614 OFFCURVE",
"485 640 OFFCURVE",
"485 682 CURVE SMOOTH",
"485 724 OFFCURVE",
"457 750 OFFCURVE",
"414 750 CURVE SMOOTH",
"371 750 OFFCURVE",
"343 724 OFFCURVE",
"343 682 CURVE SMOOTH",
"343 640 OFFCURVE",
"371 614 OFFCURVE",
"414 614 CURVE SMOOTH"
);
}
);
vertWidth = 1000;
width = 500;
},
{
layerId = "FC9CFCDA-9E80-4E73-BA51-8504D15957FA";
paths = (
{
closed = 1;
nodes = (
"223 -220 LINE",
"399 -220 OFFCURVE",
"480 -137 OFFCURVE",
"480 45 CURVE SMOOTH",
"480 520 LINE",
"320 520 LINE",
"320 730 LINE",
"202 730 LINE",
"201 520 LINE",
"197 520 LINE",
"140 730 LINE",
"20 730 LINE",
"20 0 LINE",
"140 0 LINE",
"140 460 LINE",
"144 460 LINE",
"202 250 LINE",
"202 0 LINE",
"320 0 LINE",
"320 402 LINE",
"362 402 LINE",
"362 34 LINE SMOOTH",
"362 -61 OFFCURVE",
"322 -98 OFFCURVE",
"223 -98 CURVE"
);
},
{
closed = 1;
nodes = (
"462 580 OFFCURVE",
"490 614 OFFCURVE",
"490 670 CURVE SMOOTH",
"490 726 OFFCURVE",
"462 760 OFFCURVE",
"416 760 CURVE SMOOTH",
"370 760 OFFCURVE",
"342 726 OFFCURVE",
"342 670 CURVE SMOOTH",
"342 614 OFFCURVE",
"370 580 OFFCURVE",
"416 580 CURVE SMOOTH"
);
}
);
vertWidth = 1000;
width = 500;
},
{
layerId = "0F1A0AC1-B8D5-4257-ADED-894CB2B827EF";
paths = (
{
closed = 1;
nodes = (
"269 -220 LINE",
"475 -220 OFFCURVE",
"570 -137 OFFCURVE",
"570 45 CURVE SMOOTH",
"570 520 LINE",
"382 520 LINE",
"382 730 LINE",
"245 730 LINE",
"244 520 LINE",
"240 520 LINE",
"164 730 LINE",
"30 730 LINE",
"30 0 LINE",
"164 0 LINE",
"164 460 LINE",
"168 460 LINE",
"244 250 LINE",
"244 0 LINE",
"374 0 LINE",
"374 402 LINE",
"440 402 LINE",
"440 34 LINE SMOOTH",
"440 -61 OFFCURVE",
"392 -98 OFFCURVE",
"269 -98 CURVE"
);
},
{
closed = 1;
nodes = (
"552 580 OFFCURVE",
"585 614 OFFCURVE",
"585 670 CURVE SMOOTH",
"585 726 OFFCURVE",
"552 760 OFFCURVE",
"497 760 CURVE SMOOTH",
"443 760 OFFCURVE",
"409 726 OFFCURVE",
"409 670 CURVE SMOOTH",
"409 614 OFFCURVE",
"443 580 OFFCURVE",
"497 580 CURVE SMOOTH"
);
}
);
vertWidth = 1000;
width = 600;
},
{
layerId = "72F02222-BF87-41FD-9A7E-0ABB550ED2DB";
paths = (
{
closed = 1;
nodes = (
"279 -220 LINE",
"465 -220 OFFCURVE",
"555 -134 OFFCURVE",
"555 43 CURVE SMOOTH",
"555 520 LINE",
"348 520 LINE",
"348 730 LINE",
"270 730 LINE",
"270 430 LINE",
"266 430 LINE",
"125 730 LINE",
"45 730 LINE",
"45 0 LINE",
"125 0 LINE",
"125 550 LINE",
"129 550 LINE",
"270 250 LINE",
"270 0 LINE",
"348 0 LINE",
"348 451 LINE",
"477 451 LINE",
"477 37 LINE SMOOTH",
"477 -90 OFFCURVE",
"415 -149 OFFCURVE",
"279 -149 CURVE"
);
},
{
closed = 1;
nodes = (
"542 614 OFFCURVE",
"570 640 OFFCURVE",
"570 682 CURVE SMOOTH",
"570 724 OFFCURVE",
"542 750 OFFCURVE",
"499 750 CURVE SMOOTH",
"456 750 OFFCURVE",
"428 724 OFFCURVE",
"428 682 CURVE SMOOTH",
"428 640 OFFCURVE",
"456 614 OFFCURVE",
"499 614 CURVE SMOOTH"
);
}
);
vertWidth = 1000;
width = 600;
},
{
layerId = "D0C1F23C-2F9F-4D30-8C4D-098ED54EEF3D";
paths = (
{
closed = 1;
nodes = (
"289 -220 LINE",
"454 -220 OFFCURVE",
"540 -131 OFFCURVE",
"540 41 CURVE SMOOTH",
"540 520 LINE",
"317 520 LINE",
"317 730 LINE",
"297 730 LINE",
"297 309 LINE",
"293 309 LINE",
"82 730 LINE",
"60 730 LINE",
"60 0 LINE",
"80 0 LINE",
"80 681 LINE",
"84 681 LINE",
"297 256 LINE",
"297 0 LINE",
"317 0 LINE",
"317 500 LINE",
"520 500 LINE",
"520 41 LINE SMOOTH",
"520 -120 OFFCURVE",
"443 -200 OFFCURVE",
"289 -200 CURVE"
);
},
{
closed = 1;
nodes = (
"543 658 OFFCURVE",
"560 674 OFFCURVE",
"560 699 CURVE SMOOTH",
"560 724 OFFCURVE",
"543 740 OFFCURVE",
"518 740 CURVE SMOOTH",
"493 740 OFFCURVE",
"476 724 OFFCURVE",
"476 699 CURVE SMOOTH",
"476 674 OFFCURVE",
"493 658 OFFCURVE",
"518 658 CURVE SMOOTH"
);
}
);
width = 600;
}
);
leftKerningGroup = H;
rightKerningGroup = g;
unicode = 01CB;
},
{
color = 6;
glyphname = O;
lastChange = "2021-05-05 04:42:54 +0000";
layers = (
{
anchors = (
{
name = bottom;
position = "{250, 0}";
},
{
name = center;
position = "{250, 365}";
},
{
name = ogonek;
position = "{290, 0}";
},
{
name = top;
position = "{250, 730}";
},
{
name = topleft;
position = "{20, 730}";
},
{
name = topright;
position = "{338, 736}";
}
);
layerId = "D65C9A1E-0FCA-4B2D-8EDF-9F36CA9182A1";
paths = (
{
closed = 1;
nodes = (
"393 -10 OFFCURVE",
"445 82 OFFCURVE",
"445 335 CURVE SMOOTH",
"445 395 LINE SMOOTH",
"445 648 OFFCURVE",
"393 740 OFFCURVE",
"250 740 CURVE SMOOTH",
"107 740 OFFCURVE",
"55 648 OFFCURVE",
"55 395 CURVE SMOOTH",
"55 335 LINE SMOOTH",
"55 82 OFFCURVE",
"107 -10 OFFCURVE",
"250 -10 CURVE SMOOTH"
);
},
{
closed = 1;
nodes = (
"120 10 OFFCURVE",
"75 93 OFFCURVE",
"75 335 CURVE SMOOTH",
"75 395 LINE SMOOTH",
"75 637 OFFCURVE",
"120 720 OFFCURVE",
"250 720 CURVE SMOOTH",
"380 720 OFFCURVE",
"425 637 OFFCURVE",
"425 395 CURVE SMOOTH",
"425 335 LINE SMOOTH",
"425 93 OFFCURVE",
"380 10 OFFCURVE",
"250 10 CURVE SMOOTH"
);
}
);
width = 500;
},
{
anchors = (
{
name = bottom;
position = "{250, 0}";
},
{
name = center;
position = "{250, 365}";
},
{
name = ogonek;
position = "{279, 0}";
},
{
name = top;
position = "{250, 730}";
},
{
name = topleft;
position = "{20, 730}";
},
{
name = topright;
position = "{338, 736}";
}
);
layerId = "E27A6A66-A1F8-4E1B-8224-7C0FE77551F2";
paths = (
{
closed = 1;
nodes = (
"404 -10 OFFCURVE",
"460 82 OFFCURVE",
"460 335 CURVE SMOOTH",
"460 395 LINE SMOOTH",
"460 648 OFFCURVE",
"404 740 OFFCURVE",
"250 740 CURVE SMOOTH",
"96 740 OFFCURVE",
"40 648 OFFCURVE",
"40 395 CURVE SMOOTH",
"40 335 LINE SMOOTH",
"40 82 OFFCURVE",
"96 -10 OFFCURVE",
"250 -10 CURVE SMOOTH"
);
},
{
closed = 1;
nodes = (
"151 62 OFFCURVE",
"122 125 OFFCURVE",
"122 340 CURVE SMOOTH",
"122 390 LINE SMOOTH",
"122 605 OFFCURVE",
"151 668 OFFCURVE",
"250 668 CURVE SMOOTH",
"349 668 OFFCURVE",
"378 605 OFFCURVE",
"378 390 CURVE SMOOTH",
"378 340 LINE SMOOTH",
"378 125 OFFCURVE",
"349 62 OFFCURVE",
"250 62 CURVE SMOOTH"
);
}
);
vertWidth = 1000;
width = 500;
},
{
anchors = (
{
name = bottom;
position = "{250, 0}";
},
{
name = center;
position = "{250, 365}";
},
{
name = ogonek;
position = "{268, 0}";
},
{
name = top;
position = "{250, 730}";
},
{
name = topleft;
position = "{20, 730}";
},
{
name = topright;
position = "{338, 736}";
}
);
layerId = "FC9CFCDA-9E80-4E73-BA51-8504D15957FA";
paths = (
{
closed = 1;
nodes = (
"415 -10 OFFCURVE",
"475 82 OFFCURVE",
"475 335 CURVE SMOOTH",
"475 395 LINE SMOOTH",
"475 648 OFFCURVE",
"415 740 OFFCURVE",
"250 740 CURVE SMOOTH",
"85 740 OFFCURVE",
"25 648 OFFCURVE",
"25 395 CURVE SMOOTH",
"25 335 LINE SMOOTH",
"25 82 OFFCURVE",
"85 -10 OFFCURVE",
"250 -10 CURVE SMOOTH"
);
},
{
closed = 1;
nodes = (
"183 114 OFFCURVE",
"169 154 OFFCURVE",
"169 345 CURVE SMOOTH",
"169 385 LINE SMOOTH",
"169 576 OFFCURVE",
"183 616 OFFCURVE",
"250 616 CURVE SMOOTH",
"317 616 OFFCURVE",
"331 576 OFFCURVE",
"331 385 CURVE SMOOTH",
"331 345 LINE SMOOTH",
"331 154 OFFCURVE",
"317 114 OFFCURVE",
"250 114 CURVE SMOOTH"
);
}
);
vertWidth = 1000;
width = 500;
},
{
anchors = (
{
name = bottom;
position = "{300, 0}";
},
{
name = center;
position = "{300, 365}";
},
{
name = ogonek;
position = "{318, 0}";
},
{
name = top;
position = "{300, 730}";
},
{
name = topleft;
position = "{70, 730}";
},
{
name = topright;
position = "{378, 736}";
}
);
layerId = "0F1A0AC1-B8D5-4257-ADED-894CB2B827EF";
paths = (
{
closed = 1;
nodes = (
"494 -10 OFFCURVE",
"570 87 OFFCURVE",
"570 335 CURVE SMOOTH",
"570 395 LINE SMOOTH",
"570 643 OFFCURVE",
"494 740 OFFCURVE",
"300 740 CURVE SMOOTH",
"106 740 OFFCURVE",
"30 643 OFFCURVE",
"30 395 CURVE SMOOTH",
"30 335 LINE SMOOTH",
"30 87 OFFCURVE",
"106 -10 OFFCURVE",
"300 -10 CURVE SMOOTH"
);
},
{
closed = 1;
nodes = (
"199 114 OFFCURVE",
"174 160 OFFCURVE",
"174 345 CURVE SMOOTH",
"174 385 LINE SMOOTH",
"174 570 OFFCURVE",
"199 616 OFFCURVE",
"300 616 CURVE SMOOTH",
"401 616 OFFCURVE",
"426 570 OFFCURVE",
"426 385 CURVE SMOOTH",
"426 345 LINE SMOOTH",
"426 160 OFFCURVE",
"401 114 OFFCURVE",
"300 114 CURVE SMOOTH"
);
}
);
vertWidth = 1000;
width = 600;
},
{
anchors = (
{
name = bottom;
position = "{300, 0}";
},
{
name = center;
position = "{300, 365}";
},
{
name = ogonek;
position = "{329, 0}";
},
{
name = top;
position = "{300, 730}";
},
{
name = topleft;
position = "{70, 730}";
},
{
name = topright;
position = "{378, 736}";
}
);
layerId = "72F02222-BF87-41FD-9A7E-0ABB550ED2DB";
paths = (
{
closed = 1;
nodes = (
"483 -10 OFFCURVE",
"555 87 OFFCURVE",
"555 335 CURVE SMOOTH",
"555 395 LINE SMOOTH",
"555 643 OFFCURVE",
"483 740 OFFCURVE",
"300 740 CURVE SMOOTH",
"117 740 OFFCURVE",
"45 643 OFFCURVE",
"45 395 CURVE SMOOTH",
"45 335 LINE SMOOTH",
"45 87 OFFCURVE",
"117 -10 OFFCURVE",
"300 -10 CURVE SMOOTH"
);
},
{
closed = 1;
nodes = (
"170 62 OFFCURVE",
"127 131 OFFCURVE",
"127 340 CURVE SMOOTH",
"127 390 LINE SMOOTH",
"127 599 OFFCURVE",
"170 668 OFFCURVE",
"300 668 CURVE SMOOTH",
"430 668 OFFCURVE",
"473 599 OFFCURVE",
"473 390 CURVE SMOOTH",
"473 340 LINE SMOOTH",
"473 131 OFFCURVE",
"430 62 OFFCURVE",
"300 62 CURVE SMOOTH"
);
}
);
vertWidth = 1000;
width = 600;
},
{
anchors = (
{
name = bottom;
position = "{300, 0}";
},
{
name = center;
position = "{300, 365}";
},
{
name = ogonek;
position = "{340, 0}";
},
{
name = top;
position = "{300, 730}";
},
{
name = topleft;
position = "{70, 730}";
},
{
name = topright;
position = "{378, 736}";
}
);
layerId = "D0C1F23C-2F9F-4D30-8C4D-098ED54EEF3D";
paths = (
{
closed = 1;
nodes = (
"472 -10 OFFCURVE",
"540 88 OFFCURVE",
"540 335 CURVE SMOOTH",
"540 395 LINE SMOOTH",
"540 642 OFFCURVE",
"472 740 OFFCURVE",
"300 740 CURVE SMOOTH",
"128 740 OFFCURVE",
"60 642 OFFCURVE",
"60 395 CURVE SMOOTH",
"60 335 LINE SMOOTH",
"60 88 OFFCURVE",
"128 -10 OFFCURVE",
"300 -10 CURVE SMOOTH"
);
},
{
closed = 1;
nodes = (
"140 10 OFFCURVE",
"80 99 OFFCURVE",
"80 335 CURVE SMOOTH",
"80 395 LINE SMOOTH",
"80 631 OFFCURVE",
"140 720 OFFCURVE",
"300 720 CURVE SMOOTH",
"460 720 OFFCURVE",
"520 631 OFFCURVE",
"520 395 CURVE SMOOTH",
"520 335 LINE SMOOTH",
"520 99 OFFCURVE",
"460 10 OFFCURVE",
"300 10 CURVE SMOOTH"
);
}
);
width = 600;
}
);
leftKerningGroup = O;
rightKerningGroup = O;
rightMetricsKey = "=|";
unicode = 004F;
},
{
color = 10;
glyphname = Ohorn;
lastChange = "2021-05-05 04:42:54 +0000";
layers = (
{
components = (
{
name = O;
}
);
layerId = "D65C9A1E-0FCA-4B2D-8EDF-9F36CA9182A1";
paths = (
{
closed = 1;
nodes = (
"425 698 OFFCURVE",
"460 726 OFFCURVE",
"460 771 CURVE SMOOTH",
"460 785 OFFCURVE",
"457 799 OFFCURVE",
"451 813 CURVE",
"430 813 LINE",
"435 803 OFFCURVE",
"439 782 OFFCURVE",
"439 771 CURVE SMOOTH",
"439 736 OFFCURVE",
"412 716 OFFCURVE",
"365 716 CURVE SMOOTH",
"343 716 LINE",
"343 699 LINE",
"351 698 OFFCURVE",
"357 698 OFFCURVE",
"363 698 CURVE SMOOTH"
);
}
);
width = 500;
},
{
components = (
{
name = O;
}
);
layerId = "E27A6A66-A1F8-4E1B-8224-7C0FE77551F2";
paths = (
{
closed = 1;
nodes = (
"451 657 OFFCURVE",
"500 697 OFFCURVE",
"500 767 CURVE SMOOTH",
"500 785 OFFCURVE",
"497 805 OFFCURVE",
"490 823 CURVE",
"415 823 LINE",
"419 813 OFFCURVE",
"423 793 OFFCURVE",
"423 782 CURVE SMOOTH",
"423 747 OFFCURVE",
"401 726 OFFCURVE",
"365 726 CURVE SMOOTH",
"308 726 LINE",
"295 663 LINE",
"319 659 OFFCURVE",
"340 657 OFFCURVE",
"363 657 CURVE SMOOTH"
);
}
);
width = 500;
},
{
components = (
{
name = O;
}
);
layerId = "FC9CFCDA-9E80-4E73-BA51-8504D15957FA";
paths = (
{
closed = 1;
nodes = (
"490 626 OFFCURVE",
"550 674 OFFCURVE",
"550 758 CURVE SMOOTH",
"550 779 OFFCURVE",
"547 803 OFFCURVE",
"540 824 CURVE",
"409 824 LINE",
"413 814 OFFCURVE",
"417 794 OFFCURVE",
"417 783 CURVE SMOOTH",
"417 754 OFFCURVE",
"398 736 OFFCURVE",
"365 736 CURVE SMOOTH",
"298 736 LINE",
"285 632 LINE",
"319 628 OFFCURVE",
"351 626 OFFCURVE",
"383 626 CURVE SMOOTH"
);
}
);
width = 500;
},
{
components = (
{
name = O;
}
);
layerId = "0F1A0AC1-B8D5-4257-ADED-894CB2B827EF";
paths = (
{
closed = 1;
nodes = (
"560 626 OFFCURVE",
"620 674 OFFCURVE",
"620 758 CURVE SMOOTH",
"620 779 OFFCURVE",
"617 803 OFFCURVE",
"610 824 CURVE",
"479 824 LINE",
"483 814 OFFCURVE",
"487 794 OFFCURVE",
"487 783 CURVE SMOOTH",
"487 754 OFFCURVE",
"468 736 OFFCURVE",
"435 736 CURVE SMOOTH",
"348 736 LINE",
"335 632 LINE",
"376 628 OFFCURVE",
"414 626 OFFCURVE",
"453 626 CURVE SMOOTH"
);
}
);
width = 600;
},
{
components = (
{
name = O;
}
);
layerId = "72F02222-BF87-41FD-9A7E-0ABB550ED2DB";
paths = (
{
closed = 1;
nodes = (
"521 657 OFFCURVE",
"570 697 OFFCURVE",
"570 767 CURVE SMOOTH",
"570 785 OFFCURVE",
"567 805 OFFCURVE",
"560 823 CURVE",
"485 823 LINE",
"489 813 OFFCURVE",
"493 793 OFFCURVE",
"493 782 CURVE SMOOTH",
"493 747 OFFCURVE",
"471 726 OFFCURVE",
"435 726 CURVE SMOOTH",
"378 726 LINE",
"365 663 LINE",
"389 659 OFFCURVE",
"410 657 OFFCURVE",
"433 657 CURVE SMOOTH"
);
}
);
width = 600;
},
{
components = (
{
name = O;
}
);
layerId = "D0C1F23C-2F9F-4D30-8C4D-098ED54EEF3D";
paths = (
{
closed = 1;
nodes = (
"500 698 OFFCURVE",
"535 726 OFFCURVE",
"535 771 CURVE SMOOTH",
"535 785 OFFCURVE",
"532 799 OFFCURVE",
"526 813 CURVE",
"505 813 LINE",
"510 803 OFFCURVE",
"514 782 OFFCURVE",
"514 771 CURVE SMOOTH",
"514 736 OFFCURVE",
"487 716 OFFCURVE",
"440 716 CURVE SMOOTH",
"418 716 LINE",
"418 699 LINE",
"426 698 OFFCURVE",
"432 698 OFFCURVE",
"438 698 CURVE SMOOTH"
);
}
);
width = 600;
}
);
leftKerningGroup = O;
rightKerningGroup = O;
unicode = 01A0;
},
{
color = 10;
glyphname = Oogonek;
lastChange = "2021-05-05 04:42:54 +0000";
layers = (
{
components = (
{
name = O;
}
);
layerId = "D65C9A1E-0FCA-4B2D-8EDF-9F36CA9182A1";
paths = (
{
closed = 1;
nodes = (
"275 -220 OFFCURVE",
"296 -217 OFFCURVE",
"313 -212 CURVE",
"313 -190 LINE",
"297 -196 OFFCURVE",
"275 -200 OFFCURVE",
"255 -200 CURVE SMOOTH",
"220 -200 OFFCURVE",
"178 -191 OFFCURVE",
"178 -145 CURVE SMOOTH",
"178 -97 OFFCURVE",
"228 -57 OFFCURVE",
"320 0 CURVE",
"293.074 2.762 LINE",
"210.091 -48.262 OFFCURVE",
"158 -89.528 OFFCURVE",
"158 -145 CURVE SMOOTH",
"158 -173 OFFCURVE",
"170 -220 OFFCURVE",
"255 -220 CURVE SMOOTH"
);
}
);
width = 500;
},
{
components = (
{
name = O;
}
);
layerId = "E27A6A66-A1F8-4E1B-8224-7C0FE77551F2";
paths = (
{
closed = 1;
nodes = (
"286 -218 OFFCURVE",
"305 -216 OFFCURVE",
"322 -211 CURVE",
"322 -145 LINE",
"307 -150 OFFCURVE",
"290 -153 OFFCURVE",
"271 -153 CURVE SMOOTH",
"244 -153 OFFCURVE",
"224 -144 OFFCURVE",
"224 -117 CURVE SMOOTH",
"224 -81 OFFCURVE",
"261 -39 OFFCURVE",
"327 0 CURVE",
"256.913 20.903 LINE",
"187.594 -23.983 OFFCURVE",
"150 -76.239 OFFCURVE",
"150 -130 CURVE SMOOTH",
"150 -186 OFFCURVE",
"192 -218 OFFCURVE",
"265 -218 CURVE SMOOTH"
);
}
);
width = 500;
},
{
components = (
{
name = O;
}
);
layerId = "FC9CFCDA-9E80-4E73-BA51-8504D15957FA";
paths = (
{
closed = 1;
nodes = (
"306 -218 OFFCURVE",
"324 -217 OFFCURVE",
"340 -216 CURVE",
"340 -113 LINE",
"326 -114 OFFCURVE",
"311 -115 OFFCURVE",
"296 -115 CURVE SMOOTH",
"268 -115 OFFCURVE",
"253 -103 OFFCURVE",
"253 -81 CURVE SMOOTH",
"253 -54 OFFCURVE",
"286 -25 OFFCURVE",
"344 5 CURVE",
"217.3 33.764 LINE",
"156.396 -10.891 OFFCURVE",
"127 -53.506 OFFCURVE",
"127 -102 CURVE SMOOTH",
"127 -176 OFFCURVE",
"185 -218 OFFCURVE",
"286 -218 CURVE SMOOTH"
);
}
);
width = 500;
},
{
components = (
{
name = O;
}
);
layerId = "0F1A0AC1-B8D5-4257-ADED-894CB2B827EF";
paths = (
{
closed = 1;
nodes = (
"360 -218 OFFCURVE",
"378 -217 OFFCURVE",
"394 -216 CURVE",
"394 -113 LINE",
"380 -114 OFFCURVE",
"365 -115 OFFCURVE",
"350 -115 CURVE SMOOTH",
"322 -115 OFFCURVE",
"307 -103 OFFCURVE",
"307 -81 CURVE SMOOTH",
"307 -54 OFFCURVE",
"340 -25 OFFCURVE",
"398 5 CURVE",
"271.3 33.764 LINE",
"210.396 -10.891 OFFCURVE",
"181 -53.506 OFFCURVE",
"181 -102 CURVE SMOOTH",
"181 -176 OFFCURVE",
"239 -218 OFFCURVE",
"340 -218 CURVE SMOOTH"
);
}
);
width = 600;
},
{
components = (
{
name = O;
}
);
layerId = "72F02222-BF87-41FD-9A7E-0ABB550ED2DB";
paths = (
{
closed = 1;
nodes = (
"333 -218 OFFCURVE",
"352 -216 OFFCURVE",
"369 -211 CURVE",
"369 -145 LINE",
"354 -150 OFFCURVE",
"337 -153 OFFCURVE",
"318 -153 CURVE SMOOTH",
"291 -153 OFFCURVE",
"271 -144 OFFCURVE",
"271 -117 CURVE SMOOTH",
"271 -81 OFFCURVE",
"308 -39 OFFCURVE",
"374 0 CURVE",
"303.913 20.903 LINE",
"234.594 -23.983 OFFCURVE",
"197 -76.239 OFFCURVE",
"197 -130 CURVE SMOOTH",
"197 -186 OFFCURVE",
"239 -218 OFFCURVE",
"312 -218 CURVE SMOOTH"
);
}
);
width = 600;
},
{
components = (
{
name = O;
}
);
layerId = "D0C1F23C-2F9F-4D30-8C4D-098ED54EEF3D";
paths = (
{
closed = 1;
nodes = (
"325 -220 OFFCURVE",
"346 -217 OFFCURVE",
"363 -212 CURVE",
"363 -190 LINE",
"347 -196 OFFCURVE",
"325 -200 OFFCURVE",
"305 -200 CURVE SMOOTH",
"270 -200 OFFCURVE",
"228 -191 OFFCURVE",
"228 -145 CURVE SMOOTH",
"228 -97 OFFCURVE",
"278 -57 OFFCURVE",
"370 0 CURVE",
"344.648 3.728 LINE",
"260.75 -47.742 OFFCURVE",
"208 -89.178 OFFCURVE",
"208 -145 CURVE SMOOTH",
"208 -173 OFFCURVE",
"220 -220 OFFCURVE",
"305 -220 CURVE SMOOTH"
);
}
);
width = 600;
}
);
leftKerningGroup = O;
rightKerningGroup = O;
unicode = 01EA;
},
{
color = 10;
glyphname = Oslash;
lastChange = "2021-05-05 04:42:54 +0000";
layers = (
{
components = (
{
name = O;
}
);
layerId = "D65C9A1E-0FCA-4B2D-8EDF-9F36CA9182A1";
paths = (
{
closed = 1;
nodes = (
"86 -10 LINE",
"436 740 LINE",
"414 740 LINE",
"64 -10 LINE"
);
}
);
width = 500;
},
{
components = (
{
alignment = -1;
name = O;
}
);
layerId = "E27A6A66-A1F8-4E1B-8224-7C0FE77551F2";
paths = (
{
closed = 1;
nodes = (
"112 -10 LINE",
"462 740 LINE",
"388 740 LINE",
"38 -10 LINE"
);
}
);
vertWidth = 1000;
width = 500;
},
{
components = (
{
name = O;
}
);
layerId = "FC9CFCDA-9E80-4E73-BA51-8504D15957FA";
paths = (
{
closed = 1;
nodes = (
"126 -10 LINE",
"476 740 LINE",
"374 740 LINE",
"24 -10 LINE"
);
}
);
width = 500;
},
{
components = (
{
name = O;
}
);
layerId = "0F1A0AC1-B8D5-4257-ADED-894CB2B827EF";
paths = (
{
closed = 1;
nodes = (
"134 -10 LINE",
"576 740 LINE",
"466 740 LINE",
"24 -10 LINE"
);
}
);
width = 600;
},
{
components = (
{
alignment = -1;
name = O;
}
);
layerId = "72F02222-BF87-41FD-9A7E-0ABB550ED2DB";
paths = (
{
closed = 1;
nodes = (
"116 -10 LINE",
"562 740 LINE",
"484 740 LINE",
"38 -10 LINE"
);
}
);
vertWidth = 1000;
width = 600;
},
{
components = (
{
name = O;
}
);
layerId = "D0C1F23C-2F9F-4D30-8C4D-098ED54EEF3D";
paths = (
{
closed = 1;
nodes = (
"87 -10 LINE",
"536 740 LINE",
"513 740 LINE",
"64 -10 LINE"
);
}
);
width = 600;
}
);
leftKerningGroup = O;
rightKerningGroup = O;
unicode = 00D8;
},
{
color = 10;
glyphname = OE;
lastChange = "2021-05-05 04:42:54 +0000";
layers = (
{
layerId = "D65C9A1E-0FCA-4B2D-8EDF-9F36CA9182A1";
paths = (
{
closed = 1;
nodes = (
"223 -10 OFFCURVE",
"247 -5 OFFCURVE",
"269 6 CURVE",
"260 24 LINE",
"241 14 OFFCURVE",
"218 10 OFFCURVE",
"193 10 CURVE SMOOTH",
"81 10 OFFCURVE",
"40 91 OFFCURVE",
"40 335 CURVE SMOOTH",
"40 395 LINE SMOOTH",
"40 639 OFFCURVE",
"81 720 OFFCURVE",
"193 720 CURVE SMOOTH",
"218 720 OFFCURVE",
"241 716 OFFCURVE",
"260 706 CURVE",
"269 724 LINE",
"247 735 OFFCURVE",
"223 740 OFFCURVE",
"193 740 CURVE SMOOTH",
"66 740 OFFCURVE",
"20 648 OFFCURVE",
"20 395 CURVE SMOOTH",
"20 335 LINE SMOOTH",
"20 82 OFFCURVE",
"66 -10 OFFCURVE",
"193 -10 CURVE SMOOTH"
);
},
{
closed = 1;
nodes = (
"480 0 LINE",
"480 20 LINE",
"274 20 LINE",
"274 376 LINE",
"471 376 LINE",
"471 396 LINE",
"274 396 LINE",
"274 710 LINE",
"480 710 LINE",
"480 730 LINE",
"254 730 LINE",
"254 0 LINE"
);
}
);
width = 500;
},
{
layerId = "E27A6A66-A1F8-4E1B-8224-7C0FE77551F2";
paths = (
{
closed = 1;
nodes = (
"243 -10 OFFCURVE",
"272 10 OFFCURVE",
"295 64 CURVE",
"245 88 LINE",
"232 69 OFFCURVE",
"218 62 OFFCURVE",
"194 62 CURVE SMOOTH",
"120 62 OFFCURVE",
"97 127 OFFCURVE",
"97 340 CURVE SMOOTH",
"97 390 LINE SMOOTH",
"97 603 OFFCURVE",
"120 668 OFFCURVE",
"194 668 CURVE SMOOTH",
"215 668 OFFCURVE",
"229 661 OFFCURVE",
"245 642 CURVE",
"295 666 LINE",
"272 720 OFFCURVE",
"243 740 OFFCURVE",
"185 740 CURVE SMOOTH",
"60 740 OFFCURVE",
"14.991 648 OFFCURVE",
"14.991 395 CURVE SMOOTH",
"14.991 335 LINE SMOOTH",
"14.991 82 OFFCURVE",
"60 -10 OFFCURVE",
"185 -10 CURVE SMOOTH"
);
},
{
closed = 1;
nodes = (
"485.009 0 LINE",
"485 70 LINE",
"321 70 LINE",
"321 351 LINE",
"477 351 LINE",
"477 421 LINE",
"321 421 LINE",
"321 660 LINE",
"485 660 LINE",
"485.009 730 LINE",
"241 730 LINE",
"241 0 LINE"
);
}
);
vertWidth = 1000;
width = 500;
},
{
layerId = "FC9CFCDA-9E80-4E73-BA51-8504D15957FA";
paths = (
{
closed = 1;
nodes = (
"257 -10 OFFCURVE",
"298 28 OFFCURVE",
"320 122 CURVE",
"231 152 LINE",
"224 125 OFFCURVE",
"212 114 OFFCURVE",
"192 114 CURVE SMOOTH",
"153 114 OFFCURVE",
"144 156 OFFCURVE",
"144 345 CURVE SMOOTH",
"144 385 LINE SMOOTH",
"144 574 OFFCURVE",
"153 616 OFFCURVE",
"192 616 CURVE SMOOTH",
"212 616 OFFCURVE",
"224 605 OFFCURVE",
"231 578 CURVE",
"320 608 LINE",
"298 702 OFFCURVE",
"257 740 OFFCURVE",
"178 740 CURVE SMOOTH",
"55 740 OFFCURVE",
"10 648 OFFCURVE",
"10 395 CURVE SMOOTH",
"10 335 LINE SMOOTH",
"10 82 OFFCURVE",
"55 -10 OFFCURVE",
"178 -10 CURVE SMOOTH"
);
},
{
closed = 1;
nodes = (
"490 0 LINE",
"490 118 LINE",
"360 118 LINE",
"360 328 LINE",
"483 328 LINE",
"483 444 LINE",
"360 444 LINE",
"360 612 LINE",
"490 612 LINE",
"490 730 LINE",
"228 730 LINE",
"228 0 LINE"
);
}
);
vertWidth = 1000;
width = 500;
},
{
layerId = "0F1A0AC1-B8D5-4257-ADED-894CB2B827EF";
paths = (
{
closed = 1;
nodes = (
"318 -10 OFFCURVE",
"368 28 OFFCURVE",
"395 122 CURVE",
"290 152 LINE",
"278 127 OFFCURVE",
"254 114 OFFCURVE",
"221 114 CURVE SMOOTH",
"168 114 OFFCURVE",
"159 149 OFFCURVE",
"159 345 CURVE SMOOTH",
"159 385 LINE SMOOTH",
"159 581 OFFCURVE",
"168 616 OFFCURVE",
"221 616 CURVE SMOOTH",
"254 616 OFFCURVE",
"278 603 OFFCURVE",
"290 578 CURVE",
"395 608 LINE",
"368 702 OFFCURVE",
"318 740 OFFCURVE",
"221 740 CURVE SMOOTH",
"70 740 OFFCURVE",
"15 648 OFFCURVE",
"15 395 CURVE SMOOTH",
"15 335 LINE SMOOTH",
"15 82 OFFCURVE",
"70 -10 OFFCURVE",
"221 -10 CURVE SMOOTH"
);
},
{
closed = 1;
nodes = (
"585 0 LINE",
"585 118 LINE",
"421 118 LINE",
"421 328 LINE",
"577 328 LINE",
"577 444 LINE",
"421 444 LINE",
"421 612 LINE",
"585 612 LINE",
"585 730 LINE",
"281 730 LINE",
"281 0 LINE"
);
}
);
vertWidth = 1000;
width = 600;
},
{
layerId = "72F02222-BF87-41FD-9A7E-0ABB550ED2DB";
paths = (
{
closed = 1;
nodes = (
"302 -10 OFFCURVE",
"339 11 OFFCURVE",
"365 64 CURVE",
"308 88 LINE",
"291 70 OFFCURVE",
"266 62 OFFCURVE",
"232 62 CURVE SMOOTH",
"136 62 OFFCURVE",
"107 126 OFFCURVE",
"107 340 CURVE SMOOTH",
"107 390 LINE SMOOTH",
"107 604 OFFCURVE",
"136 668 OFFCURVE",
"232 668 CURVE SMOOTH",
"266 668 OFFCURVE",
"291 660 OFFCURVE",
"308 642 CURVE",
"365 666 LINE",
"339 719 OFFCURVE",
"302 740 OFFCURVE",
"232 740 CURVE SMOOTH",
"83 740 OFFCURVE",
"25 644 OFFCURVE",
"25 395 CURVE SMOOTH",
"25 335 LINE SMOOTH",
"25 86 OFFCURVE",
"83 -10 OFFCURVE",
"232 -10 CURVE SMOOTH"
);
},
{
closed = 1;
nodes = (
"575 0 LINE",
"575 70 LINE",
"376 70 LINE",
"376 351 LINE",
"566 351 LINE",
"566 421 LINE",
"376 421 LINE",
"376 660 LINE",
"575 660 LINE",
"575 730 LINE",
"296 730 LINE",
"296 0 LINE"
);
}
);
vertWidth = 1000;
width = 600;
},
{
layerId = "D0C1F23C-2F9F-4D30-8C4D-098ED54EEF3D";
paths = (
{
closed = 1;
nodes = (
"279 -10 OFFCURVE",
"311 -5 OFFCURVE",
"335 6 CURVE",
"327 24 LINE",
"306 15 OFFCURVE",
"278 10 OFFCURVE",
"243 10 CURVE SMOOTH",
"104 10 OFFCURVE",
"55 90 OFFCURVE",
"55 335 CURVE SMOOTH",
"55 395 LINE SMOOTH",
"55 640 OFFCURVE",
"104 720 OFFCURVE",
"243 720 CURVE SMOOTH",
"278 720 OFFCURVE",
"306 715 OFFCURVE",
"327 706 CURVE",
"335 724 LINE",
"311 735 OFFCURVE",
"279 740 OFFCURVE",
"243 740 CURVE SMOOTH",
"90 740 OFFCURVE",
"35 649 OFFCURVE",
"35 395 CURVE SMOOTH",
"35 335 LINE SMOOTH",
"35 81 OFFCURVE",
"90 -10 OFFCURVE",
"243 -10 CURVE SMOOTH"
);
},
{
closed = 1;
nodes = (
"565 0 LINE",
"565 20 LINE",
"331 20 LINE",
"331 376 LINE",
"555 376 LINE",
"555 396 LINE",
"331 396 LINE",
"331 710 LINE",
"565 710 LINE",
"565 730 LINE",
"311 730 LINE",
"311 0 LINE"
);
}
);
width = 600;
}
);
leftKerningGroup = O;
rightKerningGroup = E;
unicode = 0152;
},
{
color = 6;
glyphname = P;
lastChange = "2021-05-05 04:42:54 +0000";
layers = (
{
layerId = "D65C9A1E-0FCA-4B2D-8EDF-9F36CA9182A1";
paths = (
{
closed = 1;
nodes = (
"90 0 LINE",
"110 0 LINE",
"110 728 LINE",
"93 708 LINE",
"142 716 OFFCURVE",
"176 720 OFFCURVE",
"218 720 CURVE SMOOTH",
"374 720 OFFCURVE",
"430 664 OFFCURVE",
"430 508 CURVE SMOOTH",
"430 352 OFFCURVE",
"374 296 OFFCURVE",
"218 296 CURVE SMOOTH",
"182 296 OFFCURVE",
"148 299 OFFCURVE",
"99 307 CURVE",
"96 287 LINE",
"147 279 OFFCURVE",
"182 276 OFFCURVE",
"218 276 CURVE SMOOTH",
"385 276 OFFCURVE",
"450 341 OFFCURVE",
"450 508 CURVE SMOOTH",
"450 675 OFFCURVE",
"385 740 OFFCURVE",
"218 740 CURVE SMOOTH",
"182 740 OFFCURVE",
"144 737 OFFCURVE",
"90 728 CURVE"
);
}
);
width = 500;
},
{
layerId = "E27A6A66-A1F8-4E1B-8224-7C0FE77551F2";
paths = (
{
closed = 1;
nodes = (
"75 0 LINE",
"157 0 LINE",
"157 688 LINE",
"131 660 LINE",
"162 665 OFFCURVE",
"190 668 OFFCURVE",
"221 668 CURVE SMOOTH",
"341 668 OFFCURVE",
"384 622 OFFCURVE",
"384 495 CURVE SMOOTH",
"384 368 OFFCURVE",
"341 322 OFFCURVE",
"221 322 CURVE SMOOTH",
"190 322 OFFCURVE",
"166 325 OFFCURVE",
"134 330 CURVE",
"108 258 LINE",
"145 253 OFFCURVE",
"176 250 OFFCURVE",
"214 250 CURVE SMOOTH",
"395 250 OFFCURVE",
"465 318 OFFCURVE",
"465 495 CURVE SMOOTH",
"465 672 OFFCURVE",
"395 740 OFFCURVE",
"214 740 CURVE SMOOTH",
"176 740 OFFCURVE",
"134 737 OFFCURVE",
"75 728 CURVE"
);
}
);
vertWidth = 1000;
width = 500;
},
{
layerId = "FC9CFCDA-9E80-4E73-BA51-8504D15957FA";
paths = (
{
closed = 1;
nodes = (
"60 0 LINE",
"204 0 LINE",
"204 647 LINE",
"168 610 LINE",
"181 612 OFFCURVE",
"203 614 OFFCURVE",
"223 614 CURVE SMOOTH",
"307 614 OFFCURVE",
"338 578 OFFCURVE",
"338 481 CURVE SMOOTH",
"338 384 OFFCURVE",
"307 348 OFFCURVE",
"223 348 CURVE SMOOTH",
"203 348 OFFCURVE",
"183 350 OFFCURVE",
"168 352 CURVE",
"120 228 LINE",
"142 226 OFFCURVE",
"176 224 OFFCURVE",
"209 224 CURVE SMOOTH",
"404 224 OFFCURVE",
"480 296 OFFCURVE",
"480 482 CURVE SMOOTH",
"480 668 OFFCURVE",
"404 740 OFFCURVE",
"209 740 CURVE SMOOTH",
"169 740 OFFCURVE",
"123 737 OFFCURVE",
"60 728 CURVE"
);
}
);
vertWidth = 1000;
width = 500;
},
{
layerId = "0F1A0AC1-B8D5-4257-ADED-894CB2B827EF";
paths = (
{
closed = 1;
nodes = (
"66 0 LINE",
"210 0 LINE",
"210 647 LINE",
"200 610 LINE",
"217 612 OFFCURVE",
"244 614 OFFCURVE",
"269 614 CURVE SMOOTH",
"374 614 OFFCURVE",
"414 578 OFFCURVE",
"414 481 CURVE SMOOTH",
"414 384 OFFCURVE",
"374 348 OFFCURVE",
"269 348 CURVE SMOOTH",
"244 348 OFFCURVE",
"220 350 OFFCURVE",
"200 352 CURVE",
"136 228 LINE",
"162 226 OFFCURVE",
"202 224 OFFCURVE",
"240 224 CURVE SMOOTH",
"467 224 OFFCURVE",
"556 296 OFFCURVE",
"556 482 CURVE SMOOTH",
"556 668 OFFCURVE",
"467 740 OFFCURVE",
"240 740 CURVE SMOOTH",
"193 740 OFFCURVE",
"140 737 OFFCURVE",
"66 728 CURVE"
);
}
);
vertWidth = 1000;
width = 600;
},
{
layerId = "72F02222-BF87-41FD-9A7E-0ABB550ED2DB";
paths = (
{
closed = 1;
nodes = (
"85 0 LINE",
"167 0 LINE",
"167 687 LINE",
"154 660 LINE",
"193 665 OFFCURVE",
"229 668 OFFCURVE",
"265 668 CURVE SMOOTH",
"409 668 OFFCURVE",
"464 620 OFFCURVE",
"464 494 CURVE SMOOTH",
"464 369 OFFCURVE",
"410 322 OFFCURVE",
"266 322 CURVE SMOOTH",
"229 322 OFFCURVE",
"197 325 OFFCURVE",
"157 330 CURVE",
"124 257 LINE",
"167 252 OFFCURVE",
"211 250 OFFCURVE",
"248 250 CURVE SMOOTH",
"462 250 OFFCURVE",
"545 318 OFFCURVE",
"545 495 CURVE SMOOTH",
"545 672 OFFCURVE",
"462 740 OFFCURVE",
"248 740 CURVE SMOOTH",
"203 740 OFFCURVE",
"154 737 OFFCURVE",
"85 728 CURVE"
);
}
);
vertWidth = 1000;
width = 600;
},
{
layerId = "D0C1F23C-2F9F-4D30-8C4D-098ED54EEF3D";
paths = (
{
closed = 1;
nodes = (
"104 0 LINE",
"124 0 LINE",
"124 728 LINE",
"107 708 LINE",
"167 717 OFFCURVE",
"212 720 OFFCURVE",
"257 720 CURVE SMOOTH",
"445 720 OFFCURVE",
"514 663 OFFCURVE",
"514 508 CURVE SMOOTH",
"514 353 OFFCURVE",
"445 296 OFFCURVE",
"257 296 CURVE SMOOTH",
"214 296 OFFCURVE",
"172 299 OFFCURVE",
"114 307 CURVE",
"111 287 LINE",
"172 279 OFFCURVE",
"214 276 OFFCURVE",
"257 276 CURVE SMOOTH",
"456 276 OFFCURVE",
"534 341 OFFCURVE",
"534 508 CURVE SMOOTH",
"534 675 OFFCURVE",
"456 740 OFFCURVE",
"257 740 CURVE SMOOTH",
"214 740 OFFCURVE",
"169 737 OFFCURVE",
"104 728 CURVE"
);
}
);
width = 600;
}
);
leftKerningGroup = H;
rightKerningGroup = P;
unicode = 0050;
},
{
color = 10;
glyphname = Thorn;
lastChange = "2021-05-05 04:42:54 +0000";
layers = (
{
layerId = "D65C9A1E-0FCA-4B2D-8EDF-9F36CA9182A1";
paths = (
{
closed = 1;
nodes = (
"385 153 OFFCURVE",
"450 218 OFFCURVE",
"450 385 CURVE SMOOTH",
"450 552 OFFCURVE",
"385 617 OFFCURVE",
"218 617 CURVE SMOOTH",
"182 617 OFFCURVE",
"147 614 OFFCURVE",
"96 606 CURVE",
"99 586 LINE",
"148 594 OFFCURVE",
"182 597 OFFCURVE",
"218 597 CURVE SMOOTH",
"374 597 OFFCURVE",
"430 541 OFFCURVE",
"430 385 CURVE SMOOTH",
"430 229 OFFCURVE",
"374 173 OFFCURVE",
"218 173 CURVE SMOOTH",
"182 173 OFFCURVE",
"148 176 OFFCURVE",
"99 184 CURVE",
"96 164 LINE",
"147 156 OFFCURVE",
"182 153 OFFCURVE",
"218 153 CURVE SMOOTH"
);
},
{
closed = 1;
nodes = (
"110 0 LINE",
"110 730 LINE",
"90 730 LINE",
"90 0 LINE"
);
}
);
width = 500;
},
{
layerId = "E27A6A66-A1F8-4E1B-8224-7C0FE77551F2";
paths = (
{
closed = 1;
nodes = (
"395 140 OFFCURVE",
"465 208 OFFCURVE",
"465 385 CURVE SMOOTH",
"465 562 OFFCURVE",
"395 630 OFFCURVE",
"214 630 CURVE SMOOTH",
"176 630 OFFCURVE",
"145 627 OFFCURVE",
"108 622 CURVE",
"134 550 LINE",
"166 555 OFFCURVE",
"190 558 OFFCURVE",
"221 558 CURVE SMOOTH",
"341 558 OFFCURVE",
"384 512 OFFCURVE",
"384 385 CURVE SMOOTH",
"384 258 OFFCURVE",
"341 212 OFFCURVE",
"221 212 CURVE SMOOTH",
"190 212 OFFCURVE",
"166 215 OFFCURVE",
"134 220 CURVE",
"108 148 LINE",
"145 143 OFFCURVE",
"176 140 OFFCURVE",
"214 140 CURVE SMOOTH"
);
},
{
closed = 1;
nodes = (
"157 0 LINE",
"157 730 LINE",
"75 730 LINE",
"75 0 LINE"
);
}
);
vertWidth = 1000;
width = 500;
},
{
layerId = "FC9CFCDA-9E80-4E73-BA51-8504D15957FA";
paths = (
{
closed = 1;
nodes = (
"404 127 OFFCURVE",
"480 199 OFFCURVE",
"480 385 CURVE SMOOTH",
"480 571 OFFCURVE",
"404 643 OFFCURVE",
"209 643 CURVE SMOOTH",
"176 643 OFFCURVE",
"142 641 OFFCURVE",
"120 639 CURVE",
"168 515 LINE",
"183 517 OFFCURVE",
"203 519 OFFCURVE",
"223 519 CURVE SMOOTH",
"307 519 OFFCURVE",
"338 483 OFFCURVE",
"338 385 CURVE SMOOTH",
"338 287 OFFCURVE",
"307 251 OFFCURVE",
"223 251 CURVE SMOOTH",
"203 251 OFFCURVE",
"183 253 OFFCURVE",
"168 255 CURVE",
"120 131 LINE",
"142 129 OFFCURVE",
"176 127 OFFCURVE",
"209 127 CURVE SMOOTH"
);
},
{
closed = 1;
nodes = (
"204 0 LINE",
"204 730 LINE",
"60 730 LINE",
"60 0 LINE"
);
}
);
vertWidth = 1000;
width = 500;
},
{
layerId = "0F1A0AC1-B8D5-4257-ADED-894CB2B827EF";
paths = (
{
closed = 1;
nodes = (
"467 127 OFFCURVE",
"556 199 OFFCURVE",
"556 385 CURVE SMOOTH",
"556 571 OFFCURVE",
"467 643 OFFCURVE",
"240 643 CURVE SMOOTH",
"202 643 OFFCURVE",
"162 641 OFFCURVE",
"136 639 CURVE",
"200 515 LINE",
"220 517 OFFCURVE",
"244 519 OFFCURVE",
"269 519 CURVE SMOOTH",
"375 519 OFFCURVE",
"414 483 OFFCURVE",
"414 385 CURVE SMOOTH",
"414 287 OFFCURVE",
"375 251 OFFCURVE",
"269 251 CURVE SMOOTH",
"244 251 OFFCURVE",
"220 253 OFFCURVE",
"200 255 CURVE",
"136 131 LINE",
"162 129 OFFCURVE",
"202 127 OFFCURVE",
"240 127 CURVE SMOOTH"
);
},
{
closed = 1;
nodes = (
"210 0 LINE",
"210 730 LINE",
"66 730 LINE",
"66 0 LINE"
);
}
);
vertWidth = 1000;
width = 600;
},
{
layerId = "72F02222-BF87-41FD-9A7E-0ABB550ED2DB";
paths = (
{
closed = 1;
nodes = (
"462 140 OFFCURVE",
"545 208 OFFCURVE",
"545 385 CURVE SMOOTH",
"545 562 OFFCURVE",
"462 630 OFFCURVE",
"248 630 CURVE SMOOTH",
"211 630 OFFCURVE",
"167 628 OFFCURVE",
"124 623 CURVE",
"157 550 LINE",
"197 555 OFFCURVE",
"230 558 OFFCURVE",
"266 558 CURVE SMOOTH",
"410 558 OFFCURVE",
"464 511 OFFCURVE",
"464 385 CURVE SMOOTH",
"464 259 OFFCURVE",
"410 212 OFFCURVE",
"266 212 CURVE SMOOTH",
"230 212 OFFCURVE",
"197 215 OFFCURVE",
"157 220 CURVE",
"124 147 LINE",
"167 142 OFFCURVE",
"211 140 OFFCURVE",
"248 140 CURVE SMOOTH"
);
},
{
closed = 1;
nodes = (
"167 0 LINE",
"167 730 LINE",
"85 730 LINE",
"85 0 LINE"
);
}
);
vertWidth = 1000;
width = 600;
},
{
layerId = "D0C1F23C-2F9F-4D30-8C4D-098ED54EEF3D";
paths = (
{
closed = 1;
nodes = (
"456 153 OFFCURVE",
"534 218 OFFCURVE",
"534 385 CURVE SMOOTH",
"534 552 OFFCURVE",
"456 617 OFFCURVE",
"257 617 CURVE SMOOTH",
"214 617 OFFCURVE",
"172 614 OFFCURVE",
"111 606 CURVE",
"114 586 LINE",
"172 594 OFFCURVE",
"214 597 OFFCURVE",
"257 597 CURVE SMOOTH",
"445 597 OFFCURVE",
"514 540 OFFCURVE",
"514 385 CURVE SMOOTH",
"514 230 OFFCURVE",
"445 173 OFFCURVE",
"257 173 CURVE SMOOTH",
"214 173 OFFCURVE",
"172 176 OFFCURVE",
"114 184 CURVE",
"111 164 LINE",
"172 156 OFFCURVE",
"214 153 OFFCURVE",
"257 153 CURVE SMOOTH"
);
},
{
closed = 1;
nodes = (
"124 0 LINE",
"124 730 LINE",
"104 730 LINE",
"104 0 LINE"
);
}
);
width = 600;
}
);
leftKerningGroup = H;
rightKerningGroup = O;
unicode = 00DE;
},
{
color = 6;
glyphname = Q;
lastChange = "2021-05-05 04:42:54 +0000";
layers = (
{
layerId = "E27A6A66-A1F8-4E1B-8224-7C0FE77551F2";
paths = (
{
closed = 1;
nodes = (
"480 -150 LINE",
"480 -62 OFFCURVE",
"442 -1 OFFCURVE",
"371 24 CURVE",
"371 28 LINE",
"434 70 OFFCURVE",
"460 161 OFFCURVE",
"460 335 CURVE SMOOTH",
"460 395 LINE SMOOTH",
"460 648 OFFCURVE",
"404 740 OFFCURVE",
"250 740 CURVE SMOOTH",
"96 740 OFFCURVE",
"40 648 OFFCURVE",
"40 395 CURVE SMOOTH",
"40 335 LINE SMOOTH",
"40 82 OFFCURVE",
"96 -10 OFFCURVE",
"250 -10 CURVE SMOOTH",
"354 -10 OFFCURVE",
"398 -52 OFFCURVE",
"398 -150 CURVE"
);
},
{
closed = 1;
nodes = (
"152 62 OFFCURVE",
"122 124 OFFCURVE",
"122 340 CURVE SMOOTH",
"122 390 LINE SMOOTH",
"122 606 OFFCURVE",
"152 668 OFFCURVE",
"250 668 CURVE SMOOTH",
"348 668 OFFCURVE",
"378 606 OFFCURVE",
"378 390 CURVE SMOOTH",
"378 340 LINE SMOOTH",
"378 124 OFFCURVE",
"348 62 OFFCURVE",
"250 62 CURVE SMOOTH"
);
}
);
vertWidth = 1000;
width = 500;
},
{
layerId = "FC9CFCDA-9E80-4E73-BA51-8504D15957FA";
paths = (
{
closed = 1;
nodes = (
"495 -150 LINE",
"495 -44 OFFCURVE",
"468 20 OFFCURVE",
"412 47 CURVE",
"412 51 LINE",
"456 102 OFFCURVE",
"475 190 OFFCURVE",
"475 335 CURVE SMOOTH",
"475 395 LINE SMOOTH",
"475 648 OFFCURVE",
"415 740 OFFCURVE",
"250 740 CURVE SMOOTH",
"85 740 OFFCURVE",
"25 648 OFFCURVE",
"25 395 CURVE SMOOTH",
"25 335 LINE SMOOTH",
"25 82 OFFCURVE",
"85 -10 OFFCURVE",
"250 -10 CURVE SMOOTH",
"331 -10 OFFCURVE",
"350 -32 OFFCURVE",
"350 -150 CURVE"
);
},
{
closed = 1;
nodes = (
"183 114 OFFCURVE",
"169 154 OFFCURVE",
"169 345 CURVE SMOOTH",
"169 385 LINE SMOOTH",
"169 576 OFFCURVE",
"183 616 OFFCURVE",
"250 616 CURVE SMOOTH",
"317 616 OFFCURVE",
"331 576 OFFCURVE",
"331 385 CURVE SMOOTH",
"331 345 LINE SMOOTH",
"331 154 OFFCURVE",
"317 114 OFFCURVE",
"250 114 CURVE SMOOTH"
);
}
);
vertWidth = 1000;
width = 500;
},
{
layerId = "D65C9A1E-0FCA-4B2D-8EDF-9F36CA9182A1";
paths = (
{
closed = 1;
nodes = (
"465 -150 LINE",
"465 -79 OFFCURVE",
"413 -22 OFFCURVE",
"329 0 CURVE",
"329 4 LINE",
"412 38 OFFCURVE",
"445 133 OFFCURVE",
"445 335 CURVE SMOOTH",
"445 395 LINE SMOOTH",
"445 648 OFFCURVE",
"393 740 OFFCURVE",
"250 740 CURVE SMOOTH",
"107 740 OFFCURVE",
"55 648 OFFCURVE",
"55 395 CURVE SMOOTH",
"55 335 LINE SMOOTH",
"55 82 OFFCURVE",
"107 -10 OFFCURVE",
"250 -10 CURVE SMOOTH",
"364 -10 OFFCURVE",
"445 -68 OFFCURVE",
"445 -150 CURVE"
);
},
{
closed = 1;
nodes = (
"120 10 OFFCURVE",
"75 93 OFFCURVE",
"75 335 CURVE SMOOTH",
"75 395 LINE SMOOTH",
"75 637 OFFCURVE",
"120 720 OFFCURVE",
"250 720 CURVE SMOOTH",
"380 720 OFFCURVE",
"425 637 OFFCURVE",
"425 395 CURVE SMOOTH",
"425 335 LINE SMOOTH",
"425 93 OFFCURVE",
"380 10 OFFCURVE",
"250 10 CURVE SMOOTH"
);
}
);
width = 500;
},
{
layerId = "0F1A0AC1-B8D5-4257-ADED-894CB2B827EF";
paths = (
{
closed = 1;
nodes = (
"590 -150 LINE",
"590 -53 OFFCURVE",
"556 10 OFFCURVE",
"487 43 CURVE",
"487 47 LINE",
"544 99 OFFCURVE",
"570 190 OFFCURVE",
"570 335 CURVE SMOOTH",
"570 395 LINE SMOOTH",
"570 643 OFFCURVE",
"494 740 OFFCURVE",
"300 740 CURVE SMOOTH",
"106 740 OFFCURVE",
"30 643 OFFCURVE",
"30 395 CURVE SMOOTH",
"30 335 LINE SMOOTH",
"30 87 OFFCURVE",
"106 -10 OFFCURVE",
"300 -10 CURVE SMOOTH",
"411 -10 OFFCURVE",
"445 -42 OFFCURVE",
"445 -150 CURVE"
);
},
{
closed = 1;
nodes = (
"199 114 OFFCURVE",
"174 160 OFFCURVE",
"174 345 CURVE SMOOTH",
"174 385 LINE SMOOTH",
"174 570 OFFCURVE",
"199 616 OFFCURVE",
"300 616 CURVE SMOOTH",
"401 616 OFFCURVE",
"426 570 OFFCURVE",
"426 385 CURVE SMOOTH",
"426 345 LINE SMOOTH",
"426 160 OFFCURVE",
"401 114 OFFCURVE",
"300 114 CURVE SMOOTH"
);
}
);
vertWidth = 1000;
width = 600;
},
{
layerId = "72F02222-BF87-41FD-9A7E-0ABB550ED2DB";
paths = (
{
closed = 1;
nodes = (
"575 -150 LINE",
"575 -67 OFFCURVE",
"529 -7 OFFCURVE",
"443 23 CURVE",
"443 27 LINE",
"521 70 OFFCURVE",
"555 164 OFFCURVE",
"555 335 CURVE SMOOTH",
"555 395 LINE SMOOTH",
"555 643 OFFCURVE",
"483 740 OFFCURVE",
"300 740 CURVE SMOOTH",
"117 740 OFFCURVE",
"45 643 OFFCURVE",
"45 395 CURVE SMOOTH",
"45 335 LINE SMOOTH",
"45 87 OFFCURVE",
"117 -10 OFFCURVE",
"300 -10 CURVE SMOOTH",
"428 -10 OFFCURVE",
"493 -57 OFFCURVE",
"493 -150 CURVE"
);
},
{
closed = 1;
nodes = (
"170 62 OFFCURVE",
"127 130 OFFCURVE",
"127 340 CURVE SMOOTH",
"127 390 LINE SMOOTH",
"127 600 OFFCURVE",
"170 668 OFFCURVE",
"300 668 CURVE SMOOTH",
"430 668 OFFCURVE",
"473 600 OFFCURVE",
"473 390 CURVE SMOOTH",
"473 340 LINE SMOOTH",
"473 130 OFFCURVE",
"430 62 OFFCURVE",
"300 62 CURVE SMOOTH"
);
}
);
vertWidth = 1000;
width = 600;
},
{
layerId = "D0C1F23C-2F9F-4D30-8C4D-098ED54EEF3D";
paths = (
{
closed = 1;
nodes = (
"560 -150 LINE",
"560 -82 OFFCURVE",
"495 -24 OFFCURVE",
"393 -1 CURVE",
"393 3 LINE",
"496 36 OFFCURVE",
"540 136 OFFCURVE",
"540 335 CURVE SMOOTH",
"540 395 LINE SMOOTH",
"540 642 OFFCURVE",
"472 740 OFFCURVE",
"300 740 CURVE SMOOTH",
"128 740 OFFCURVE",
"60 642 OFFCURVE",
"60 395 CURVE SMOOTH",
"60 335 LINE SMOOTH",
"60 88 OFFCURVE",
"128 -10 OFFCURVE",
"300 -10 CURVE SMOOTH",
"435 -10 OFFCURVE",
"540 -71 OFFCURVE",
"540 -150 CURVE"
);
},
{
closed = 1;
nodes = (
"140 10 OFFCURVE",
"80 99 OFFCURVE",
"80 335 CURVE SMOOTH",
"80 395 LINE SMOOTH",
"80 631 OFFCURVE",
"140 720 OFFCURVE",
"300 720 CURVE SMOOTH",
"460 720 OFFCURVE",
"520 631 OFFCURVE",
"520 395 CURVE SMOOTH",
"520 335 LINE SMOOTH",
"520 99 OFFCURVE",
"460 10 OFFCURVE",
"300 10 CURVE SMOOTH"
);
}
);
width = 600;
}
);
leftKerningGroup = O;
rightKerningGroup = O;
unicode = 0051;
},
{
color = 6;
glyphname = R;
lastChange = "2021-05-05 04:42:54 +0000";
layers = (
{
anchors = (
{
name = bottom;
position = "{240, 0}";
},
{
name = top;
position = "{240, 730}";
}
);
layerId = "D65C9A1E-0FCA-4B2D-8EDF-9F36CA9182A1";
paths = (
{
closed = 1;
nodes = (
"88 0 LINE",
"108 0 LINE",
"108 728 LINE",
"91 708 LINE",
"141 717 OFFCURVE",
"177 720 OFFCURVE",
"216 720 CURVE SMOOTH",
"372 720 OFFCURVE",
"428 669 OFFCURVE",
"428 530 CURVE SMOOTH",
"428 391 OFFCURVE",
"372 340 OFFCURVE",
"216 340 CURVE SMOOTH",
"179 340 OFFCURVE",
"147 343 OFFCURVE",
"97 351 CURVE",
"94 331 LINE",
"145 323 OFFCURVE",
"178 320 OFFCURVE",
"216 320 CURVE SMOOTH",
"383 320 OFFCURVE",
"448 379 OFFCURVE",
"448 530 CURVE SMOOTH",
"448 681 OFFCURVE",
"383 740 OFFCURVE",
"216 740 CURVE SMOOTH",
"178 740 OFFCURVE",
"142 737 OFFCURVE",
"88 728 CURVE"
);
},
{
closed = 1;
nodes = (
"458 0 LINE",
"132 335 LINE",
"105 335 LINE",
"430 0 LINE"
);
}
);
width = 500;
},
{
anchors = (
{
name = bottom;
position = "{240, 0}";
},
{
name = top;
position = "{240, 730}";
}
);
layerId = "E27A6A66-A1F8-4E1B-8224-7C0FE77551F2";
paths = (
{
closed = 1;
nodes = (
"70 0 LINE",
"150 0 LINE",
"150 688 LINE",
"126 660 LINE",
"162 666 OFFCURVE",
"189 668 OFFCURVE",
"216 668 CURVE SMOOTH",
"336 668 OFFCURVE",
"379 627 OFFCURVE",
"379 514 CURVE SMOOTH",
"379 401 OFFCURVE",
"336 360 OFFCURVE",
"216 360 CURVE SMOOTH",
"190 360 OFFCURVE",
"164 362 OFFCURVE",
"129 368 CURVE",
"103 298 LINE",
"140 293 OFFCURVE",
"173 290 OFFCURVE",
"209 290 CURVE SMOOTH",
"390 290 OFFCURVE",
"460 353 OFFCURVE",
"460 515 CURVE SMOOTH",
"460 677 OFFCURVE",
"390 740 OFFCURVE",
"209 740 CURVE SMOOTH",
"169 740 OFFCURVE",
"129 737 OFFCURVE",
"70 728 CURVE"
);
},
{
closed = 1;
nodes = (
"470 0 LINE",
"218 328 LINE",
"126 328 LINE",
"376 0 LINE"
);
}
);
vertWidth = 1000;
width = 500;
},
{
anchors = (
{
name = bottom;
position = "{240, 0}";
},
{
name = top;
position = "{240, 730}";
}
);
layerId = "FC9CFCDA-9E80-4E73-BA51-8504D15957FA";
paths = (
{
closed = 1;
nodes = (
"52 0 LINE",
"192 0 LINE",
"192 647 LINE",
"160 610 LINE",
"183 613 OFFCURVE",
"200 614 OFFCURVE",
"215 614 CURVE SMOOTH",
"300 614 OFFCURVE",
"330 583 OFFCURVE",
"330 497 CURVE SMOOTH",
"330 411 OFFCURVE",
"300 380 OFFCURVE",
"215 380 CURVE SMOOTH",
"200 380 OFFCURVE",
"180 381 OFFCURVE",
"160 384 CURVE",
"112 264 LINE",
"134 262 OFFCURVE",
"168 260 OFFCURVE",
"201 260 CURVE SMOOTH",
"396 260 OFFCURVE",
"472 327 OFFCURVE",
"472 500 CURVE SMOOTH",
"472 673 OFFCURVE",
"396 740 OFFCURVE",
"201 740 CURVE SMOOTH",
"160 740 OFFCURVE",
"115 737 OFFCURVE",
"52 728 CURVE"
);
},
{
closed = 1;
nodes = (
"482 0 LINE",
"314 320 LINE",
"164 320 LINE",
"328 0 LINE"
);
}
);
vertWidth = 1000;
width = 500;
},
{
anchors = (
{
name = bottom;
position = "{280, 0}";
},
{
name = top;
position = "{280, 730}";
}
);
layerId = "0F1A0AC1-B8D5-4257-ADED-894CB2B827EF";
paths = (
{
closed = 1;
nodes = (
"62 0 LINE",
"206 0 LINE",
"206 647 LINE",
"196 610 LINE",
"213 613 OFFCURVE",
"234 614 OFFCURVE",
"254 614 CURVE SMOOTH",
"364 614 OFFCURVE",
"400 585 OFFCURVE",
"400 497 CURVE SMOOTH",
"400 409 OFFCURVE",
"364 380 OFFCURVE",
"254 380 CURVE SMOOTH",
"234 380 OFFCURVE",
"213 381 OFFCURVE",
"196 384 CURVE",
"132 264 LINE",
"159 262 OFFCURVE",
"199 260 OFFCURVE",
"238 260 CURVE SMOOTH",
"457 260 OFFCURVE",
"542 327 OFFCURVE",
"542 500 CURVE SMOOTH",
"542 673 OFFCURVE",
"457 740 OFFCURVE",
"238 740 CURVE SMOOTH",
"190 740 OFFCURVE",
"137 737 OFFCURVE",
"62 728 CURVE"
);
},
{
closed = 1;
nodes = (
"562 0 LINE",
"326 320 LINE",
"166 320 LINE",
"398 0 LINE"
);
}
);
vertWidth = 1000;
width = 600;
},
{
anchors = (
{
name = bottom;
position = "{280, 0}";
},
{
name = top;
position = "{280, 730}";
}
);
layerId = "72F02222-BF87-41FD-9A7E-0ABB550ED2DB";
paths = (
{
closed = 1;
nodes = (
"81 0 LINE",
"163 0 LINE",
"163 687 LINE",
"150 660 LINE",
"188 666 OFFCURVE",
"221 668 OFFCURVE",
"253 668 CURVE SMOOTH",
"398 668 OFFCURVE",
"450 627 OFFCURVE",
"450 513 CURVE SMOOTH",
"450 400 OFFCURVE",
"400 360 OFFCURVE",
"257 360 CURVE SMOOTH",
"225 360 OFFCURVE",
"193 362 OFFCURVE",
"153 367 CURVE",
"120 297 LINE",
"164 292 OFFCURVE",
"209 290 OFFCURVE",
"247 290 CURVE SMOOTH",
"452 290 OFFCURVE",
"531 353 OFFCURVE",
"531 515 CURVE SMOOTH",
"531 677 OFFCURVE",
"452 740 OFFCURVE",
"247 740 CURVE SMOOTH",
"201 740 OFFCURVE",
"151 737 OFFCURVE",
"81 728 CURVE"
);
},
{
closed = 1;
nodes = (
"551 0 LINE",
"233 328 LINE",
"131 330 LINE",
"447 0 LINE"
);
}
);
vertWidth = 1000;
width = 600;
},
{
anchors = (
{
name = bottom;
position = "{280, 0}";
},
{
name = top;
position = "{280, 730}";
}
);
layerId = "D0C1F23C-2F9F-4D30-8C4D-098ED54EEF3D";
paths = (
{
closed = 1;
nodes = (
"100 0 LINE",
"120 0 LINE",
"120 728 LINE",
"103 708 LINE",
"164 717 OFFCURVE",
"210 720 OFFCURVE",
"256 720 CURVE SMOOTH",
"435 720 OFFCURVE",
"500 669 OFFCURVE",
"500 530 CURVE SMOOTH",
"500 391 OFFCURVE",
"435 340 OFFCURVE",
"256 340 CURVE SMOOTH",
"213 340 OFFCURVE",
"171 343 OFFCURVE",
"109 350 CURVE",
"107 330 LINE",
"169 323 OFFCURVE",
"212 320 OFFCURVE",
"256 320 CURVE SMOOTH",
"446 320 OFFCURVE",
"520 379 OFFCURVE",
"520 530 CURVE SMOOTH",
"520 681 OFFCURVE",
"446 740 OFFCURVE",
"256 740 CURVE SMOOTH",
"212 740 OFFCURVE",
"166 737 OFFCURVE",
"100 728 CURVE"
);
},
{
closed = 1;
nodes = (
"540 0 LINE",
"144 337 LINE",
"110 340 LINE",
"509 0 LINE"
);
}
);
width = 600;
}
);
leftKerningGroup = H;
rightKerningGroup = R;
unicode = 0052;
},
{
color = 6;
glyphname = S;
lastChange = "2021-05-05 04:42:54 +0000";
layers = (
{
anchors = (
{
name = bottom;
position = "{250, 0}";
},
{
name = cedi;
position = "{200, 0}";
},
{
name = top;
position = "{250, 730}";
}
);
layerId = "D65C9A1E-0FCA-4B2D-8EDF-9F36CA9182A1";
paths = (
{
closed = 1;
nodes = (
"353 -10 OFFCURVE",
"430 59 OFFCURVE",
"430 173 CURVE SMOOTH",
"430 301 OFFCURVE",
"336 350 OFFCURVE",
"249 395 CURVE SMOOTH",
"166 439 OFFCURVE",
"90 479 OFFCURVE",
"90 580 CURVE SMOOTH",
"90 670 OFFCURVE",
"150 720 OFFCURVE",
"263 720 CURVE SMOOTH",
"304 720 OFFCURVE",
"352 713 OFFCURVE",
"401 701 CURVE",
"386 713 LINE",
"386 520 LINE",
"406 520 LINE",
"406 720 LINE",
"356 733 OFFCURVE",
"306 740 OFFCURVE",
"263 740 CURVE SMOOTH",
"140 740 OFFCURVE",
"70 682 OFFCURVE",
"70 580 CURVE SMOOTH",
"70 467 OFFCURVE",
"156 421 OFFCURVE",
"239 377 CURVE SMOOTH",
"326 332 OFFCURVE",
"410 289 OFFCURVE",
"410 173 CURVE SMOOTH",
"410 70 OFFCURVE",
"342 10 OFFCURVE",
"225 10 CURVE SMOOTH",
"177 10 OFFCURVE",
"133 20 OFFCURVE",
"85 38 CURVE",
"85 18 LINE",
"133 -1 OFFCURVE",
"179 -10 OFFCURVE",
"225 -10 CURVE SMOOTH"
);
}
);
width = 500;
},
{
anchors = (
{
name = bottom;
position = "{250, 0}";
},
{
name = cedi;
position = "{220, 0}";
},
{
name = top;
position = "{250, 730}";
}
);
layerId = "FC9CFCDA-9E80-4E73-BA51-8504D15957FA";
paths = (
{
closed = 1;
nodes = (
"381 -10 OFFCURVE",
"455 51 OFFCURVE",
"455 181 CURVE SMOOTH",
"455 279 OFFCURVE",
"414 335 OFFCURVE",
"294 405 CURVE SMOOTH",
"207 455 OFFCURVE",
"179 487 OFFCURVE",
"179 538 CURVE SMOOTH",
"179 593 OFFCURVE",
"210 614 OFFCURVE",
"289 614 CURVE SMOOTH",
"306 614 OFFCURVE",
"329 613 OFFCURVE",
"349 610 CURVE",
"300 671 LINE",
"300 500 LINE",
"440 500 LINE",
"440 725 LINE",
"391 735 OFFCURVE",
"340 740 OFFCURVE",
"293 740 CURVE SMOOTH",
"124 740 OFFCURVE",
"35 676 OFFCURVE",
"35 540 CURVE SMOOTH",
"35 437 OFFCURVE",
"80 375 OFFCURVE",
"208 299 CURVE SMOOTH",
"285 254 OFFCURVE",
"311 225 OFFCURVE",
"311 185 CURVE SMOOTH",
"311 140 OFFCURVE",
"275 116 OFFCURVE",
"210 116 CURVE SMOOTH",
"162 116 OFFCURVE",
"103 129 OFFCURVE",
"55 149 CURVE",
"55 15 LINE",
"105 -1 OFFCURVE",
"164 -10 OFFCURVE",
"224 -10 CURVE SMOOTH"
);
}
);
vertWidth = 1000;
width = 500;
},
{
anchors = (
{
name = bottom;
position = "{300, 0}";
},
{
name = cedi;
position = "{260, 0}";
},
{
name = top;
position = "{300, 730}";
}
);
layerId = "0F1A0AC1-B8D5-4257-ADED-894CB2B827EF";
paths = (
{
closed = 1;
nodes = (
"455 -10 OFFCURVE",
"540 53 OFFCURVE",
"540 187 CURVE SMOOTH",
"540 289 OFFCURVE",
"491 343 OFFCURVE",
"337 410 CURVE SMOOTH",
"230 456 OFFCURVE",
"194 489 OFFCURVE",
"194 538 CURVE SMOOTH",
"194 590 OFFCURVE",
"235 614 OFFCURVE",
"326 614 CURVE SMOOTH",
"352 614 OFFCURVE",
"385 612 OFFCURVE",
"407 610 CURVE",
"380 671 LINE",
"380 500 LINE",
"520 500 LINE",
"520 725 LINE",
"465 735 OFFCURVE",
"399 740 OFFCURVE",
"342 740 CURVE SMOOTH",
"141 740 OFFCURVE",
"50 677 OFFCURVE",
"50 537 CURVE SMOOTH",
"50 428 OFFCURVE",
"106 367 OFFCURVE",
"271 294 CURVE SMOOTH",
"366 251 OFFCURVE",
"396 224 OFFCURVE",
"396 185 CURVE SMOOTH",
"396 137 OFFCURVE",
"355 116 OFFCURVE",
"261 116 CURVE SMOOTH",
"196 116 OFFCURVE",
"140 126 OFFCURVE",
"75 149 CURVE",
"75 15 LINE",
"133 -1 OFFCURVE",
"204 -10 OFFCURVE",
"272 -10 CURVE SMOOTH"
);
}
);
vertWidth = 1000;
width = 600;
},
{
anchors = (
{
name = bottom;
position = "{300, 0}";
},
{
name = cedi;
position = "{260, 0}";
},
{
name = top;
position = "{300, 730}";
}
);
layerId = "72F02222-BF87-41FD-9A7E-0ABB550ED2DB";
paths = (
{
closed = 1;
nodes = (
"440 -10 OFFCURVE",
"527 54 OFFCURVE",
"527 180 CURVE SMOOTH",
"527 279 OFFCURVE",
"474 333 OFFCURVE",
"317 402 CURVE SMOOTH",
"190 456 OFFCURVE",
"149 494 OFFCURVE",
"149 559 CURVE SMOOTH",
"149 634 OFFCURVE",
"204 668 OFFCURVE",
"319 668 CURVE SMOOTH",
"359 668 OFFCURVE",
"395 664 OFFCURVE",
"444 656 CURVE",
"423 692 LINE",
"423 510 LINE",
"503 510 LINE",
"503 723 LINE",
"445 734 OFFCURVE",
"381 740 OFFCURVE",
"327 740 CURVE SMOOTH",
"154 740 OFFCURVE",
"67 679 OFFCURVE",
"67 558 CURVE SMOOTH",
"67 458 OFFCURVE",
"126 404 OFFCURVE",
"279 336 CURVE SMOOTH",
"405 281 OFFCURVE",
"445 244 OFFCURVE",
"445 179 CURVE SMOOTH",
"445 99 OFFCURVE",
"386 62 OFFCURVE",
"266 62 CURVE SMOOTH",
"203 62 OFFCURVE",
"150 72 OFFCURVE",
"87 94 CURVE",
"87 16 LINE",
"146 -1 OFFCURVE",
"209 -10 OFFCURVE",
"272 -10 CURVE SMOOTH"
);
}
);
vertWidth = 1000;
width = 600;
},
{
anchors = (
{
name = bottom;
position = "{300, 0}";
},
{
name = cedi;
position = "{250, 0}";
},
{
name = top;
position = "{300, 730}";
}
);
layerId = "D0C1F23C-2F9F-4D30-8C4D-098ED54EEF3D";
paths = (
{
closed = 1;
nodes = (
"427 -10 OFFCURVE",
"515 55 OFFCURVE",
"515 173 CURVE SMOOTH",
"515 268 OFFCURVE",
"459 324 OFFCURVE",
"296 395 CURVE SMOOTH",
"151 459 OFFCURVE",
"105 504 OFFCURVE",
"105 580 CURVE SMOOTH",
"105 672 OFFCURVE",
"175 720 OFFCURVE",
"311 720 CURVE SMOOTH",
"362 720 OFFCURVE",
"422 713 OFFCURVE",
"482 700 CURVE",
"466 713 LINE",
"466 520 LINE",
"486 520 LINE",
"486 720 LINE",
"425 733 OFFCURVE",
"363 740 OFFCURVE",
"311 740 CURVE SMOOTH",
"164 740 OFFCURVE",
"85 684 OFFCURVE",
"85 580 CURVE SMOOTH",
"85 489 OFFCURVE",
"146 439 OFFCURVE",
"288 377 CURVE SMOOTH",
"444 309 OFFCURVE",
"495 259 OFFCURVE",
"495 173 CURVE SMOOTH",
"495 67 OFFCURVE",
"417 10 OFFCURVE",
"271 10 CURVE SMOOTH",
"210 10 OFFCURVE",
"160 20 OFFCURVE",
"100 40 CURVE",
"100 18 LINE",
"160 -2 OFFCURVE",
"216 -10 OFFCURVE",
"271 -10 CURVE SMOOTH"
);
}
);
width = 600;
},
{
anchors = (
{
name = bottom;
position = "{250, 0}";
},
{
name = cedi;
position = "{215, 0}";
},
{
name = top;
position = "{250, 730}";
}
);
layerId = "E27A6A66-A1F8-4E1B-8224-7C0FE77551F2";
paths = (
{
closed = 1;
nodes = (
"369 -10 OFFCURVE",
"442 52 OFFCURVE",
"442 177 CURVE SMOOTH",
"442 273 OFFCURVE",
"400 327 OFFCURVE",
"272 399 CURVE SMOOTH",
"167 457 OFFCURVE",
"134 496 OFFCURVE",
"134 559 CURVE SMOOTH",
"134 633 OFFCURVE",
"180 668 OFFCURVE",
"276 668 CURVE SMOOTH",
"309 668 OFFCURVE",
"339 664 OFFCURVE",
"375 656 CURVE",
"343 692 LINE",
"343 510 LINE",
"423 510 LINE",
"423 723 LINE",
"371 735 OFFCURVE",
"325 740 OFFCURVE",
"278 740 CURVE SMOOTH",
"122 740 OFFCURVE",
"52 684 OFFCURVE",
"52 560 CURVE SMOOTH",
"52 465 OFFCURVE",
"93 412 OFFCURVE",
"223 339 CURVE SMOOTH",
"328 281 OFFCURVE",
"360 243 OFFCURVE",
"360 179 CURVE SMOOTH",
"360 97 OFFCURVE",
"308 62 OFFCURVE",
"217 62 CURVE SMOOTH",
"166 62 OFFCURVE",
"119 73 OFFCURVE",
"70 93 CURVE",
"70 16 LINE",
"120 -2 OFFCURVE",
"172 -10 OFFCURVE",
"224 -10 CURVE SMOOTH"
);
}
);
vertWidth = 1000;
width = 500;
}
);
leftKerningGroup = S;
rightKerningGroup = S;
unicode = 0053;
},
{
color = 10;
glyphname = Germandbls;
lastChange = "2021-05-05 04:42:54 +0000";
layers = (
{
layerId = "D65C9A1E-0FCA-4B2D-8EDF-9F36CA9182A1";
paths = (
{
closed = 1;
nodes = (
"62 0 LINE",
"82 0 LINE",
"82 485 LINE SMOOTH",
"82 647 OFFCURVE",
"136 720 OFFCURVE",
"256 720 CURVE SMOOTH",
"316 720 OFFCURVE",
"380 706 OFFCURVE",
"433 658 CURVE",
"450 672 LINE",
"392 724 OFFCURVE",
"322 740 OFFCURVE",
"256 740 CURVE SMOOTH",
"125 740 OFFCURVE",
"62 660 OFFCURVE",
"62 490 CURVE SMOOTH"
);
},
{
closed = 1;
nodes = (
"399 -10 OFFCURVE",
"472 58 OFFCURVE",
"472 180 CURVE SMOOTH",
"472 302 OFFCURVE",
"398 370 OFFCURVE",
"267 370 CURVE",
"267 372 LINE",
"450 672 LINE",
"430 681 LINE",
"240 369 LINE",
"252 350 LINE",
"272 350 LINE SMOOTH",
"389 350 OFFCURVE",
"452 290 OFFCURVE",
"452 180 CURVE SMOOTH",
"452 70 OFFCURVE",
"388 10 OFFCURVE",
"269 10 CURVE SMOOTH",
"236 10 OFFCURVE",
"208 15 OFFCURVE",
"180 26 CURVE",
"174 7 LINE",
"205 -5 OFFCURVE",
"236 -10 OFFCURVE",
"269 -10 CURVE SMOOTH"
);
}
);
width = 500;
},
{
layerId = "E27A6A66-A1F8-4E1B-8224-7C0FE77551F2";
paths = (
{
closed = 1;
nodes = (
"43 0 LINE",
"123 0 LINE",
"123 463 LINE SMOOTH",
"123 598 OFFCURVE",
"176 668 OFFCURVE",
"279 668 CURVE SMOOTH",
"340 668 OFFCURVE",
"389 636 OFFCURVE",
"422 576 CURVE",
"470 641 LINE",
"430 706 OFFCURVE",
"365 740 OFFCURVE",
"279 740 CURVE SMOOTH",
"124 740 OFFCURVE",
"43 648 OFFCURVE",
"43 473 CURVE SMOOTH"
);
},
{
closed = 1;
nodes = (
"419 -10 OFFCURVE",
"483 60 OFFCURVE",
"483 196 CURVE SMOOTH",
"483 322 OFFCURVE",
"429 385 OFFCURVE",
"314 391 CURVE",
"314 395 LINE",
"470 641 LINE",
"390 654 LINE",
"220 390 LINE",
"250 326 LINE",
"260 326 LINE SMOOTH",
"360 326 OFFCURVE",
"401 288 OFFCURVE",
"401 195 CURVE SMOOTH",
"401 104 OFFCURVE",
"362 62 OFFCURVE",
"279 62 CURVE SMOOTH",
"250 62 OFFCURVE",
"223 67 OFFCURVE",
"195 78 CURVE",
"195 5 LINE",
"227 -6 OFFCURVE",
"265 -10 OFFCURVE",
"295 -10 CURVE SMOOTH"
);
}
);
vertWidth = 1000;
width = 500;
},
{
layerId = "FC9CFCDA-9E80-4E73-BA51-8504D15957FA";
paths = (
{
closed = 1;
nodes = (
"24 0 LINE",
"164 0 LINE",
"164 502 LINE SMOOTH",
"164 578 OFFCURVE",
"198 618 OFFCURVE",
"262 618 CURVE SMOOTH",
"303 618 OFFCURVE",
"340 592 OFFCURVE",
"370 541 CURVE",
"490 622 LINE",
"453 700 OFFCURVE",
"375 740 OFFCURVE",
"262 740 CURVE SMOOTH",
"106 740 OFFCURVE",
"24 665 OFFCURVE",
"24 522 CURVE SMOOTH"
);
},
{
closed = 1;
nodes = (
"434 -10 OFFCURVE",
"494 58 OFFCURVE",
"494 197 CURVE SMOOTH",
"494 316 OFFCURVE",
"451 388 OFFCURVE",
"359 401 CURVE",
"359 405 LINE",
"490 622 LINE",
"364 659 LINE",
"212 407 LINE",
"262 293 LINE",
"272 293 LINE SMOOTH",
"323 293 OFFCURVE",
"350 262 OFFCURVE",
"350 204 CURVE SMOOTH",
"350 144 OFFCURVE",
"326 112 OFFCURVE",
"279 112 CURVE SMOOTH",
"260 112 OFFCURVE",
"238 116 OFFCURVE",
"212 126 CURVE",
"212 4 LINE",
"246 -6 OFFCURVE",
"281 -10 OFFCURVE",
"311 -10 CURVE SMOOTH"
);
}
);
vertWidth = 1000;
width = 500;
},
{
layerId = "0F1A0AC1-B8D5-4257-ADED-894CB2B827EF";
paths = (
{
closed = 1;
nodes = (
"52 0 LINE",
"192 0 LINE",
"192 502 LINE SMOOTH",
"192 578 OFFCURVE",
"226 618 OFFCURVE",
"290 618 CURVE SMOOTH",
"342 618 OFFCURVE",
"390 582 OFFCURVE",
"428 511 CURVE",
"548 592 LINE",
"506 690 OFFCURVE",
"418 740 OFFCURVE",
"290 740 CURVE SMOOTH",
"134 740 OFFCURVE",
"52 665 OFFCURVE",
"52 522 CURVE SMOOTH"
);
},
{
closed = 1;
nodes = (
"507 -10 OFFCURVE",
"572 58 OFFCURVE",
"572 197 CURVE SMOOTH",
"572 316 OFFCURVE",
"519 388 OFFCURVE",
"407 401 CURVE",
"407 405 LINE",
"548 592 LINE",
"422 629 LINE",
"260 407 LINE",
"310 293 LINE",
"320 293 LINE SMOOTH",
"391 293 OFFCURVE",
"428 262 OFFCURVE",
"428 204 CURVE SMOOTH",
"428 144 OFFCURVE",
"399 112 OFFCURVE",
"342 112 CURVE SMOOTH",
"319 112 OFFCURVE",
"292 116 OFFCURVE",
"260 126 CURVE",
"260 4 LINE",
"299 -6 OFFCURVE",
"339 -10 OFFCURVE",
"374 -10 CURVE SMOOTH"
);
}
);
vertWidth = 1000;
width = 600;
},
{
layerId = "72F02222-BF87-41FD-9A7E-0ABB550ED2DB";
paths = (
{
closed = 1;
nodes = (
"70 0 LINE",
"150 0 LINE",
"150 463 LINE SMOOTH",
"150 598 OFFCURVE",
"206 668 OFFCURVE",
"316 668 CURVE SMOOTH",
"390 668 OFFCURVE",
"459 633 OFFCURVE",
"489 566 CURVE",
"537 631 LINE",
"491 703 OFFCURVE",
"416 740 OFFCURVE",
"316 740 CURVE SMOOTH",
"154 740 OFFCURVE",
"70 648 OFFCURVE",
"70 473 CURVE SMOOTH"
);
},
{
closed = 1;
nodes = (
"489 -10 OFFCURVE",
"560 60 OFFCURVE",
"560 196 CURVE SMOOTH",
"560 322 OFFCURVE",
"500 385 OFFCURVE",
"371 391 CURVE",
"371 395 LINE",
"537 631 LINE",
"457 644 LINE",
"277 390 LINE",
"307 326 LINE",
"317 326 LINE SMOOTH",
"431 326 OFFCURVE",
"478 288 OFFCURVE",
"478 195 CURVE SMOOTH",
"478 104 OFFCURVE",
"433 62 OFFCURVE",
"336 62 CURVE SMOOTH",
"303 62 OFFCURVE",
"271 67 OFFCURVE",
"239 78 CURVE",
"239 5 LINE",
"275 -6 OFFCURVE",
"318 -10 OFFCURVE",
"352 -10 CURVE SMOOTH"
);
}
);
vertWidth = 1000;
width = 600;
},
{
layerId = "D0C1F23C-2F9F-4D30-8C4D-098ED54EEF3D";
paths = (
{
closed = 1;
nodes = (
"88 0 LINE",
"108 0 LINE",
"108 485 LINE SMOOTH",
"108 647 OFFCURVE",
"170 720 OFFCURVE",
"307 720 CURVE SMOOTH",
"375 720 OFFCURVE",
"449 706 OFFCURVE",
"509 658 CURVE",
"526 672 LINE",
"461 724 OFFCURVE",
"382 740 OFFCURVE",
"307 740 CURVE SMOOTH",
"159 740 OFFCURVE",
"88 660 OFFCURVE",
"88 490 CURVE SMOOTH"
);
},
{
closed = 1;
nodes = (
"471 -10 OFFCURVE",
"548 58 OFFCURVE",
"548 180 CURVE SMOOTH",
"548 302 OFFCURVE",
"470 370 OFFCURVE",
"332 370 CURVE",
"332 372 LINE",
"526 672 LINE",
"506 676 LINE",
"306 369 LINE",
"318 350 LINE",
"338 350 LINE SMOOTH",
"462 350 OFFCURVE",
"528 290 OFFCURVE",
"528 180 CURVE SMOOTH",
"528 70 OFFCURVE",
"461 10 OFFCURVE",
"335 10 CURVE SMOOTH",
"298 10 OFFCURVE",
"267 15 OFFCURVE",
"236 26 CURVE",
"230 7 LINE",
"264 -5 OFFCURVE",
"299 -10 OFFCURVE",
"335 -10 CURVE SMOOTH"
);
}
);
width = 600;
}
);
leftKerningGroup = H;
rightKerningGroup = B;
unicode = 1E9E;
},
{
color = 10;
glyphname = Schwa;
lastChange = "2021-05-05 04:42:54 +0000";
layers = (
{
layerId = "D65C9A1E-0FCA-4B2D-8EDF-9F36CA9182A1";
paths = (
{
closed = 1;
nodes = (
"386 -10 OFFCURVE",
"440 88 OFFCURVE",
"440 337 CURVE SMOOTH",
"440 393 LINE SMOOTH",
"440 635 OFFCURVE",
"372 740 OFFCURVE",
"215 740 CURVE SMOOTH",
"172 740 OFFCURVE",
"124 732 OFFCURVE",
"87 718 CURVE",
"87 696 LINE",
"124 711 OFFCURVE",
"171 720 OFFCURVE",
"215 720 CURVE SMOOTH",
"359 720 OFFCURVE",
"420 625 OFFCURVE",
"420 393 CURVE SMOOTH",
"420 337 LINE SMOOTH",
"420 98 OFFCURVE",
"372 10 OFFCURVE",
"250 10 CURVE SMOOTH",
"128 10 OFFCURVE",
"80 98 OFFCURVE",
"80 337 CURVE SMOOTH",
"80 362 LINE",
"70 352 LINE",
"430 352 LINE",
"430 372 LINE",
"60 372 LINE",
"60 337 LINE SMOOTH",
"60 88 OFFCURVE",
"114 -10 OFFCURVE",
"250 -10 CURVE SMOOTH"
);
}
);
width = 500;
},
{
layerId = "E27A6A66-A1F8-4E1B-8224-7C0FE77551F2";
paths = (
{
closed = 1;
nodes = (
"397 -10 OFFCURVE",
"455 89 OFFCURVE",
"455 337 CURVE SMOOTH",
"455 393 LINE SMOOTH",
"455 634 OFFCURVE",
"381 740 OFFCURVE",
"212 740 CURVE SMOOTH",
"166 740 OFFCURVE",
"116 732 OFFCURVE",
"74 718 CURVE",
"74 643 LINE",
"117 660 OFFCURVE",
"161 668 OFFCURVE",
"206 668 CURVE SMOOTH",
"334 668 OFFCURVE",
"375 601 OFFCURVE",
"375 390 CURVE SMOOTH",
"375 340 LINE SMOOTH",
"375 131 OFFCURVE",
"344 62 OFFCURVE",
"250 62 CURVE SMOOTH",
"156 62 OFFCURVE",
"125 131 OFFCURVE",
"125 340 CURVE SMOOTH",
"125 354 LINE",
"108 334 LINE",
"414 334 LINE",
"414 402 LINE",
"45 402 LINE",
"45 337 LINE SMOOTH",
"45 89 OFFCURVE",
"103 -10 OFFCURVE",
"250 -10 CURVE SMOOTH"
);
}
);
vertWidth = 1000;
width = 500;
},
{
layerId = "FC9CFCDA-9E80-4E73-BA51-8504D15957FA";
paths = (
{
closed = 1;
nodes = (
"407 -10 OFFCURVE",
"470 90 OFFCURVE",
"470 337 CURVE SMOOTH",
"470 393 LINE SMOOTH",
"470 634 OFFCURVE",
"390 740 OFFCURVE",
"210 740 CURVE SMOOTH",
"161 740 OFFCURVE",
"109 732 OFFCURVE",
"61 718 CURVE",
"61 588 LINE",
"113 607 OFFCURVE",
"152 614 OFFCURVE",
"198 614 CURVE SMOOTH",
"306 614 OFFCURVE",
"328 576 OFFCURVE",
"328 388 CURVE SMOOTH",
"328 342 LINE SMOOTH",
"328 162 OFFCURVE",
"312 116 OFFCURVE",
"249 116 CURVE SMOOTH",
"186 116 OFFCURVE",
"170 162 OFFCURVE",
"170 342 CURVE SMOOTH",
"170 346 LINE",
"145 316 LINE",
"399 316 LINE",
"399 432 LINE",
"30 432 LINE",
"30 337 LINE SMOOTH",
"30 90 OFFCURVE",
"93 -10 OFFCURVE",
"250 -10 CURVE SMOOTH"
);
}
);
vertWidth = 1000;
width = 500;
},
{
layerId = "0F1A0AC1-B8D5-4257-ADED-894CB2B827EF";
paths = (
{
closed = 1;
nodes = (
"475 -10 OFFCURVE",
"545 90 OFFCURVE",
"545 337 CURVE SMOOTH",
"545 393 LINE SMOOTH",
"545 634 OFFCURVE",
"457 740 OFFCURVE",
"257 740 CURVE SMOOTH",
"202 740 OFFCURVE",
"144 732 OFFCURVE",
"90 718 CURVE",
"89 588 LINE",
"151 607 OFFCURVE",
"196 614 OFFCURVE",
"250 614 CURVE SMOOTH",
"377 614 OFFCURVE",
"403 576 OFFCURVE",
"403 388 CURVE SMOOTH",
"403 342 LINE SMOOTH",
"403 162 OFFCURVE",
"382 116 OFFCURVE",
"299 116 CURVE SMOOTH",
"216 116 OFFCURVE",
"195 162 OFFCURVE",
"195 342 CURVE SMOOTH",
"195 346 LINE",
"183 316 LINE",
"466 316 LINE",
"466 432 LINE",
"55 432 LINE",
"55 337 LINE SMOOTH",
"55 90 OFFCURVE",
"125 -10 OFFCURVE",
"300 -10 CURVE SMOOTH"
);
}
);
vertWidth = 1000;
width = 600;
},
{
layerId = "72F02222-BF87-41FD-9A7E-0ABB550ED2DB";
paths = (
{
closed = 1;
nodes = (
"465 -10 OFFCURVE",
"530 89 OFFCURVE",
"530 337 CURVE SMOOTH",
"530 393 LINE SMOOTH",
"530 635 OFFCURVE",
"448 740 OFFCURVE",
"259 740 CURVE SMOOTH",
"207 740 OFFCURVE",
"151 732 OFFCURVE",
"103 718 CURVE",
"102 643 LINE",
"152 660 OFFCURVE",
"205 668 OFFCURVE",
"256 668 CURVE SMOOTH",
"403 668 OFFCURVE",
"450 601 OFFCURVE",
"450 390 CURVE SMOOTH",
"450 340 LINE SMOOTH",
"450 131 OFFCURVE",
"412 62 OFFCURVE",
"299 62 CURVE SMOOTH",
"186 62 OFFCURVE",
"150 130 OFFCURVE",
"150 340 CURVE SMOOTH",
"150 354 LINE",
"139 334 LINE",
"485 334 LINE",
"485 402 LINE",
"70 402 LINE",
"70 337 LINE SMOOTH",
"70 89 OFFCURVE",
"135 -10 OFFCURVE",
"300 -10 CURVE SMOOTH"
);
}
);
vertWidth = 1000;
width = 600;
},
{
layerId = "D0C1F23C-2F9F-4D30-8C4D-098ED54EEF3D";
paths = (
{
closed = 1;
nodes = (
"454 -10 OFFCURVE",
"515 88 OFFCURVE",
"515 337 CURVE SMOOTH",
"515 393 LINE SMOOTH",
"515 635 OFFCURVE",
"439 740 OFFCURVE",
"262 740 CURVE SMOOTH",
"213 740 OFFCURVE",
"158 732 OFFCURVE",
"116 718 CURVE",
"116 697 LINE",
"155 711 OFFCURVE",
"212 720 OFFCURVE",
"262 720 CURVE SMOOTH",
"426 720 OFFCURVE",
"495 625 OFFCURVE",
"495 393 CURVE SMOOTH",
"495 337 LINE SMOOTH",
"495 98 OFFCURVE",
"441 10 OFFCURVE",
"300 10 CURVE SMOOTH",
"159 10 OFFCURVE",
"105 98 OFFCURVE",
"105 337 CURVE SMOOTH",
"105 362 LINE",
"95 352 LINE",
"505 352 LINE",
"505 372 LINE",
"85 372 LINE",
"85 337 LINE SMOOTH",
"85 88 OFFCURVE",
"146 -10 OFFCURVE",
"300 -10 CURVE SMOOTH"
);
}
);
width = 600;
}
);
leftKerningGroup = O;
rightKerningGroup = O;
unicode = 018F;
},
{
color = 6;
glyphname = T;
lastChange = "2021-05-05 04:42:54 +0000";
layers = (
{
anchors = (
{
name = bottom;
position = "{250, 0}";
},
{
name = cedi;
position = "{270, 0}";
},
{
name = center;
position = "{250, 365}";
},
{
name = top;
position = "{250, 730}";
}
);
layerId = "D65C9A1E-0FCA-4B2D-8EDF-9F36CA9182A1";
paths = (
{
closed = 1;
nodes = (
"260 0 LINE",
"260 710 LINE",
"455 710 LINE",
"455 730 LINE",
"45 730 LINE",
"45 710 LINE",
"240 710 LINE",
"240 0 LINE"
);
}
);
width = 500;
},
{
anchors = (
{
name = bottom;
position = "{250, 0}";
},
{
name = cedi;
position = "{253, 0}";
},
{
name = center;
position = "{250, 365}";
},
{
name = top;
position = "{250, 730}";
}
);
layerId = "E27A6A66-A1F8-4E1B-8224-7C0FE77551F2";
paths = (
{
closed = 1;
nodes = (
"291 0 LINE",
"291 658 LINE",
"460 658 LINE",
"460 730 LINE",
"40 730 LINE",
"40 658 LINE",
"209 658 LINE",
"209 0 LINE"
);
}
);
vertWidth = 1000;
width = 500;
},
{
anchors = (
{
name = bottom;
position = "{250, 0}";
},
{
name = cedi;
position = "{241, 0}";
},
{
name = center;
position = "{250, 365}";
},
{
name = top;
position = "{250, 730}";
}
);
layerId = "FC9CFCDA-9E80-4E73-BA51-8504D15957FA";
paths = (
{
closed = 1;
nodes = (
"322 0 LINE",
"322 606 LINE",
"465 606 LINE",
"465 730 LINE",
"35 730 LINE",
"35 606 LINE",
"178 606 LINE",
"178 0 LINE"
);
}
);
vertWidth = 1000;
width = 500;
},
{
anchors = (
{
name = bottom;
position = "{300, 0}";
},
{
name = cedi;
position = "{291, 0}";
},
{
name = center;
position = "{300, 365}";
},
{
name = top;
position = "{300, 730}";
}
);
layerId = "0F1A0AC1-B8D5-4257-ADED-894CB2B827EF";
paths = (
{
closed = 1;
nodes = (
"372 0 LINE",
"372 606 LINE",
"550 606 LINE",
"550 730 LINE",
"50 730 LINE",
"50 606 LINE",
"228 606 LINE",
"228 0 LINE"
);
}
);
vertWidth = 1000;
width = 600;
},
{
anchors = (
{
name = bottom;
position = "{300, 0}";
},
{
name = cedi;
position = "{303, 0}";
},
{
name = center;
position = "{300, 365}";
},
{
name = top;
position = "{300, 730}";
}
);
layerId = "72F02222-BF87-41FD-9A7E-0ABB550ED2DB";
paths = (
{
closed = 1;
nodes = (
"341 0 LINE",
"341 658 LINE",
"545 658 LINE",
"545 730 LINE",
"55 730 LINE",
"55 658 LINE",
"259 658 LINE",
"259 0 LINE"
);
}
);
vertWidth = 1000;
width = 600;
},
{
anchors = (
{
name = bottom;
position = "{300, 0}";
},
{
name = cedi;
position = "{320, 0}";
},
{
name = center;
position = "{300, 365}";
},
{
name = top;
position = "{300, 730}";
}
);
layerId = "D0C1F23C-2F9F-4D30-8C4D-098ED54EEF3D";
paths = (
{
closed = 1;
nodes = (
"310 0 LINE",
"310 710 LINE",
"540 710 LINE",
"540 730 LINE",
"60 730 LINE",
"60 710 LINE",
"290 710 LINE",
"290 0 LINE"
);
}
);
width = 600;
}
);
leftKerningGroup = T;
rightKerningGroup = T;
rightMetricsKey = "=|";
unicode = 0054;
},
{
color = 10;
glyphname = Tbar;
lastChange = "2021-05-05 04:42:54 +0000";
layers = (
{
components = (
{
name = T;
}
);
layerId = "D65C9A1E-0FCA-4B2D-8EDF-9F36CA9182A1";
paths = (
{
closed = 1;
nodes = (
"430 376 LINE",
"430 396 LINE",
"70 396 LINE",
"70 376 LINE"
);
}
);
width = 500;
},
{
components = (
{
alignment = -1;
name = T;
}
);
layerId = "E27A6A66-A1F8-4E1B-8224-7C0FE77551F2";
paths = (
{
closed = 1;
nodes = (
"440 351 LINE",
"440 421 LINE",
"60 421 LINE",
"60 351 LINE"
);
}
);
vertWidth = 1000;
width = 500;
},
{
components = (
{
name = T;
}
);
layerId = "FC9CFCDA-9E80-4E73-BA51-8504D15957FA";
paths = (
{
closed = 1;
nodes = (
"450 328 LINE",
"450 444 LINE",
"50 444 LINE",
"50 328 LINE"
);
}
);
width = 500;
},
{
components = (
{
name = T;
}
);
layerId = "0F1A0AC1-B8D5-4257-ADED-894CB2B827EF";
paths = (
{
closed = 1;
nodes = (
"520 328 LINE",
"520 444 LINE",
"80 444 LINE",
"80 328 LINE"
);
}
);
width = 600;
},
{
components = (
{
alignment = -1;
name = T;
}
);
layerId = "72F02222-BF87-41FD-9A7E-0ABB550ED2DB";
paths = (
{
closed = 1;
nodes = (
"510 351 LINE",
"510 421 LINE",
"90 421 LINE",
"90 351 LINE"
);
}
);
vertWidth = 1000;
width = 600;
},
{
components = (
{
name = T;
}
);
layerId = "D0C1F23C-2F9F-4D30-8C4D-098ED54EEF3D";
paths = (
{
closed = 1;
nodes = (
"500 376 LINE",
"500 396 LINE",
"100 396 LINE",
"100 376 LINE"
);
}
);
width = 600;
}
);
leftKerningGroup = W;
rightKerningGroup = W;
unicode = 0166;
},
{
color = 6;
glyphname = U;
lastChange = "2021-05-05 04:42:54 +0000";
layers = (
{
anchors = (
{
name = bottom;
position = "{250, 0}";
},
{
name = ogonek;
position = "{290, 0}";
},
{
name = top;
position = "{250, 730}";
},
{
name = topright;
position = "{418, 730}";
}
);
layerId = "D65C9A1E-0FCA-4B2D-8EDF-9F36CA9182A1";
paths = (
{
closed = 1;
nodes = (
"374 -10 OFFCURVE",
"430 54 OFFCURVE",
"430 195 CURVE SMOOTH",
"430 730 LINE",
"410 730 LINE",
"410 195 LINE SMOOTH",
"410 65 OFFCURVE",
"362 10 OFFCURVE",
"250 10 CURVE SMOOTH",
"138 10 OFFCURVE",
"90 65 OFFCURVE",
"90 195 CURVE SMOOTH",
"90 730 LINE",
"70 730 LINE",
"70 195 LINE SMOOTH",
"70 54 OFFCURVE",
"126 -10 OFFCURVE",
"250 -10 CURVE SMOOTH"
);
}
);
width = 500;
},
{
anchors = (
{
name = bottom;
position = "{250, 0}";
},
{
name = ogonek;
position = "{285, 0}";
},
{
name = top;
position = "{250, 730}";
},
{
name = topright;
position = "{378, 730}";
}
);
layerId = "E27A6A66-A1F8-4E1B-8224-7C0FE77551F2";
paths = (
{
closed = 1;
nodes = (
"384 -10 OFFCURVE",
"445 54 OFFCURVE",
"445 195 CURVE SMOOTH",
"445 730 LINE",
"365 730 LINE",
"365 203 LINE SMOOTH",
"365 103 OFFCURVE",
"332 62 OFFCURVE",
"250 62 CURVE SMOOTH",
"168 62 OFFCURVE",
"135 103 OFFCURVE",
"135 203 CURVE SMOOTH",
"135 730 LINE",
"55 730 LINE",
"55 195 LINE SMOOTH",
"55 54 OFFCURVE",
"116 -10 OFFCURVE",
"250 -10 CURVE SMOOTH"
);
}
);
vertWidth = 1000;
width = 500;
},
{
anchors = (
{
name = bottom;
position = "{250, 0}";
},
{
name = ogonek;
position = "{290, 0}";
},
{
name = top;
position = "{250, 730}";
},
{
name = topright;
position = "{363, 730}";
}
);
layerId = "FC9CFCDA-9E80-4E73-BA51-8504D15957FA";
paths = (
{
closed = 1;
nodes = (
"395 -10 OFFCURVE",
"460 54 OFFCURVE",
"460 195 CURVE SMOOTH",
"460 730 LINE",
"320 730 LINE",
"320 210 LINE SMOOTH",
"320 140 OFFCURVE",
"301 114 OFFCURVE",
"250 114 CURVE SMOOTH",
"199 114 OFFCURVE",
"180 140 OFFCURVE",
"180 210 CURVE SMOOTH",
"180 730 LINE",
"40 730 LINE",
"40 195 LINE SMOOTH",
"40 54 OFFCURVE",
"105 -10 OFFCURVE",
"250 -10 CURVE SMOOTH"
);
}
);
vertWidth = 1000;
width = 500;
},
{
anchors = (
{
name = bottom;
position = "{300, 0}";
},
{
name = ogonek;
position = "{300, 0}";
},
{
name = top;
position = "{300, 730}";
},
{
name = topright;
position = "{455, 730}";
}
);
layerId = "0F1A0AC1-B8D5-4257-ADED-894CB2B827EF";
paths = (
{
closed = 1;
nodes = (
"469 -10 OFFCURVE",
"545 60 OFFCURVE",
"545 215 CURVE SMOOTH",
"545 730 LINE",
"405 730 LINE",
"405 225 LINE SMOOTH",
"405 145 OFFCURVE",
"376 114 OFFCURVE",
"300 114 CURVE SMOOTH",
"224 114 OFFCURVE",
"195 145 OFFCURVE",
"195 225 CURVE SMOOTH",
"195 730 LINE",
"55 730 LINE",
"55 215 LINE SMOOTH",
"55 60 OFFCURVE",
"131 -10 OFFCURVE",
"300 -10 CURVE SMOOTH"
);
}
);
vertWidth = 1000;
width = 600;
},
{
anchors = (
{
name = bottom;
position = "{300, 0}";
},
{
name = ogonek;
position = "{300, 0}";
},
{
name = top;
position = "{300, 730}";
},
{
name = topright;
position = "{463, 730}";
}
);
layerId = "72F02222-BF87-41FD-9A7E-0ABB550ED2DB";
paths = (
{
closed = 1;
nodes = (
"459 -10 OFFCURVE",
"530 60 OFFCURVE",
"530 215 CURVE SMOOTH",
"530 730 LINE",
"450 730 LINE",
"450 220 LINE SMOOTH",
"450 108 OFFCURVE",
"406 62 OFFCURVE",
"300 62 CURVE SMOOTH",
"194 62 OFFCURVE",
"150 108 OFFCURVE",
"150 220 CURVE SMOOTH",
"150 730 LINE",
"70 730 LINE",
"70 215 LINE SMOOTH",
"70 60 OFFCURVE",
"141 -10 OFFCURVE",
"300 -10 CURVE SMOOTH"
);
}
);
vertWidth = 1000;
width = 600;
},
{
anchors = (
{
name = bottom;
position = "{300, 0}";
},
{
name = ogonek;
position = "{300, 0}";
},
{
name = top;
position = "{300, 730}";
},
{
name = topright;
position = "{495, 730}";
}
);
layerId = "D0C1F23C-2F9F-4D30-8C4D-098ED54EEF3D";
paths = (
{
closed = 1;
nodes = (
"448 -10 OFFCURVE",
"515 60 OFFCURVE",
"515 215 CURVE SMOOTH",
"515 730 LINE",
"495 730 LINE",
"495 215 LINE SMOOTH",
"495 71 OFFCURVE",
"437 10 OFFCURVE",
"300 10 CURVE SMOOTH",
"163 10 OFFCURVE",
"105 71 OFFCURVE",
"105 215 CURVE SMOOTH",
"105 730 LINE",
"85 730 LINE",
"85 215 LINE SMOOTH",
"85 60 OFFCURVE",
"152 -10 OFFCURVE",
"300 -10 CURVE SMOOTH"
);
}
);
width = 600;
}
);
leftKerningGroup = U;
rightKerningGroup = U;
rightMetricsKey = "=|";
unicode = 0055;
},
{
color = 10;
glyphname = Uogonek;
lastChange = "2021-11-23 11:15:02 +0000";
layers = (
{
components = (
{
name = U;
}
);
layerId = "D65C9A1E-0FCA-4B2D-8EDF-9F36CA9182A1";
paths = (
{
closed = 1;
nodes = (
"275 -220 OFFCURVE",
"296 -217 OFFCURVE",
"313 -212 CURVE",
"313 -190 LINE",
"297 -196 OFFCURVE",
"275 -200 OFFCURVE",
"255 -200 CURVE SMOOTH",
"220 -200 OFFCURVE",
"178 -191 OFFCURVE",
"178 -145 CURVE SMOOTH",
"178 -97 OFFCURVE",
"228 -57 OFFCURVE",
"320 0 CURVE",
"301.765 8.743 LINE",
"212.645 -42.928 OFFCURVE",
"158 -86.731 OFFCURVE",
"158 -145 CURVE SMOOTH",
"158 -173 OFFCURVE",
"170 -220 OFFCURVE",
"255 -220 CURVE SMOOTH"
);
}
);
width = 500;
},
{
components = (
{
name = U;
}
);
layerId = "E27A6A66-A1F8-4E1B-8224-7C0FE77551F2";
paths = (
{
closed = 1;
nodes = (
"288 -218 OFFCURVE",
"307 -216 OFFCURVE",
"324 -211 CURVE",
"324 -145 LINE",
"309 -150 OFFCURVE",
"292 -153 OFFCURVE",
"273 -153 CURVE SMOOTH",
"246 -153 OFFCURVE",
"226 -144 OFFCURVE",
"226 -117 CURVE SMOOTH",
"226 -81 OFFCURVE",
"263 -39 OFFCURVE",
"329 0 CURVE",
"258.913 20.903 LINE",
"189.594 -23.983 OFFCURVE",
"152 -76.239 OFFCURVE",
"152 -130 CURVE SMOOTH",
"152 -186 OFFCURVE",
"194 -218 OFFCURVE",
"267 -218 CURVE SMOOTH"
);
}
);
width = 500;
},
{
components = (
{
name = U;
}
);
layerId = "FC9CFCDA-9E80-4E73-BA51-8504D15957FA";
paths = (
{
closed = 1;
nodes = (
"314 -218 OFFCURVE",
"332 -217 OFFCURVE",
"348 -216 CURVE",
"348 -113 LINE",
"334 -114 OFFCURVE",
"319 -115 OFFCURVE",
"304 -115 CURVE SMOOTH",
"276 -115 OFFCURVE",
"261 -103 OFFCURVE",
"261 -81 CURVE SMOOTH",
"261 -54 OFFCURVE",
"294 -25 OFFCURVE",
"352 5 CURVE",
"225.3 33.764 LINE",
"164.396 -10.891 OFFCURVE",
"135 -53.506 OFFCURVE",
"135 -102 CURVE SMOOTH",
"135 -176 OFFCURVE",
"193 -218 OFFCURVE",
"294 -218 CURVE SMOOTH"
);
}
);
width = 500;
},
{
components = (
{
name = U;
}
);
layerId = "0F1A0AC1-B8D5-4257-ADED-894CB2B827EF";
paths = (
{
closed = 1;
nodes = (
"361 -218 OFFCURVE",
"379 -217 OFFCURVE",
"395 -216 CURVE",
"395 -113 LINE",
"381 -114 OFFCURVE",
"366 -115 OFFCURVE",
"351 -115 CURVE SMOOTH",
"323 -115 OFFCURVE",
"308 -103 OFFCURVE",
"308 -81 CURVE SMOOTH",
"308 -55 OFFCURVE",
"341 -27 OFFCURVE",
"399 2 CURVE",
"271.333 33.054 LINE",
"211.085 -11.343 OFFCURVE",
"182 -53.763 OFFCURVE",
"182 -102 CURVE SMOOTH",
"182 -176 OFFCURVE",
"240 -218 OFFCURVE",
"341 -218 CURVE SMOOTH"
);
}
);
width = 600;
},
{
components = (
{
name = U;
}
);
layerId = "72F02222-BF87-41FD-9A7E-0ABB550ED2DB";
paths = (
{
closed = 1;
nodes = (
"328 -218 OFFCURVE",
"347 -216 OFFCURVE",
"364 -211 CURVE",
"364 -145 LINE",
"349 -150 OFFCURVE",
"332 -153 OFFCURVE",
"313 -153 CURVE SMOOTH",
"286 -153 OFFCURVE",
"266 -144 OFFCURVE",
"266 -117 CURVE SMOOTH",
"266 -81 OFFCURVE",
"303 -39 OFFCURVE",
"369 0 CURVE",
"298.913 20.903 LINE",
"229.594 -23.983 OFFCURVE",
"192 -76.239 OFFCURVE",
"192 -130 CURVE SMOOTH",
"192 -186 OFFCURVE",
"234 -218 OFFCURVE",
"307 -218 CURVE SMOOTH"
);
}
);
width = 600;
},
{
components = (
{
name = U;
}
);
layerId = "D0C1F23C-2F9F-4D30-8C4D-098ED54EEF3D";
paths = (
{
closed = 1;
nodes = (
"325 -220 OFFCURVE",
"346 -217 OFFCURVE",
"363 -212 CURVE",
"363 -190 LINE",
"347 -196 OFFCURVE",
"325 -200 OFFCURVE",
"305 -200 CURVE SMOOTH",
"270 -200 OFFCURVE",
"228 -191 OFFCURVE",
"228 -145 CURVE SMOOTH",
"228 -97 OFFCURVE",
"278 -57 OFFCURVE",
"370 0 CURVE",
"341.328 1.687 LINE",
"259.361 -48.843 OFFCURVE",
"208 -89.918 OFFCURVE",
"208 -145 CURVE SMOOTH",
"208 -173 OFFCURVE",
"220 -220 OFFCURVE",
"305 -220 CURVE SMOOTH"
);
}
);
width = 600;
}
);
leftKerningGroup = U;
rightKerningGroup = U;
unicode = 0172;
},
{
color = 6;
glyphname = V;
lastChange = "2021-05-05 04:42:54 +0000";
layers = (
{
layerId = "D65C9A1E-0FCA-4B2D-8EDF-9F36CA9182A1";
paths = (
{
closed = 1;
nodes = (
"267 0 LINE",
"465 730 LINE",
"444 730 LINE",
"252 19 LINE",
"248 19 LINE",
"56 730 LINE",
"35 730 LINE",
"233 0 LINE"
);
}
);
width = 500;
},
{
layerId = "E27A6A66-A1F8-4E1B-8224-7C0FE77551F2";
paths = (
{
closed = 1;
nodes = (
"299 0 LINE",
"480 730 LINE",
"398 730 LINE",
"252 104 LINE",
"248 104 LINE",
"102 730 LINE",
"20 730 LINE",
"201 0 LINE"
);
}
);
vertWidth = 1000;
width = 500;
},
{
layerId = "FC9CFCDA-9E80-4E73-BA51-8504D15957FA";
paths = (
{
closed = 1;
nodes = (
"330 0 LINE",
"495 730 LINE",
"353 730 LINE",
"252 190 LINE",
"248 190 LINE",
"147 730 LINE",
"5 730 LINE",
"170 0 LINE"
);
}
);
vertWidth = 1000;
width = 500;
},
{
layerId = "0F1A0AC1-B8D5-4257-ADED-894CB2B827EF";
paths = (
{
closed = 1;
nodes = (
"384 0 LINE",
"580 730 LINE",
"434 730 LINE",
"302 170 LINE",
"298 170 LINE",
"166 730 LINE",
"20 730 LINE",
"216 0 LINE"
);
}
);
vertWidth = 1000;
width = 600;
},
{
layerId = "72F02222-BF87-41FD-9A7E-0ABB550ED2DB";
paths = (
{
closed = 1;
nodes = (
"351 0 LINE",
"565 730 LINE",
"481 730 LINE",
"302 94 LINE",
"298 94 LINE",
"119 730 LINE",
"35 730 LINE",
"249 0 LINE"
);
}
);
vertWidth = 1000;
width = 600;
},
{
layerId = "D0C1F23C-2F9F-4D30-8C4D-098ED54EEF3D";
paths = (
{
closed = 1;
nodes = (
"317 0 LINE",
"550 730 LINE",
"529 730 LINE",
"302 18 LINE",
"298 18 LINE",
"71 730 LINE",
"50 730 LINE",
"283 0 LINE"
);
}
);
width = 600;
}
);
leftKerningGroup = V;
rightKerningGroup = V;
rightMetricsKey = "=|";
unicode = 0056;
},
{
color = 6;
glyphname = W;
lastChange = "2021-05-05 04:42:54 +0000";
layers = (
{
anchors = (
{
name = bottom;
position = "{250, 0}";
},
{
name = top;
position = "{250, 730}";
}
);
layerId = "D65C9A1E-0FCA-4B2D-8EDF-9F36CA9182A1";
paths = (
{
closed = 1;
nodes = (
"132 0 LINE",
"248 605 LINE",
"252 605 LINE",
"368 0 LINE",
"405 0 LINE",
"485 730 LINE",
"464 730 LINE",
"388 25 LINE",
"384 25 LINE",
"268 630 LINE",
"232 630 LINE",
"116 25 LINE",
"112 25 LINE",
"36 730 LINE",
"15 730 LINE",
"95 0 LINE"
);
}
);
width = 500;
},
{
anchors = (
{
name = bottom;
position = "{250, 0}";
},
{
name = top;
position = "{250, 730}";
}
);
layerId = "E27A6A66-A1F8-4E1B-8224-7C0FE77551F2";
paths = (
{
closed = 1;
nodes = (
"191 0 LINE",
"248 538 LINE",
"252 538 LINE",
"309 0 LINE",
"425 0 LINE",
"490 730 LINE",
"408 730 LINE",
"368 103 LINE",
"364 103 LINE",
"312 630 LINE",
"188 630 LINE",
"136 103 LINE",
"132 103 LINE",
"92 730 LINE",
"10 730 LINE",
"75 0 LINE"
);
}
);
vertWidth = 1000;
width = 500;
},
{
anchors = (
{
name = bottom;
position = "{250, 0}";
},
{
name = top;
position = "{250, 730}";
}
);
layerId = "FC9CFCDA-9E80-4E73-BA51-8504D15957FA";
paths = (
{
closed = 1;
nodes = (
"220 0 LINE",
"248 300 LINE",
"252 300 LINE",
"280 0 LINE",
"445 0 LINE",
"495 730 LINE",
"355 730 LINE",
"347 230 LINE",
"343 230 LINE",
"295 630 LINE",
"205 630 LINE",
"157 230 LINE",
"153 230 LINE",
"145 730 LINE",
"5 730 LINE",
"55 0 LINE"
);
}
);
vertWidth = 1000;
width = 500;
},
{
anchors = (
{
name = bottom;
position = "{300, 0}";
},
{
name = top;
position = "{300, 730}";
}
);
layerId = "0F1A0AC1-B8D5-4257-ADED-894CB2B827EF";
paths = (
{
closed = 1;
nodes = (
"250 0 LINE",
"298 350 LINE",
"302 350 LINE",
"350 0 LINE",
"519 0 LINE",
"580 730 LINE",
"440 730 LINE",
"411 210 LINE",
"406 210 LINE",
"355 630 LINE",
"245 630 LINE",
"194 210 LINE",
"189 210 LINE",
"160 730 LINE",
"20 730 LINE",
"81 0 LINE"
);
}
);
vertWidth = 1000;
width = 600;
},
{
anchors = (
{
name = bottom;
position = "{300, 0}";
},
{
name = top;
position = "{300, 730}";
}
);
layerId = "72F02222-BF87-41FD-9A7E-0ABB550ED2DB";
paths = (
{
closed = 1;
nodes = (
"226 0 LINE",
"298 543 LINE",
"302 543 LINE",
"374 0 LINE",
"490 0 LINE",
"575 730 LINE",
"493 730 LINE",
"433 98 LINE",
"429 98 LINE",
"362 630 LINE",
"238 630 LINE",
"171 98 LINE",
"167 98 LINE",
"107 730 LINE",
"25 730 LINE",
"110 0 LINE"
);
}
);
vertWidth = 1000;
width = 600;
},
{
anchors = (
{
name = bottom;
position = "{300, 0}";
},
{
name = top;
position = "{300, 730}";
}
);
layerId = "D0C1F23C-2F9F-4D30-8C4D-098ED54EEF3D";
paths = (
{
closed = 1;
nodes = (
"162 0 LINE",
"298 612 LINE",
"302 612 LINE",
"438 0 LINE",
"474 0 LINE",
"570 730 LINE",
"550 730 LINE",
"457 25 LINE",
"453 25 LINE",
"318 630 LINE",
"282 630 LINE",
"147 25 LINE",
"143 25 LINE",
"50 730 LINE",
"30 730 LINE",
"126 0 LINE"
);
}
);
width = 600;
}
);
leftKerningGroup = W;
rightKerningGroup = W;
rightMetricsKey = "=|";
unicode = 0057;
},
{
color = 6;
glyphname = X;
lastChange = "2021-05-05 04:42:54 +0000";
layers = (
{
layerId = "D65C9A1E-0FCA-4B2D-8EDF-9F36CA9182A1";
paths = (
{
closed = 1;
nodes = (
"77 0 LINE",
"248 340 LINE",
"252 340 LINE",
"423 0 LINE",
"445 0 LINE",
"261 365 LINE",
"445 730 LINE",
"423 730 LINE",
"252 390 LINE",
"248 390 LINE",
"77 730 LINE",
"55 730 LINE",
"239 365 LINE",
"55 0 LINE"
);
}
);
width = 500;
},
{
layerId = "E27A6A66-A1F8-4E1B-8224-7C0FE77551F2";
paths = (
{
closed = 1;
nodes = (
"126 0 LINE",
"248 310 LINE",
"252 310 LINE",
"374 0 LINE",
"460 0 LINE",
"307 367 LINE",
"460 730 LINE",
"375 730 LINE",
"252 424 LINE",
"248 424 LINE",
"125 730 LINE",
"40 730 LINE",
"193 367 LINE",
"40 0 LINE"
);
}
);
vertWidth = 1000;
width = 500;
},
{
layerId = "FC9CFCDA-9E80-4E73-BA51-8504D15957FA";
paths = (
{
closed = 1;
nodes = (
"175 0 LINE",
"248 279 LINE",
"252 279 LINE",
"325 0 LINE",
"475 0 LINE",
"350 369 LINE",
"475 730 LINE",
"327 730 LINE",
"252 459 LINE",
"248 459 LINE",
"173 730 LINE",
"25 730 LINE",
"150 369 LINE",
"25 0 LINE"
);
}
);
vertWidth = 1000;
width = 500;
},
{
layerId = "0F1A0AC1-B8D5-4257-ADED-894CB2B827EF";
paths = (
{
closed = 1;
nodes = (
"190 0 LINE",
"298 279 LINE",
"302 279 LINE",
"410 0 LINE",
"560 0 LINE",
"400 369 LINE",
"558 730 LINE",
"410 730 LINE",
"302 459 LINE",
"298 459 LINE",
"190 730 LINE",
"42 730 LINE",
"200 369 LINE",
"40 0 LINE"
);
}
);
vertWidth = 1000;
width = 600;
},
{
layerId = "72F02222-BF87-41FD-9A7E-0ABB550ED2DB";
paths = (
{
closed = 1;
nodes = (
"146 0 LINE",
"298 310 LINE",
"302 310 LINE",
"454 0 LINE",
"540 0 LINE",
"357 367 LINE",
"540 730 LINE",
"455 730 LINE",
"302 424 LINE",
"298 424 LINE",
"145 730 LINE",
"60 730 LINE",
"243 367 LINE",
"60 0 LINE"
);
}
);
vertWidth = 1000;
width = 600;
},
{
layerId = "D0C1F23C-2F9F-4D30-8C4D-098ED54EEF3D";
paths = (
{
closed = 1;
nodes = (
"102 0 LINE",
"298 341 LINE",
"302 341 LINE",
"498 0 LINE",
"520 0 LINE",
"311 365 LINE",
"520 730 LINE",
"498 730 LINE",
"302 389 LINE",
"298 389 LINE",
"102 730 LINE",
"80 730 LINE",
"289 365 LINE",
"80 0 LINE"
);
}
);
width = 600;
}
);
leftKerningGroup = X;
rightKerningGroup = X;
rightMetricsKey = "=|";
unicode = 0058;
},
{
color = 6;
glyphname = Y;
lastChange = "2021-05-05 04:42:54 +0000";
layers = (
{
anchors = (
{
name = bottom;
position = "{250, 0}";
},
{
name = top;
position = "{250, 730}";
},
{
name = topleft;
position = "{20, 730}";
}
);
layerId = "D65C9A1E-0FCA-4B2D-8EDF-9F36CA9182A1";
paths = (
{
closed = 1;
nodes = (
"260 0 LINE",
"260 294 LINE",
"475 730 LINE",
"453 730 LINE",
"252 322 LINE",
"248 322 LINE",
"47 730 LINE",
"25 730 LINE",
"240 294 LINE",
"240 0 LINE"
);
}
);
width = 500;
},
{
anchors = (
{
name = bottom;
position = "{250, 0}";
},
{
name = top;
position = "{250, 730}";
},
{
name = topleft;
position = "{20, 730}";
}
);
layerId = "E27A6A66-A1F8-4E1B-8224-7C0FE77551F2";
paths = (
{
closed = 1;
nodes = (
"291 0 LINE",
"291 285 LINE",
"485 730 LINE",
"402 730 LINE",
"252 371 LINE",
"248 371 LINE",
"98 730 LINE",
"15 730 LINE",
"209 285 LINE",
"209 0 LINE"
);
}
);
vertWidth = 1000;
width = 500;
},
{
anchors = (
{
name = bottom;
position = "{250, 0}";
},
{
name = top;
position = "{250, 730}";
},
{
name = topleft;
position = "{20, 730}";
}
);
layerId = "FC9CFCDA-9E80-4E73-BA51-8504D15957FA";
paths = (
{
closed = 1;
nodes = (
"322 0 LINE",
"322 275 LINE",
"495 730 LINE",
"351 730 LINE",
"252 420 LINE",
"248 420 LINE",
"149 730 LINE",
"5 730 LINE",
"178 275 LINE",
"178 0 LINE"
);
}
);
vertWidth = 1000;
width = 500;
},
{
anchors = (
{
name = bottom;
position = "{300, 0}";
},
{
name = top;
position = "{300, 730}";
},
{
name = topleft;
position = "{35, 730}";
}
);
layerId = "0F1A0AC1-B8D5-4257-ADED-894CB2B827EF";
paths = (
{
closed = 1;
nodes = (
"372 0 LINE",
"372 275 LINE",
"580 730 LINE",
"436 730 LINE",
"302 420 LINE",
"298 420 LINE",
"164 730 LINE",
"20 730 LINE",
"228 275 LINE",
"228 0 LINE"
);
}
);
vertWidth = 1000;
width = 600;
},
{
anchors = (
{
name = bottom;
position = "{300, 0}";
},
{
name = top;
position = "{300, 730}";
},
{
name = topleft;
position = "{40, 730}";
}
);
layerId = "72F02222-BF87-41FD-9A7E-0ABB550ED2DB";
paths = (
{
closed = 1;
nodes = (
"341 0 LINE",
"341 285 LINE",
"565 730 LINE",
"482 730 LINE",
"302 371 LINE",
"298 371 LINE",
"118 730 LINE",
"35 730 LINE",
"259 285 LINE",
"259 0 LINE"
);
}
);
vertWidth = 1000;
width = 600;
},
{
anchors = (
{
name = bottom;
position = "{300, 0}";
},
{
name = top;
position = "{300, 730}";
},
{
name = topleft;
position = "{45, 730}";
}
);
layerId = "D0C1F23C-2F9F-4D30-8C4D-098ED54EEF3D";
paths = (
{
closed = 1;
nodes = (
"310 0 LINE",
"310 294 LINE",
"550 730 LINE",
"526 730 LINE",
"302 321 LINE",
"298 321 LINE",
"74 730 LINE",
"50 730 LINE",
"290 294 LINE",
"290 0 LINE"
);
}
);
width = 600;
}
);
leftKerningGroup = Y;
rightKerningGroup = Y;
rightMetricsKey = "=|";
unicode = 0059;
},
{
color = 6;
glyphname = Z;
lastChange = "2021-05-05 04:42:54 +0000";
layers = (
{
anchors = (
{
name = bottom;
position = "{250, 0}";
},
{
name = center;
position = "{250, 365}";
},
{
name = top;
position = "{250, 730}";
}
);
layerId = "D65C9A1E-0FCA-4B2D-8EDF-9F36CA9182A1";
paths = (
{
closed = 1;
nodes = (
"420 0 LINE",
"420 20 LINE",
"103 20 LINE",
"103 24 LINE",
"420 710 LINE",
"420 730 LINE",
"80 730 LINE",
"80 710 LINE",
"397 710 LINE",
"397 706 LINE",
"80 20 LINE",
"80 0 LINE"
);
}
);
width = 500;
},
{
anchors = (
{
name = bottom;
position = "{250, 0}";
},
{
name = center;
position = "{250, 365}";
},
{
name = top;
position = "{250, 730}";
}
);
layerId = "E27A6A66-A1F8-4E1B-8224-7C0FE77551F2";
paths = (
{
closed = 1;
nodes = (
"430 0 LINE",
"430 70 LINE",
"160 70 LINE",
"160 74 LINE",
"430 660 LINE",
"430 730 LINE",
"70 730 LINE",
"70 660 LINE",
"340 660 LINE",
"340 656 LINE",
"70 70 LINE",
"70 0 LINE"
);
}
);
vertWidth = 1000;
width = 500;
},
{
anchors = (
{
name = bottom;
position = "{250, 0}";
},
{
name = center;
position = "{250, 365}";
},
{
name = top;
position = "{250, 730}";
}
);
layerId = "FC9CFCDA-9E80-4E73-BA51-8504D15957FA";
paths = (
{
closed = 1;
nodes = (
"440 0 LINE",
"440 120 LINE",
"218 120 LINE",
"218 124 LINE",
"440 610 LINE",
"440 730 LINE",
"60 730 LINE",
"60 610 LINE",
"282 610 LINE",
"282 606 LINE",
"60 120 LINE",
"60 0 LINE"
);
}
);
vertWidth = 1000;
width = 500;
},
{
anchors = (
{
name = bottom;
position = "{300, 0}";
},
{
name = center;
position = "{300, 365}";
},
{
name = top;
position = "{300, 730}";
}
);
layerId = "0F1A0AC1-B8D5-4257-ADED-894CB2B827EF";
paths = (
{
closed = 1;
nodes = (
"525 0 LINE",
"525 120 LINE",
"232 120 LINE",
"232 124 LINE",
"525 610 LINE",
"525 730 LINE",
"75 730 LINE",
"75 610 LINE",
"368 610 LINE",
"368 606 LINE",
"75 120 LINE",
"75 0 LINE"
);
}
);
vertWidth = 1000;
width = 600;
},
{
anchors = (
{
name = bottom;
position = "{300, 0}";
},
{
name = center;
position = "{300, 365}";
},
{
name = top;
position = "{300, 730}";
}
);
layerId = "72F02222-BF87-41FD-9A7E-0ABB550ED2DB";
paths = (
{
closed = 1;
nodes = (
"510 0 LINE",
"510 70 LINE",
"180 70 LINE",
"180 74 LINE",
"510 660 LINE",
"510 730 LINE",
"90 730 LINE",
"90 660 LINE",
"420 660 LINE",
"420 656 LINE",
"90 70 LINE",
"90 0 LINE"
);
}
);
vertWidth = 1000;
width = 600;
},
{
anchors = (
{
name = bottom;
position = "{300, 0}";
},
{
name = center;
position = "{300, 365}";
},
{
name = top;
position = "{300, 730}";
}
);
layerId = "D0C1F23C-2F9F-4D30-8C4D-098ED54EEF3D";
paths = (
{
closed = 1;
nodes = (
"495 0 LINE",
"495 20 LINE",
"129 20 LINE",
"129 24 LINE",
"495 710 LINE",
"495 730 LINE",
"105 730 LINE",
"105 710 LINE",
"471 710 LINE",
"471 706 LINE",
"105 20 LINE",
"105 0 LINE"
);
}
);
width = 600;
}
);
leftKerningGroup = Z;
rightKerningGroup = Z;
rightMetricsKey = "=|";
unicode = 005A;
},
{
color = 9;
export = 0;
glyphname = S.001;
lastChange = "2021-05-05 04:42:54 +0000";
layers = (
{
anchors = (
{
name = bottom;
position = "{250, 0}";
},
{
name = cedi;
position = "{200, 0}";
},
{
name = top;
position = "{250, 730}";
}
);
layerId = "D65C9A1E-0FCA-4B2D-8EDF-9F36CA9182A1";
paths = (
{
closed = 1;
nodes = (
"353 -10 OFFCURVE",
"430 59 OFFCURVE",
"430 173 CURVE SMOOTH",
"430 301 OFFCURVE",
"336 350 OFFCURVE",
"249 395 CURVE SMOOTH",
"170 437 OFFCURVE",
"100 479 OFFCURVE",
"100 580 CURVE SMOOTH",
"100 670 OFFCURVE",
"160 720 OFFCURVE",
"273 720 CURVE SMOOTH",
"314 720 OFFCURVE",
"362 713 OFFCURVE",
"411 701 CURVE",
"396 713 LINE",
"396 520 LINE",
"416 520 LINE",
"416 720 LINE",
"366 733 OFFCURVE",
"316 740 OFFCURVE",
"273 740 CURVE SMOOTH",
"150 740 OFFCURVE",
"80 682 OFFCURVE",
"80 580 CURVE SMOOTH",
"80 467 OFFCURVE",
"160 419 OFFCURVE",
"239 377 CURVE SMOOTH",
"326 332 OFFCURVE",
"410 289 OFFCURVE",
"410 173 CURVE SMOOTH",
"410 70 OFFCURVE",
"342 10 OFFCURVE",
"225 10 CURVE SMOOTH",
"177 10 OFFCURVE",
"133 20 OFFCURVE",
"85 38 CURVE",
"85 18 LINE",
"133 -1 OFFCURVE",
"179 -10 OFFCURVE",
"225 -10 CURVE SMOOTH"
);
}
);
width = 500;
},
{
anchors = (
{
name = bottom;
position = "{250, 0}";
},
{
name = cedi;
position = "{220, 0}";
},
{
name = top;
position = "{250, 730}";
}
);
layerId = "FC9CFCDA-9E80-4E73-BA51-8504D15957FA";
paths = (
{
closed = 1;
nodes = (
"381 -10 OFFCURVE",
"455 51 OFFCURVE",
"455 181 CURVE SMOOTH",
"455 279 OFFCURVE",
"414 335 OFFCURVE",
"294 405 CURVE SMOOTH",
"213 452 OFFCURVE",
"189 487 OFFCURVE",
"189 538 CURVE SMOOTH",
"189 593 OFFCURVE",
"220 614 OFFCURVE",
"299 614 CURVE SMOOTH",
"316 614 OFFCURVE",
"339 613 OFFCURVE",
"359 610 CURVE",
"310 671 LINE",
"310 500 LINE",
"450 500 LINE",
"450 725 LINE",
"401 735 OFFCURVE",
"350 740 OFFCURVE",
"303 740 CURVE SMOOTH",
"134 740 OFFCURVE",
"45 676 OFFCURVE",
"45 540 CURVE SMOOTH",
"45 437 OFFCURVE",
"85 372 OFFCURVE",
"208 299 CURVE SMOOTH",
"285 254 OFFCURVE",
"311 225 OFFCURVE",
"311 185 CURVE SMOOTH",
"311 140 OFFCURVE",
"275 116 OFFCURVE",
"210 116 CURVE SMOOTH",
"162 116 OFFCURVE",
"103 129 OFFCURVE",
"55 149 CURVE",
"55 15 LINE",
"105 -1 OFFCURVE",
"164 -10 OFFCURVE",
"224 -10 CURVE SMOOTH"
);
}
);
vertWidth = 1000;
width = 500;
},
{
anchors = (
{
name = bottom;
position = "{300, 0}";
},
{
name = cedi;
position = "{260, 0}";
},
{
name = top;
position = "{300, 730}";
}
);
layerId = "0F1A0AC1-B8D5-4257-ADED-894CB2B827EF";
paths = (
{
closed = 1;
nodes = (
"455 -10 OFFCURVE",
"540 53 OFFCURVE",
"540 187 CURVE SMOOTH",
"540 289 OFFCURVE",
"491 343 OFFCURVE",
"337 410 CURVE SMOOTH",
"236 453 OFFCURVE",
"204 489 OFFCURVE",
"204 538 CURVE SMOOTH",
"204 590 OFFCURVE",
"245 614 OFFCURVE",
"336 614 CURVE SMOOTH",
"362 614 OFFCURVE",
"395 612 OFFCURVE",
"417 610 CURVE",
"390 671 LINE",
"390 500 LINE",
"530 500 LINE",
"530 725 LINE",
"475 735 OFFCURVE",
"409 740 OFFCURVE",
"352 740 CURVE SMOOTH",
"151 740 OFFCURVE",
"60 677 OFFCURVE",
"60 537 CURVE SMOOTH",
"60 428 OFFCURVE",
"112 364 OFFCURVE",
"271 294 CURVE SMOOTH",
"366 251 OFFCURVE",
"396 224 OFFCURVE",
"396 185 CURVE SMOOTH",
"396 137 OFFCURVE",
"355 116 OFFCURVE",
"261 116 CURVE SMOOTH",
"196 116 OFFCURVE",
"140 126 OFFCURVE",
"75 149 CURVE",
"75 15 LINE",
"133 -1 OFFCURVE",
"204 -10 OFFCURVE",
"272 -10 CURVE SMOOTH"
);
}
);
vertWidth = 1000;
width = 600;
},
{
anchors = (
{
name = bottom;
position = "{300, 0}";
},
{
name = cedi;
position = "{260, 0}";
},
{
name = top;
position = "{300, 730}";
}
);
layerId = "72F02222-BF87-41FD-9A7E-0ABB550ED2DB";
paths = (
{
closed = 1;
nodes = (
"440 -10 OFFCURVE",
"527 54 OFFCURVE",
"527 180 CURVE SMOOTH",
"527 279 OFFCURVE",
"474 333 OFFCURVE",
"317 402 CURVE SMOOTH",
"196 453 OFFCURVE",
"159 494 OFFCURVE",
"159 559 CURVE SMOOTH",
"159 634 OFFCURVE",
"214 668 OFFCURVE",
"329 668 CURVE SMOOTH",
"369 668 OFFCURVE",
"405 664 OFFCURVE",
"454 656 CURVE",
"433 692 LINE",
"433 510 LINE",
"513 510 LINE",
"513 723 LINE",
"455 734 OFFCURVE",
"391 740 OFFCURVE",
"337 740 CURVE SMOOTH",
"164 740 OFFCURVE",
"77 679 OFFCURVE",
"77 558 CURVE SMOOTH",
"77 458 OFFCURVE",
"132 401 OFFCURVE",
"279 336 CURVE SMOOTH",
"405 281 OFFCURVE",
"445 244 OFFCURVE",
"445 179 CURVE SMOOTH",
"445 99 OFFCURVE",
"386 62 OFFCURVE",
"266 62 CURVE SMOOTH",
"203 62 OFFCURVE",
"150 72 OFFCURVE",
"87 94 CURVE",
"87 16 LINE",
"146 -1 OFFCURVE",
"209 -10 OFFCURVE",
"272 -10 CURVE SMOOTH"
);
}
);
vertWidth = 1000;
width = 600;
},
{
anchors = (
{
name = bottom;
position = "{300, 0}";
},
{
name = cedi;
position = "{250, 0}";
},
{
name = top;
position = "{300, 730}";
}
);
layerId = "D0C1F23C-2F9F-4D30-8C4D-098ED54EEF3D";
paths = (
{
closed = 1;
nodes = (
"427 -10 OFFCURVE",
"515 55 OFFCURVE",
"515 173 CURVE SMOOTH",
"515 268 OFFCURVE",
"459 324 OFFCURVE",
"296 395 CURVE SMOOTH",
"157 456 OFFCURVE",
"115 504 OFFCURVE",
"115 580 CURVE SMOOTH",
"115 672 OFFCURVE",
"185 720 OFFCURVE",
"321 720 CURVE SMOOTH",
"372 720 OFFCURVE",
"432 713 OFFCURVE",
"492 700 CURVE",
"476 713 LINE",
"476 520 LINE",
"496 520 LINE",
"496 720 LINE",
"435 733 OFFCURVE",
"373 740 OFFCURVE",
"321 740 CURVE SMOOTH",
"174 740 OFFCURVE",
"95 684 OFFCURVE",
"95 580 CURVE SMOOTH",
"95 489 OFFCURVE",
"152 436 OFFCURVE",
"288 377 CURVE SMOOTH",
"444 309 OFFCURVE",
"495 259 OFFCURVE",
"495 173 CURVE SMOOTH",
"495 67 OFFCURVE",
"417 10 OFFCURVE",
"271 10 CURVE SMOOTH",
"210 10 OFFCURVE",
"160 20 OFFCURVE",
"100 40 CURVE",
"100 18 LINE",
"160 -2 OFFCURVE",
"216 -10 OFFCURVE",
"271 -10 CURVE SMOOTH"
);
}
);
width = 600;
},
{
anchors = (
{
name = bottom;
position = "{250, 0}";
},
{
name = cedi;
position = "{215, 0}";
},
{
name = top;
position = "{250, 730}";
}
);
layerId = "E27A6A66-A1F8-4E1B-8224-7C0FE77551F2";
paths = (
{
closed = 1;
nodes = (
"369 -10 OFFCURVE",
"442 52 OFFCURVE",
"442 177 CURVE SMOOTH",
"442 273 OFFCURVE",
"400 327 OFFCURVE",
"272 399 CURVE SMOOTH",
"173 454 OFFCURVE",
"144 496 OFFCURVE",
"144 559 CURVE SMOOTH",
"144 633 OFFCURVE",
"190 668 OFFCURVE",
"286 668 CURVE SMOOTH",
"319 668 OFFCURVE",
"349 664 OFFCURVE",
"385 656 CURVE",
"353 692 LINE",
"353 510 LINE",
"433 510 LINE",
"433 723 LINE",
"381 735 OFFCURVE",
"335 740 OFFCURVE",
"288 740 CURVE SMOOTH",
"132 740 OFFCURVE",
"62 684 OFFCURVE",
"62 560 CURVE SMOOTH",
"62 465 OFFCURVE",
"99 409 OFFCURVE",
"223 339 CURVE SMOOTH",
"328 281 OFFCURVE",
"360 243 OFFCURVE",
"360 179 CURVE SMOOTH",
"360 97 OFFCURVE",
"308 62 OFFCURVE",
"217 62 CURVE SMOOTH",
"166 62 OFFCURVE",
"119 73 OFFCURVE",
"70 93 CURVE",
"70 16 LINE",
"120 -2 OFFCURVE",
"172 -10 OFFCURVE",
"224 -10 CURVE SMOOTH"
);
}
);
vertWidth = 1000;
width = 500;
}
);
leftKerningGroup = S;
rightKerningGroup = S;
},
{
color = 6;
glyphname = a;
lastChange = "2021-05-05 04:42:54 +0000";
layers = (
{
anchors = (
{
name = bottom;
position = "{250, 0}";
},
{
name = ogonek;
position = "{380, 22}";
},
{
name = top;
position = "{250, 520}";
}
);
layerId = "D65C9A1E-0FCA-4B2D-8EDF-9F36CA9182A1";
paths = (
{
closed = 1;
nodes = (
"309 -10 OFFCURVE",
"372 3 OFFCURVE",
"410 22 CURVE",
"410 340 LINE SMOOTH",
"410 486 OFFCURVE",
"374 530 OFFCURVE",
"255 530 CURVE SMOOTH",
"193 530 OFFCURVE",
"129 518 OFFCURVE",
"85 498 CURVE",
"85 476 LINE",
"125 497 OFFCURVE",
"189 510 OFFCURVE",
"255 510 CURVE SMOOTH",
"362 510 OFFCURVE",
"390 476 OFFCURVE",
"390 340 CURVE SMOOTH",
"390 22 LINE",
"401 40 LINE",
"366 22 OFFCURVE",
"306 10 OFFCURVE",
"255 10 CURVE SMOOTH",
"147 10 OFFCURVE",
"80 65 OFFCURVE",
"80 153 CURVE SMOOTH",
"80 247 OFFCURVE",
"160 294 OFFCURVE",
"325 294 CURVE SMOOTH",
"400 294 LINE",
"400 314 LINE",
"325 314 LINE SMOOTH",
"149 314 OFFCURVE",
"60 260 OFFCURVE",
"60 153 CURVE SMOOTH",
"60 54 OFFCURVE",
"136 -10 OFFCURVE",
"255 -10 CURVE SMOOTH"
);
}
);
width = 500;
},
{
anchors = (
{
name = bottom;
position = "{250, 0}";
},
{
name = ogonek;
position = "{384, 22}";
},
{
name = top;
position = "{250, 520}";
}
);
layerId = "E27A6A66-A1F8-4E1B-8224-7C0FE77551F2";
paths = (
{
closed = 1;
nodes = (
"319 -10 OFFCURVE",
"386 2 OFFCURVE",
"428 22 CURVE",
"428 340 LINE SMOOTH",
"428 486 OFFCURVE",
"386 530 OFFCURVE",
"249.991 530 CURVE SMOOTH",
"185 530 OFFCURVE",
"121 520 OFFCURVE",
"75 501 CURVE",
"75 432 LINE",
"134 453 OFFCURVE",
"184 462 OFFCURVE",
"242 462 CURVE SMOOTH",
"332 462 OFFCURVE",
"350 440 OFFCURVE",
"350 338 CURVE SMOOTH",
"350 40 LINE",
"372 86 LINE",
"344 68 OFFCURVE",
"301 57 OFFCURVE",
"258 57 CURVE SMOOTH",
"177 57 OFFCURVE",
"127 97 OFFCURVE",
"127 161 CURVE SMOOTH",
"127 229 OFFCURVE",
"183 262 OFFCURVE",
"299 262 CURVE SMOOTH",
"388 262 LINE",
"388 327 LINE",
"298 327 LINE SMOOTH",
"133 327 OFFCURVE",
"47 270 OFFCURVE",
"47 160 CURVE SMOOTH",
"47 54 OFFCURVE",
"127 -10 OFFCURVE",
"261 -10 CURVE SMOOTH"
);
}
);
vertWidth = 1000;
width = 500;
},
{
anchors = (
{
name = bottom;
position = "{250, 0}";
},
{
name = ogonek;
position = "{383, 22}";
},
{
name = top;
position = "{250, 520}";
}
);
layerId = "FC9CFCDA-9E80-4E73-BA51-8504D15957FA";
paths = (
{
closed = 1;
nodes = (
"331 -10 OFFCURVE",
"400 2 OFFCURVE",
"445 22 CURVE",
"445 340 LINE SMOOTH",
"445 486 OFFCURVE",
"398 530 OFFCURVE",
"245 530 CURVE SMOOTH",
"176 530 OFFCURVE",
"113 521 OFFCURVE",
"65 504 CURVE",
"65 388 LINE",
"143 409 OFFCURVE",
"179 414 OFFCURVE",
"230 414 CURVE SMOOTH",
"298 414 OFFCURVE",
"307 405 OFFCURVE",
"307 336 CURVE SMOOTH",
"307 58 LINE",
"343 131 LINE",
"319 112 OFFCURVE",
"294 104 OFFCURVE",
"261 104 CURVE SMOOTH",
"205 104 OFFCURVE",
"173 127 OFFCURVE",
"173 168 CURVE SMOOTH",
"173 210 OFFCURVE",
"206 230 OFFCURVE",
"273 230 CURVE SMOOTH",
"376 230 LINE",
"376 340 LINE",
"271 340 LINE SMOOTH",
"118 340 OFFCURVE",
"35 279 OFFCURVE",
"35 167 CURVE SMOOTH",
"35 54 OFFCURVE",
"119 -10 OFFCURVE",
"267 -10 CURVE SMOOTH"
);
}
);
vertWidth = 1000;
width = 500;
},
{
anchors = (
{
name = bottom;
position = "{300, 0}";
},
{
name = ogonek;
position = "{455, 22}";
},
{
name = top;
position = "{300, 520}";
}
);
layerId = "0F1A0AC1-B8D5-4257-ADED-894CB2B827EF";
paths = (
{
closed = 1;
nodes = (
"385 -10 OFFCURVE",
"465 2 OFFCURVE",
"518 22 CURVE",
"518 340 LINE SMOOTH",
"518 486 OFFCURVE",
"465 530 OFFCURVE",
"292 530 CURVE SMOOTH",
"215 530 OFFCURVE",
"146 521 OFFCURVE",
"91 504 CURVE",
"91 388 LINE",
"177 407 OFFCURVE",
"229 414 OFFCURVE",
"286 414 CURVE SMOOTH",
"364 414 OFFCURVE",
"380 401 OFFCURVE",
"380 336 CURVE SMOOTH",
"380 58 LINE",
"400 131 LINE",
"370 112 OFFCURVE",
"334 104 OFFCURVE",
"296 104 CURVE SMOOTH",
"232 104 OFFCURVE",
"196 127 OFFCURVE",
"196 168 CURVE SMOOTH",
"196 210 OFFCURVE",
"233 230 OFFCURVE",
"311 230 CURVE SMOOTH",
"441 230 LINE",
"441 340 LINE",
"317 340 LINE SMOOTH",
"146 340 OFFCURVE",
"58 281 OFFCURVE",
"58 167 CURVE SMOOTH",
"58 52 OFFCURVE",
"147 -10 OFFCURVE",
"312 -10 CURVE SMOOTH"
);
}
);
vertWidth = 1000;
width = 600;
},
{
anchors = (
{
name = bottom;
position = "{300, 0}";
},
{
name = ogonek;
position = "{457, 22}";
},
{
name = top;
position = "{300, 520}";
}
);
layerId = "72F02222-BF87-41FD-9A7E-0ABB550ED2DB";
paths = (
{
closed = 1;
nodes = (
"375 -10 OFFCURVE",
"453 3 OFFCURVE",
"501 22 CURVE",
"501 340 LINE SMOOTH",
"501 486 OFFCURVE",
"453 530 OFFCURVE",
"292.998 530 CURVE SMOOTH",
"217 530 OFFCURVE",
"153 520 OFFCURVE",
"101 501 CURVE",
"101 431 LINE",
"171 453 OFFCURVE",
"225 462 OFFCURVE",
"290 462 CURVE SMOOTH",
"397 462 OFFCURVE",
"423 438 OFFCURVE",
"423 338 CURVE SMOOTH",
"423 43 LINE",
"438 86 LINE",
"404 68 OFFCURVE",
"347 57 OFFCURVE",
"296 57 CURVE SMOOTH",
"203 57 OFFCURVE",
"151 94 OFFCURVE",
"151 160 CURVE SMOOTH",
"151 230 OFFCURVE",
"209 260 OFFCURVE",
"343 260 CURVE SMOOTH",
"457 260 LINE",
"457 327 LINE",
"346 327 LINE SMOOTH",
"158 327 OFFCURVE",
"71 274 OFFCURVE",
"71 160 CURVE SMOOTH",
"71 50 OFFCURVE",
"153 -10 OFFCURVE",
"304 -10 CURVE SMOOTH"
);
}
);
vertWidth = 1000;
width = 600;
},
{
anchors = (
{
name = bottom;
position = "{300, 0}";
},
{
name = ogonek;
position = "{454, 22}";
},
{
name = top;
position = "{300, 520}";
}
);
layerId = "D0C1F23C-2F9F-4D30-8C4D-098ED54EEF3D";
paths = (
{
closed = 1;
nodes = (
"361 -10 OFFCURVE",
"437 3 OFFCURVE",
"484 22 CURVE",
"484 340 LINE SMOOTH",
"484 486 OFFCURVE",
"440 530 OFFCURVE",
"294 530 CURVE SMOOTH",
"221 530 OFFCURVE",
"161 519 OFFCURVE",
"112 498 CURVE",
"112 475 LINE",
"160 498 OFFCURVE",
"220 510 OFFCURVE",
"294 510 CURVE SMOOTH",
"429 510 OFFCURVE",
"464 475 OFFCURVE",
"464 340 CURVE SMOOTH",
"464 27 LINE",
"477 41 LINE",
"432 22 OFFCURVE",
"358 10 OFFCURVE",
"296 10 CURVE SMOOTH",
"170 10 OFFCURVE",
"104 60 OFFCURVE",
"104 153 CURVE SMOOTH",
"104 252 OFFCURVE",
"180 294 OFFCURVE",
"376 294 CURVE SMOOTH",
"474 294 LINE",
"474 314 LINE",
"376 314 LINE SMOOTH",
"171 314 OFFCURVE",
"84 266 OFFCURVE",
"84 153 CURVE SMOOTH",
"84 48 OFFCURVE",
"159 -10 OFFCURVE",
"296 -10 CURVE SMOOTH"
);
}
);
width = 600;
}
);
leftKerningGroup = a;
rightKerningGroup = h;
unicode = 0061;
},
